/* XPM */
static char * config_xpm[] = {
"32 32 205 2",
"  	c None",
". 	c #888A85",
"+ 	c #AFB0AD",
"@ 	c #DDDDDD",
"# 	c #DFDFDE",
"$ 	c #E0E0DF",
"% 	c #DEDEDD",
"& 	c #DDDDDC",
"* 	c #DCDCDB",
"= 	c #DBDBDA",
"- 	c #DADAD9",
"; 	c #D9D9D8",
"> 	c #D8D8D7",
", 	c #B2B3B0",
"' 	c #828480",
") 	c #5F615D",
"! 	c #585A56",
"~ 	c #565854",
"{ 	c #555753",
"] 	c #5A5C58",
"^ 	c #A5A6A4",
"/ 	c #EDEDED",
"( 	c #ECECEC",
"_ 	c #EBEBEB",
": 	c #EAEAEA",
"< 	c #E9E9E9",
"[ 	c #E8E8E8",
"} 	c #E7E7E7",
"| 	c #E6E6E6",
"1 	c #E5E5E5",
"2 	c #E4E4E4",
"3 	c #E0E0E0",
"4 	c #898B86",
"5 	c #777974",
"6 	c #929391",
"7 	c #EFEFED",
"8 	c #ECECEA",
"9 	c #CFD0CD",
"0 	c #646562",
"a 	c #555555",
"b 	c #4F4F4F",
"c 	c #A8A8A8",
"d 	c #4B4B4B",
"e 	c #494949",
"f 	c #A4A4A4",
"g 	c #E3E3E3",
"h 	c #9A9B97",
"i 	c #71726E",
"j 	c #B1B3AF",
"k 	c #DDDEDB",
"l 	c #676965",
"m 	c #D1D1D1",
"n 	c #333333",
"o 	c #929292",
"p 	c #424242",
"q 	c #818181",
"r 	c #AEAFAC",
"s 	c #626460",
"t 	c #A9ABA6",
"u 	c #BABDB6",
"v 	c #7F817C",
"w 	c #A6A7A5",
"x 	c #E1E1E1",
"y 	c #888888",
"z 	c #515151",
"A 	c #636363",
"B 	c #C2C2C1",
"C 	c #848581",
"D 	c #B8BBB4",
"E 	c #9C9E98",
"F 	c #7C7D7A",
"G 	c #D7D7D7",
"H 	c #7E7E7E",
"I 	c #606060",
"J 	c #343434",
"K 	c #464646",
"L 	c #D5D6D5",
"M 	c #838580",
"N 	c #5D5F5B",
"O 	c #616460",
"P 	c #60625D",
"Q 	c #595B57",
"R 	c #C8C8C8",
"S 	c #757575",
"T 	c #575955",
"U 	c #9FA09E",
"V 	c #8E908C",
"W 	c #969894",
"X 	c #DCDCDC",
"Y 	c #8A8A89",
"Z 	c #383837",
"` 	c #A9A9A8",
" .	c #BEBEBE",
"..	c #353636",
"+.	c #343535",
"@.	c #6B6C6C",
"#.	c #939491",
"$.	c #EAEBE9",
"%.	c #EBEBE9",
"&.	c #EBEBEA",
"*.	c #D0D1CE",
"=.	c #61625F",
"-.	c #A1A29E",
";.	c #AAABA8",
">.	c #797B7C",
",.	c #3D4041",
"'.	c #C7C8C8",
").	c #6E706C",
"!.	c #888A87",
"~.	c #868784",
"{.	c #B0B2AE",
"].	c #DADCD8",
"^.	c #686A66",
"/.	c #A0A19E",
"(.	c #BFC0BD",
"_.	c #65696B",
":.	c #474C4E",
"<.	c #D6D7D7",
"[.	c #7E7F7D",
"}.	c #E2E2E0",
"|.	c #D9DAD9",
"1.	c #676865",
"2.	c #A9ACA6",
"3.	c #81837E",
"4.	c #90918F",
"5.	c #D1D2D1",
"6.	c #545D5F",
"7.	c #50595B",
"8.	c #E3E4E4",
"9.	c #A2A3A1",
"0.	c #999A97",
"a.	c #868883",
"b.	c #A9A9A9",
"c.	c #5B5D59",
"d.	c #B9BCB5",
"e.	c #9DA09A",
"f.	c #757673",
"g.	c #E5E5E4",
"h.	c #D5D7D7",
"i.	c #5A6568",
"j.	c #5E696C",
"k.	c #828481",
"l.	c #989A95",
"m.	c #92948F",
"n.	c #838682",
"o.	c #5C5E5A",
"p.	c #5C5E59",
"q.	c #5A5D58",
"r.	c #919390",
"s.	c #989A96",
"t.	c #C1C5C6",
"u.	c #647175",
"v.	c #747F83",
"w.	c #636561",
"x.	c #ABAEA8",
"y.	c #AEB1AB",
"z.	c #61635F",
"A.	c #DFDFDF",
"B.	c #C8CBCB",
"C.	c #636F73",
"D.	c #657175",
"E.	c #D6D6D6",
"F.	c #D9D9D9",
"G.	c #D8D8D8",
"H.	c #A8AAA6",
"I.	c #ACADAA",
"J.	c #BDC2C3",
"K.	c #879194",
"L.	c #889295",
"M.	c #99A2A4",
"N.	c #6C6E6A",
"O.	c #CACAC9",
"P.	c #DCDDDE",
"Q.	c #869093",
"R.	c #D3D5D5",
"S.	c #BBBCBA",
"T.	c #C0C1BF",
"U.	c #E2E2E2",
"V.	c #CECFCE",
"W.	c #D5D5D4",
"X.	c #F2F2F2",
"Y.	c #F3F3F3",
"Z.	c #F4F4F4",
"`.	c #F1F1F1",
" +	c #8B8D89",
".+	c #D4D4D4",
"++	c #D5D5D5",
"@+	c #D3D3D3",
"#+	c #D2D2D2",
"$+	c #D0D0D0",
"%+	c #CFCFCF",
"&+	c #CECECE",
"*+	c #CDCDCD",
"=+	c #CCCCCC",
"-+	c #CBCBCB",
";+	c #CACACA",
">+	c #C9C9C9",
",+	c #C7C7C7",
"'+	c #878984",
")+	c #D4D4D3",
"!+	c #8C8D89",
"~+	c #848681",
"{+	c #BDBDBB",
"]+	c #B7B7B6",
"^+	c #82847F",
"                                                                ",
"                                                                ",
"                                                                ",
"                                                                ",
"                                                                ",
"          . . . . . . . . . . . . . . . . . . . . . .           ",
"        . + @ # $ $ $ $ $ $ # # # % & & * = = - ; > , .         ",
"        ' ) ! ~ { ! ] ^ / ( ( _ : : < [ } } | 1 2 2 3 4         ",
"        5 6 7 7 7 8 9 0 ( / a b b c < [ } d e e f 2 g h         ",
"        i j k k k k k l m _ n n n o < < [ p n n q 2 g r         ",
"      . s t u u u u u v w x n n n y < < [ z n n A 2 g B .       ",
"      C ] D u u u u u E F G n n n H : < [ I J J K g g L .       ",
"      M N O O O O O O P Q R n n n S < < > T Q ! T ~ { U V       ",
"      W X ; Y Z Z Z ` - >  ...+...@.< < ^ #.$.%.%.&.*.=.-.      ",
"      ;.: : >.,.,.,.'.[ ).Q ! T ~ { !.[ ~.{.].].].].].^./..     ",
"    . (.< : _.:.:.:.<.B [.%.&.%.&.}.) |.1.2.u u u u u 3.4..     ",
"    . 5.< [ 6.7.7.7.8.9.0.].].].].].a.b.c.d.u u u u u e.f..     ",
"    4 g.[ h.i.i.i.j.: k.l.u u u u u m.n.o.p.p.p.p.p.p.q.T r.    ",
"    s.} [ t.u.u.u.v.: w.x.u u u u u y.z.A.B.C.C.C.D.E.F.G.H.    ",
"  . I.| } J.K.K.L.M.[ N.! ! ! ! ! ! ! { O.P.K.Q.Q.Q.R.x x S..   ",
"  . T.| | } } [ [ [ [ 1 2 2 2 2 g g U.U.2 1 2 2 g U.U.x 3 V..   ",
"  . W.1 | | } } } } } } } } } } } | | 1 1 2 2 g g U.x x 3 x .   ",
"  . < X.Y.Y.Y.Y.Y.Z.Z.Z.Z.Z.Y.Y.Y.Y.Y.Y.X.X.X.X.`.`.`.`.`.<  +  ",
"  . .+F.G.G G E.++.+.+@+#+m $+$+%+&+*+=+=+-+;+>+R R ,+,+,+,+ +  ",
"  '+)+F.G.G E.E.++.+@+#+#+m $+%+&+&+*+=+-+;+;+>+R ,+,+,+,+,+!+  ",
"  ~+{+G.G.G E.++.+.+@+#+m $+$+%+&+*+=+=+-+;+>+>+R ,+,+,+,+]+~+  ",
"    M . . . . . . . . . . . . . . . . . . . . . . . . . . ^+    ",
"                                                                ",
"                                                                ",
"                                                                ",
"                                                                ",
"                                                                "};
