/* XPM */
static char * config_xpm[] = {
"48 60 250 2",
"  	c None",
". 	c #000000",
"+ 	c #FFFFFF",
"@ 	c #8C8D8D",
"# 	c #5F5F5F",
"$ 	c #262626",
"% 	c #8B8C8B",
"& 	c #A2A2A3",
"* 	c #676667",
"= 	c #3E3E3E",
"- 	c #39393A",
"; 	c #393738",
"> 	c #565656",
", 	c #848685",
"' 	c #717172",
") 	c #4B4B4D",
"! 	c #141414",
"~ 	c #141413",
"{ 	c #131414",
"] 	c #706F70",
"^ 	c #161617",
"/ 	c #141312",
"( 	c #1E1E1E",
"_ 	c #494B4A",
": 	c #949595",
"< 	c #797A79",
"[ 	c #242425",
"} 	c #1A1B1A",
"| 	c #1E1F1F",
"1 	c #181716",
"2 	c #5C5E5D",
"3 	c #BFBFBE",
"4 	c #818181",
"5 	c #232323",
"6 	c #161616",
"7 	c #1C1B1C",
"8 	c #151516",
"9 	c #5C5B5C",
"0 	c #CACACA",
"a 	c #F5F5F5",
"b 	c #FBFCFC",
"c 	c #858484",
"d 	c #8A8A8A",
"e 	c #D3D2D4",
"f 	c #6D6B6B",
"g 	c #151415",
"h 	c #151515",
"i 	c #1D1D1D",
"j 	c #E9E9E9",
"k 	c #F7F8F8",
"l 	c #CDCDCE",
"m 	c #323233",
"n 	c #E2E2E2",
"o 	c #ECECED",
"p 	c #F9FAFA",
"q 	c #F2F2F2",
"r 	c #999898",
"s 	c #504F4F",
"t 	c #1B1A1B",
"u 	c #DEDFDF",
"v 	c #E5E6E6",
"w 	c #727171",
"x 	c #414040",
"y 	c #E1E1E1",
"z 	c #D0D1CF",
"A 	c #CFCDCD",
"B 	c #D8D8D8",
"C 	c #716F70",
"D 	c #131412",
"E 	c #777777",
"F 	c #D2D3D4",
"G 	c #BFBFC0",
"H 	c #888787",
"I 	c #141515",
"J 	c #7A7B7B",
"K 	c #D1D1D1",
"L 	c #CACBCB",
"M 	c #C8C7C7",
"N 	c #C6C5C5",
"O 	c #656565",
"P 	c #757674",
"Q 	c #313031",
"R 	c #DEDDDD",
"S 	c #DADBDA",
"T 	c #858584",
"U 	c #838383",
"V 	c #BFC0C0",
"W 	c #C2C2C2",
"X 	c #C0C1C1",
"Y 	c #C0BFBE",
"Z 	c #343433",
"` 	c #2C2C2C",
" .	c #444344",
"..	c #101111",
"+.	c #444443",
"@.	c #9E9F9F",
"#.	c #797979",
"$.	c #2F3130",
"%.	c #8E8E8D",
"&.	c #D5D5D5",
"*.	c #CFCFCF",
"=.	c #CDCCCD",
"-.	c #C5C5C5",
";.	c #C1C2C2",
">.	c #BFBDBE",
",.	c #AAA9A9",
"'.	c #191919",
").	c #8D8D8D",
"!.	c #363636",
"~.	c #111011",
"{.	c #121312",
"].	c #A5A5A5",
"^.	c #BDBCBC",
"/.	c #BBBABA",
"(.	c #9B9B9B",
"_.	c #181A18",
":.	c #B5B5B5",
"<.	c #6B6C6B",
"[.	c #C9C9C9",
"}.	c #B9BAB9",
"|.	c #B6B6B6",
"1.	c #B4B4B4",
"2.	c #7B7A7A",
"3.	c #B8B9B8",
"4.	c #B1B2B3",
"5.	c #AFB0B0",
"6.	c #ADADAD",
"7.	c #939292",
"8.	c #424342",
"9.	c #949393",
"0.	c #6D6C6D",
"a.	c #C6C6C5",
"b.	c #BDBDBD",
"c.	c #B5B4B5",
"d.	c #AEAEAD",
"e.	c #ACACAC",
"f.	c #ABAAAA",
"g.	c #A7A7A7",
"h.	c #A6A6A6",
"i.	c #9D9C9D",
"j.	c #464646",
"k.	c #605F5F",
"l.	c #BBBBBB",
"m.	c #B7B7B6",
"n.	c #AFAFAF",
"o.	c #ACACAB",
"p.	c #A0A0A2",
"q.	c #9F9F9E",
"r.	c #9D9D9D",
"s.	c #979898",
"t.	c #595959",
"u.	c #A8A9A7",
"v.	c #9FA0A2",
"w.	c #9A9A99",
"x.	c #969796",
"y.	c #929092",
"z.	c #2B2C2C",
"A.	c #C5C3C4",
"B.	c #AFB1B1",
"C.	c #A1A0A2",
"D.	c #979797",
"E.	c #525452",
"F.	c #A4A4A4",
"G.	c #A8A9A9",
"H.	c #9B9A9A",
"I.	c #8F8F91",
"J.	c #8E8F91",
"K.	c #8A8889",
"L.	c #888887",
"M.	c #858686",
"N.	c #4E4B4D",
"O.	c #3F403F",
"P.	c #7A7A7B",
"Q.	c #6A6B6B",
"R.	c #535454",
"S.	c #515352",
"T.	c #828181",
"U.	c #959694",
"V.	c #575757",
"W.	c #707171",
"X.	c #454545",
"Y.	c #8C8A8A",
"Z.	c #7E7E7E",
"`.	c #0F0F0F",
" +	c #919191",
".+	c #8D8E8F",
"++	c #828282",
"@+	c #807E7F",
"#+	c #878687",
"$+	c #414241",
"%+	c #7C7E7D",
"&+	c #787878",
"*+	c #111112",
"=+	c #808081",
"-+	c #747574",
";+	c #292828",
">+	c #2F2F2F",
",+	c #0B0A0B",
"'+	c #777675",
")+	c #727273",
"!+	c #6E6F6F",
"~+	c #4E4E4E",
"{+	c #3B3C3B",
"]+	c #403F40",
"^+	c #323333",
"/+	c #2E2E2E",
"(+	c #737473",
"_+	c #6B6D6D",
":+	c #5C5C5F",
"<+	c #242424",
"[+	c #555555",
"}+	c #626361",
"|+	c #696868",
"1+	c #656666",
"2+	c #636463",
"3+	c #616060",
"4+	c #5F5D5F",
"5+	c #212122",
"6+	c #434242",
"7+	c #535352",
"8+	c #484849",
"9+	c #A8A8A7",
"0+	c #9D9F9D",
"a+	c #5E5E5F",
"b+	c #6A6A69",
"c+	c #686767",
"d+	c #5E5C5F",
"e+	c #5A5B59",
"f+	c #4A4B4C",
"g+	c #9A999A",
"h+	c #5A5A59",
"i+	c #545554",
"j+	c #515251",
"k+	c #4D4E4D",
"l+	c #474748",
"m+	c #626261",
"n+	c #5A5C5D",
"o+	c #595758",
"p+	c #353435",
"q+	c #626463",
"r+	c #575556",
"s+	c #49494A",
"t+	c #B3B1B3",
"u+	c #484949",
"v+	c #848282",
"w+	c #646464",
"x+	c #3D3D3D",
"y+	c #3F3F3F",
"z+	c #696767",
"A+	c #515150",
". . . . . . . . . . . . . . . . . . . . . . . . . . . . . . . . . . . . . . . . . . . . . . . . ",
". . . . . . . . . . . . . . . . . . . . . . . . . . . . . . . . . . . . . . . . . . . . . . . . ",
". . . . . . . . . . . . . . . . + + + + . . . . . . . . . . . . . . . + + + + + . . . . . . . . ",
". . . . . . . . . . . . . . . + + . . + + . . . . . . . . . . . . . + + . . . . . . . . . . . . ",
". . . . . . . . . . . . . . + + . . . . + . . + + + . . + . + + . . + + + . + + . . + + . + . . ",
". . . . . . . . . . . . . . + + . . . . . . + + . + + . + + . + + . + + . . + + . + + . + + . . ",
". . . . . . . . . . . . . . + + . . . . . . + + . + + . + + . + + . + + . . + + . + . . + + . . ",
". . . . . . . . . . . . . . + + . . . . + . + + . + + . + + . + + . + + . . + + . + . . + + . . ",
". . . . . . . . . . . . . . . + + . . + + . + + . + + . + + . + + . + + . . + + . + + . + + . . ",
". . . . . . . . . . . . . . . . + + + + . . . + + + . . + + . + + . + + . . + + . . + + + + . . ",
". . . . . . . . . . . . . . . . . . . . . . . . . . . . . . . . . . . . . . . . . . . . + + . . ",
". . . . . . . . . . . . . . . . . . . . . . . . . . . . . . . . . . . . . . . . . . + + + . . . ",
"                                                                                                ",
"                                    @ # $ %   & * = - ; ; > ,                                   ",
"                                ' ) ! ~ { ; ] $ ^ / { ! { { ! ( _ :                             ",
"                            < [ ! ! ! ! } | { ! ! ! ! ! ! ! ! 1 | 2                             ",
"                      3 4 $ { { ! ! 5 > } ! ! ! ! ! ! ! ! 6 | 7 8 9                             ",
"                  0 a b c ^ ! ! ! ! d + e f g ! ! ! ! h i ( 6 ! ! ]                             ",
"              3 j b k j l m ! ! ! ! n o j p q r s ! t | ^ ! ! ! / c                             ",
"            u + p o j v n w ! ! ! x + y z A B o b C } ! ! ! ! ! D } E                           ",
"            F G j v n y u H ! ! I J + K A L M N l O ! ! ! ! ! ! ! { 7 E   P Q [ r               ",
"            & 2 v n u R S S T U H V v L M N W X Y Z ! ! ! ! ! ! ! ! { `  .} { ..+.@.            ",
"            #.$.%.u R S B &.F z *.=.L M -.;.X >.,.i ! ! ! ! ! ! ! h 7 ( h ! ! ! '.]             ",
"        ).!.~.{.].n B &.F K *.A L M -.W X 3 ^./.(.i ! ! ! ! ! ! _.( ^ ! ! ! ! ! ~ $ r           ",
"    :.G U Q ! <.a B F K z l l [.M -.;.Y >./.}.|.1.c $ g ! 5 2.> t ! ! ! ! ! ! ! ! ! -           ",
"    j p k y f p S F z *.A L M N ;.X 3 ^./.3.1.4.5.6.7.8.m N p 9.t ! ! ! ! ! ! ! ! ! 6 0.        ",
"    + u S a + n K z l L [.a.W X 3 b./.3.c.1.5.d.e.f.g.h.5.p 5.i.j.^ ! ! ! ! ! ! ! ! _.k.        ",
"  3 b &.B &.n z A =.0 M -.;.V 3 l.}.m.1.4.n.6.o.,.h.& p.q.r.(.s.%.` h ! ! ! ! ! g $ t.          ",
"  *.o F F K *.A L [.N W X 3 ^./.}.:.1.5.n.e.e.u.].& v.@.(.w.x.9.y.< 7 ! ! ! ! _.z.T             ",
"  j y K z *.L [.a.A.;.Y 3 /.}.|.1.B.n.6.f.u.].C.p.@.r.(.D.: 7.y.%.% E.'.! h ( i / #.            ",
"  b.F.*.=.L M N ;.V >.l./.m.1.4.5.6.o.G.g.& C.@.r.H.r x.9.I.J.@ K.L.M.N.( | 6 ! D O.            ",
"  P.! t.1.N A.;.V >.l.}.|.1.5.n.r.Q.R.S.4 p.@.i.w.s.9.7.I.J.% K.H M.T.t.'.! ! ! h 7 @.          ",
"    2.Q ! ;.G 3 l.}.m.1.4.n.6.U.= !.` [ m V.x.r U.9.I.J.).d L.M.U 0.Z g ! ! ! ! ! D W.          ",
"        X.3 ^./.3.:.1.5.6.o.o.N.Z t ! ! 6 Z <.9.y.J.@ Y.L.M.c 4 Z.Q ! ! ! ! ! ! ! ~ ..`./ <     ",
"        X.l.}.m.1.5.5.6.f.u. +!.[ ! ! ! ! ! w r..+% K.L.M.++@+Z.J ` ! ! ! ! ! ! ! ! ! ! D 2     ",
"        y.0 c.4.5.6.e.,.g.].#+!.i ! ! ! ! ! $+|.% L.M.U 4 Z.%+< &++.{ ! ! ! ! ! ! ! ! ! h 2     ",
"    :.v a X 5.n.e.e.u.].C.p.E !.i ! 3.r *+/ ! w.|.T 4 =+%+2.&+P -+V.*+! ! ! ! ! ! ! ! } ;+2     ",
"  :.a o /.5.e.f.u.g.F.p.@.r.U !.i s d >+| ,+! $+q U %+J #.'+P )+] !+8 ! ! ! ! ! ! ^ 5 !.~+2     ",
"  3 p 5.d.e.,.g.].C.v.r.i.r 7.{+]+! 5.^+/+`.! ! + %.2.&+'+(+W.] _+Q.:+>+<+| h g 1 $ {+) E.2     ",
"  :.+ ^.f.u.h.& p.@.i.H.s.U.y.> [+! }+F.| ,+! ! -.1.'+P w ] _+<.|+1+2+3+4+t./+5+z.6+s 7+8+2     ",
"    a l 9+F.C.@.0+(.r x.9.y.J.J a+m ! ;+`.,+! ! d g.)+C !+<.b+c+O }+3+d+9 e+m ; 8+E.~+f+[ ).    ",
"    S R C.p.r.(.w.D.9.7.J.%.% L.g+&+! ! ! ! ! ! l.6.] 0.Q.c+1+}+3+d+:+h+V.i+!.8.j+k+l+<+W.      ",
"    3 q ].r.w.s.x.7. +J.@ d H M.7.F Q ! ! ! ! j+a 4 <.|+* 2+m+k.:+n+o+> R.j+p+8+_  .<+W.        ",
"      + @.r x.9.7.J..+% L.H c 4 @+g.n d+! ! d+R S b+c+O q+3+d+9 t.r+[+E.j+~+/+s+]+5 ).          ",
"      m.Q ! ! ! _ % K.L.T T.4 %+2.#.t+k + + + b.w 1+2+3+# :+h+o+[+R.j+) s+u+z.; ~ ]+            ",
"      p.c c c 2.[ < #+v+4 Z.%+< &+P (+] 7. +J 1+w+m+k.d+:+o+> i+E.s l+x+]+y+[ ~ { ..8+          ",
"                c+k+T.@+%+J #.'+-+' ] 0.<.|+O q+m+4+:+e+o+[+7+j+s 8+= Z $ <+'.{ ! ~ `.          ",
"                  $+(+%+#.E -+w ] !+Q.|+* w+}+# :+e+o+> R.j+s ~+_ x m } ! ! ! 8 *+/ W.          ",
"                -.B -+&+P -+C ] _+b+z+O 2+3+a+n+t.V.i+E.A+~+f+u++.!.t ! ! ! ! ~.~.W.            ",
"                o l.'+-+W.] _+Q.|+O 2+3+4+d+h+o+[+7+j+s N.u+j. .8.` '.! ! ! ~...W.              ",
"                a (+)+] !+<.b+c+O m+k.d+e+o+[+i+7+s ~+f+u+j. .$+y+!.$ '.*+~.*+)+                ",
"                3. .d+_+Q.c+1+2+3+4+:+e+o+[+R.A+s ) _ j. .8.]+= {+; ^+5 1 *+)+                  ",
"                  U ` O.w+2+t.= [+h+t.[+R.j+s N._ l+X.+.x ]+x+- ; p+m /+| D.                    ",
"                    @ ) <+s [ $  .| O.E.A+~+f+8+j. .O.p+/+x+- p+Z $.` 5+%.                      ",
"                      F.'+` ( 2.  D.- +.N._ l+X.8.!.| } ! i - m $.[ | %.                        ",
"                                    k.= l+j. .$+]+]+! ! ! ! 1 ` >+ .C.                          ",
"                                    k.>+ .8.]+x+x+]+! ! ! ! ! $ T                               ",
"                                    b+$ - {+{+- {+]+( ( !  .T                                   ",
"                                       .; ; ; ;+i /+c+                                          ",
"                                                                                                "};
