/* XPM */
static char * empty_xpm[] = {
"24 24 127 2",
"  	c None",
". 	c #ACB7C1",
"+ 	c #ADB8C2",
"@ 	c #ADB7C2",
"# 	c #ABB6C1",
"$ 	c #AAB6C0",
"% 	c #AAB5C0",
"& 	c #A9B4BF",
"* 	c #A8B4BF",
"= 	c #A7B3BE",
"- 	c #84909B",
"; 	c #9EAAB5",
"> 	c #A6B2BD",
", 	c #A8B4BE",
"' 	c #ACB8C2",
") 	c #95A1AD",
"! 	c #5E6973",
"~ 	c #798593",
"{ 	c #96A3B1",
"] 	c #A5B1BD",
"^ 	c #B3BDC7",
"/ 	c #BDC6CE",
"( 	c #C3CBD2",
"_ 	c #C9D0D6",
": 	c #CFD5DB",
"< 	c #D6DCE1",
"[ 	c #DDE1E6",
"} 	c #D5DADF",
"| 	c #BBC4CC",
"1 	c #818E9B",
"2 	c #2F3537",
"3 	c #4E575F",
"4 	c #717D8A",
"5 	c #919EAC",
"6 	c #A3AFBC",
"7 	c #B4BEC8",
"8 	c #C4CCD3",
"9 	c #D2D8DE",
"0 	c #DFE4E7",
"a 	c #ECEEF1",
"b 	c #F8F9FA",
"c 	c #F5F6F8",
"d 	c #DADEE3",
"e 	c #B2BBC3",
"f 	c #717C86",
"g 	c #303639",
"h 	c #545D65",
"i 	c #626D78",
"j 	c #76828D",
"k 	c #869099",
"l 	c #99A1A9",
"m 	c #ABB2B7",
"n 	c #BABFC3",
"o 	c #C5C9CC",
"p 	c #CED1D2",
"q 	c #D5D6D7",
"r 	c #D0D2D3",
"s 	c #BDC1C4",
"t 	c #A1A8AE",
"u 	c #75808B",
"v 	c #69747F",
"w 	c #72808D",
"x 	c #8E9CA9",
"y 	c #9BA7B2",
"z 	c #A7B0B9",
"A 	c #B5BCC3",
"B 	c #C1C7CB",
"C 	c #CDD1D4",
"D 	c #DADCDF",
"E 	c #E7E8E9",
"F 	c #EBECED",
"G 	c #D8DDE1",
"H 	c #B9C2CB",
"I 	c #838F9D",
"J 	c #6A7580",
"K 	c #727F8D",
"L 	c #919FAD",
"M 	c #A3AFBB",
"N 	c #B2BCC6",
"O 	c #C1C9D1",
"P 	c #CFD6DC",
"Q 	c #DCE1E5",
"R 	c #E9ECEF",
"S 	c #F6F7F8",
"T 	c #F5F6F7",
"U 	c #DBDFE4",
"V 	c #B9C2CA",
"W 	c #828F9C",
"X 	c #697580",
"Y 	c #A2AEBA",
"Z 	c #B1BBC5",
"` 	c #C0C8D0",
" .	c #CED5DB",
"..	c #DBE0E4",
"+.	c #E8EBEE",
"@.	c #F4F5F7",
"#.	c #697480",
"$.	c #636E78",
"%.	c #74818F",
"&.	c #B6BEC7",
"*.	c #77838E",
"=.	c #434B50",
"-.	c #66717C",
";.	c #8E9BA9",
">.	c #A4B0BC",
",.	c #C1CAD2",
"'.	c #EAECEF",
").	c #F7F9FA",
"!.	c #F7F8F9",
"~.	c #BDC2C6",
"{.	c #61676B",
"].	c #373E41",
"^.	c #555E65",
"/.	c #757F87",
"(.	c #959DA4",
"_.	c #AEB5BB",
":.	c #BFC5CA",
"<.	c #CBCFD3",
"[.	c #D1D4D6",
"}.	c #CED0D1",
"|.	c #B5B8B9",
"1.	c #62676A",
"2.	c #31383A",
"3.	c #2E3436",
"4.	c #4F5557",
"5.	c #5A5F61",
"6.	c #5E6365",
"                                                ",
"                                                ",
"                                                ",
"            . + @ . # $ % & * * = =             ",
"          - ; > = = > > > > > , # ' )           ",
"          ! ~ { ] ^ / ( _ : < [ } | 1           ",
"        2 3 4 5 6 7 8 9 0 a b c d e f           ",
"        g h i j k l m n o p q r s t u           ",
"          v w x y z A B C D E F G H I           ",
"          J K L M N O P Q R S T U V W           ",
"          X K L Y Z `  ...+.T @.U V W           ",
"          X K L Y Z `  ...+.T @.U V W           ",
"          X K L Y Z `  ...+.T @.U V W           ",
"          X K L Y Z `  ...+.T @.U V W           ",
"          X K L Y Z `  ...+.T @.U V W           ",
"          X K L Y Z `  ...+.T @.U V W           ",
"          X K L Y Z `  ...+.T @.U V W           ",
"          X K L Y Z `  ...+.T @.U V W           ",
"          J K L Y Z `  ...+.T @.U V W           ",
"          #.K L Y Z `  ...+.T @.U H W           ",
"          $.%.L Y Z `  ...+.T @.Q &.*.          ",
"          =.-.;.>.^ ,.P Q '.).!.~.{.].          ",
"              ^./.(._.:.<.[.}.|.1.2.3.          ",
"                    4.5.6.5.                    "};
