/* XPM */
static char * exit_fr_xpm[] = {
"48 60 81 1",
" 	c None",
".	c #000000",
"+	c #FFFFFF",
"@	c #6D6D6D",
"#	c #EAEAEA",
"$	c #EEEEEE",
"%	c #5F5F5F",
"&	c #040404",
"*	c #FAFAFA",
"=	c #FDFDFD",
"-	c #0A0A0A",
";	c #3D3D3D",
">	c #6E6E6E",
",	c #E9E9E9",
"'	c #252525",
")	c #D8D8D8",
"!	c #A4A4A4",
"~	c #2E2E2E",
"{	c #F9F9F9",
"]	c #242424",
"^	c #ECECEC",
"/	c #282828",
"(	c #E6E6E6",
"_	c #CACACA",
":	c #E0E0E0",
"<	c #E1E1E1",
"[	c #F6F6F6",
"}	c #E4E4E4",
"|	c #101010",
"1	c #A2A2A2",
"2	c #F4F4F4",
"3	c #E7E7E7",
"4	c #585858",
"5	c #1A1A1A",
"6	c #D2D2D2",
"7	c #E2E2E2",
"8	c #232323",
"9	c #DADADA",
"0	c #A6A6A6",
"a	c #B2B2B2",
"b	c #707070",
"c	c #A0A0A0",
"d	c #888888",
"e	c #747474",
"f	c #9C9C9C",
"g	c #4D4D4D",
"h	c #DDDDDD",
"i	c #2C2C2C",
"j	c #959595",
"k	c #B5B5B5",
"l	c #5D5D5D",
"m	c #898989",
"n	c #7F7F7F",
"o	c #B0B0B0",
"p	c #606060",
"q	c #BFBFBF",
"r	c #444444",
"s	c #EFEFEF",
"t	c #EBEBEB",
"u	c #808080",
"v	c #8C8C8C",
"w	c #F8F8F8",
"x	c #F2F2F2",
"y	c #1F1F1F",
"z	c #AFAFAF",
"A	c #4C4C4C",
"B	c #020202",
"C	c #202020",
"D	c #F1F1F1",
"E	c #1E1E1E",
"F	c #B3B3B3",
"G	c #535353",
"H	c #4A4A4A",
"I	c #191919",
"J	c #DCDCDC",
"K	c #B6B6B6",
"L	c #FBFBFB",
"M	c #222222",
"N	c #6A6A6A",
"O	c #EDEDED",
"P	c #262626",
"................................................",
"................................................",
"................................................",
"................................................",
"..................++............................",
".....@#$%.........++..&*=-.&*=-.................",
"....;+>+,.............'+)..'+)..................",
"....!+~+{.]+^/(._+:..<+++[}+++[|1234..5+*67.....",
"....<+8+9.@+04a.b+c...d+e..d+e.f+g+$..g+h|......",
"....*+i+j.k+lmn.o+p...q+r..q+r.s+++t..u+v.......",
"....(+>w'.x+yzAB$+C...D+C..D+C.D+E....F+4.......",
"....GhwH..F}*+IJ++++..KL+M.KL+MNO+D-..(+P.......",
"......C>........................................",
"................................................",
"................................................",
"................................................",
"                                                ",
"                                                ",
"                                                ",
"                                                ",
"                                                ",
"                                                ",
"                                                ",
"                                                ",
"                                                ",
"                                                ",
"                                                ",
"                                                ",
"                                                ",
"                                                ",
"                                                ",
"                                                ",
"                                                ",
"                                                ",
"                                                ",
"                                                ",
"                                                ",
"                                                ",
"                                                ",
"                                                ",
"                                                ",
"                                                ",
"                                                ",
"                                                ",
"                                                ",
"                                                ",
"                                                ",
"                                                ",
"                                                ",
"                                                ",
"                                                ",
"                                                ",
"                                                ",
"                                                ",
"                                                ",
"                                                ",
"                                                ",
"                                                ",
"                                                ",
"                                                "};
