/* XPM */
static char * exit_xpm[] = {
"32 32 268 2",
"  	c None",
". 	c #A50000",
"+ 	c #A40303",
"@ 	c #AB0F0F",
"# 	c #B21A1A",
"$ 	c #AE1313",
"% 	c #A70808",
"& 	c #A40000",
"* 	c #A60000",
"= 	c #B21818",
"- 	c #C83A3A",
"; 	c #D85858",
"> 	c #DF6666",
", 	c #DF6060",
"' 	c #DD5A5A",
") 	c #DE5D5D",
"! 	c #DF6464",
"~ 	c #DD6262",
"{ 	c #CF4646",
"] 	c #BB2727",
"^ 	c #A60505",
"/ 	c #B21717",
"( 	c #D44F4F",
"_ 	c #DD5C5C",
": 	c #D94646",
"< 	c #D53333",
"[ 	c #D42929",
"} 	c #D42A2A",
"| 	c #D52E2E",
"1 	c #D84040",
"2 	c #DC5353",
"3 	c #DB5E5E",
"4 	c #C12E2E",
"5 	c #A50202",
"6 	c #A50101",
"7 	c #CA3B3B",
"8 	c #D73C3C",
"9 	c #D32727",
"0 	c #D42828",
"a 	c #D53232",
"b 	c #D85555",
"c 	c #AB0E0E",
"d 	c #A60606",
"e 	c #D24A4A",
"f 	c #DB5252",
"g 	c #D32828",
"h 	c #D32626",
"i 	c #D42B2B",
"j 	c #D83F3F",
"k 	c #DC5D5D",
"l 	c #B41919",
"m 	c #D34A4A",
"n 	c #DA4848",
"o 	c #D32525",
"p 	c #D53434",
"q 	c #DD5D5D",
"r 	c #AE1111",
"s 	c #CA3C3C",
"t 	c #DB4F4F",
"u 	c #D32424",
"v 	c #D42C2C",
"w 	c #D63838",
"x 	c #D95858",
"y 	c #A80909",
"z 	c #B51B1B",
"A 	c #DD5959",
"B 	c #D94444",
"C 	c #CD3F3F",
"D 	c #D64F4F",
"E 	c #D63535",
"F 	c #D32323",
"G 	c #DD5B5B",
"H 	c #B01212",
"I 	c #B71E1E",
"J 	c #D22222",
"K 	c #D83C3C",
"L 	c #CF4242",
"M 	c #CC3B3B",
"N 	c #D73B3B",
"O 	c #D22525",
"P 	c #DC5B5B",
"Q 	c #A60303",
"R 	c #A40101",
"S 	c #DA5757",
"T 	c #D22727",
"U 	c #D22626",
"V 	c #D22424",
"W 	c #D22323",
"X 	c #D12222",
"Y 	c #DB5050",
"Z 	c #B61C1C",
"` 	c #AA0A0A",
" .	c #DC5757",
"..	c #D12121",
"+.	c #D12626",
"@.	c #D22828",
"#.	c #D12525",
"$.	c #D12424",
"%.	c #D12323",
"&.	c #D64242",
"*.	c #C42F2F",
"=.	c #DA4F4F",
"-.	c #D02020",
";.	c #D02121",
">.	c #FFFFFF",
",.	c #D33131",
"'.	c #D02323",
").	c #D02222",
"!.	c #CF2121",
"~.	c #D53A3A",
"{.	c #C83939",
"].	c #B71B1B",
"^.	c #D74545",
"/.	c #CF2020",
"(.	c #D23030",
"_.	c #CF2323",
":.	c #CF2222",
"<.	c #CE2121",
"[.	c #D13232",
"}.	c #CD4242",
"|.	c #B31515",
"1.	c #D64545",
"2.	c #CE2020",
"3.	c #CE2222",
"4.	c #D13030",
"5.	c #CD2121",
"6.	c #D13434",
"7.	c #CB3D3D",
"8.	c #AD0C0C",
"9.	c #D64848",
"0.	c #CD1F1F",
"a.	c #CD2020",
"b.	c #CD2222",
"c.	c #CD2323",
"d.	c #CE2424",
"e.	c #CE2525",
"f.	c #CC2222",
"g.	c #CC2121",
"h.	c #CC2020",
"i.	c #D13838",
"j.	c #C43131",
"k.	c #D33D3D",
"l.	c #C81010",
"m.	c #C91414",
"n.	c #CA1717",
"o.	c #CA1A1A",
"p.	c #CB1E1E",
"q.	c #CC2323",
"r.	c #CD2424",
"s.	c #CB2222",
"t.	c #CB2121",
"u.	c #CB2020",
"v.	c #C91616",
"w.	c #CD2929",
"x.	c #BB1E1E",
"y.	c #C82B2B",
"z.	c #C60B0B",
"A.	c #C40000",
"B.	c #C40202",
"C.	c #C50505",
"D.	c #C60A0A",
"E.	c #C70E0E",
"F.	c #C81313",
"G.	c #C91818",
"H.	c #CA1D1D",
"I.	c #CC2424",
"J.	c #CA2121",
"K.	c #CA2020",
"L.	c #C91D1D",
"M.	c #C71515",
"N.	c #C60D0D",
"O.	c #C30404",
"P.	c #C30000",
"Q.	c #CE3232",
"R.	c #AB0B0B",
"S.	c #BA1919",
"T.	c #C91A1A",
"U.	c #C20000",
"V.	c #C30808",
"W.	c #CA3232",
"X.	c #A90707",
"Y.	c #CA2929",
"Z.	c #C20202",
"`.	c #C10000",
" +	c #C81F1F",
".+	c #BB1C1C",
"++	c #BC1A1A",
"@+	c #C61515",
"#+	c #C00000",
"$+	c #C10707",
"%+	c #C92C2C",
"&+	c #A70404",
"*+	c #C62323",
"=+	c #C10808",
"-+	c #BF0000",
";+	c #BF0101",
">+	c #C72222",
",+	c #B51313",
"'+	c #AE0A0A",
")+	c #C51F1F",
"!+	c #C00404",
"~+	c #BE0000",
"{+	c #C41919",
"]+	c #BC1B1B",
"^+	c #B20E0E",
"/+	c #C41B1B",
"(+	c #BF0505",
"_+	c #BD0000",
":+	c #BD0101",
"<+	c #C21616",
"[+	c #BF1E1E",
"}+	c #A00000",
"|+	c #AD0B0B",
"1+	c #C21A1A",
"2+	c #BF0909",
"3+	c #BC0000",
"4+	c #BD0404",
"5+	c #C21919",
"6+	c #B91717",
"7+	c #A30101",
"8+	c #930000",
"9+	c #A70606",
"0+	c #BC1515",
"a+	c #C01313",
"b+	c #BC0505",
"c+	c #BB0000",
"d+	c #BB0202",
"e+	c #BF0F0F",
"f+	c #C11B1B",
"g+	c #B00E0E",
"h+	c #9F0000",
"i+	c #6F0000",
"j+	c #AB0909",
"k+	c #BB1313",
"l+	c #BF1414",
"m+	c #BD0D0D",
"n+	c #BC0808",
"o+	c #BB0606",
"p+	c #BB0404",
"q+	c #BB0505",
"r+	c #BB0707",
"s+	c #BC0B0B",
"t+	c #BF1313",
"u+	c #BE1818",
"v+	c #B30F0F",
"w+	c #A10202",
"x+	c #860000",
"y+	c #780000",
"z+	c #A30303",
"A+	c #AD0909",
"B+	c #B40D0D",
"C+	c #B70F0F",
"D+	c #B91111",
"E+	c #B81010",
"F+	c #B60F0F",
"G+	c #B20C0C",
"H+	c #A50606",
"I+	c #A20101",
"J+	c #8D0000",
"K+	c #370000",
"L+	c #7D0000",
"M+	c #8E0000",
"N+	c #970000",
"O+	c #9E0000",
"P+	c #9A0000",
"Q+	c #910000",
"R+	c #840000",
"S+	c #5F0000",
"                                                                ",
"                      . . + @ # $ % & *                         ",
"                  . = - ; > , ' ) ! ~ { ] ^ .                   ",
"              * / ( _ : < [ [ } } [ | 1 2 3 4 5                 ",
"            6 7 ) 8 9 0 0 [ } } } } [ [ 0 a 2 b c .             ",
"          d e f g h 9 0 [ [ } i i } } [ 0 9 9 j k l .           ",
"        6 m n o o h 9 0 [ } } i i i } [ 0 0 9 h p q r           ",
"      . s t u o h h 9 0 [ } } i v i } [ 0 0 9 h o w x y         ",
"      z A o u o o h 9 0 [ } } i i } } [ 0 0 9 h o u B C *       ",
"    6 D E F u o o h 9 0 [ [ } } } } [ [ 0 9 h h o u o G H       ",
"    I 2 J F u u o h 9 0 0 [ [ } } [ [ 0 0 9 h o o u F K L *     ",
"  * M N J F F u o h h 9 0 0 [ [ [ [ [ 0 9 9 h o u u F O P Q     ",
"  R S 9 J J F u o o h T T g g g g g g g T U U O V W W X Y Z     ",
"  `  .....X W V V O +.+.T T @.@.@.@.T T +.+.#.#.$.%.X X &.*.&   ",
"  H =.-.;.X %.>.>.>.>.>.>.>.>.>.>.>.>.>.>.>.>.>.,.'.).!.~.{.*   ",
"  ].^./.!.!.).>.>.>.>.>.>.>.>.>.>.>.>.>.>.>.>.>.(._.:.<.[.}.*   ",
"  |.1.2.2.!.3.>.>.>.>.>.>.>.>.>.>.>.>.>.>.>.>.>.4.3.5.5.6.7.*   ",
"  8.9.0.a.5.5.b.c.c.d.d.d.e.e.e.e.e.e.e.d.d.c.c.f.f.g.h.i.j..   ",
"  ^ k.l.m.n.o.p.g.q.q.r.r.r.r.r.r.r.r.r.r.q.q.s.s.t.u.v.w.x.    ",
"  . y.z.A.A.A.A.A.B.C.D.E.F.G.H.t.I.q.q.s.J.K.L.M.N.O.P.Q.R.    ",
"  . S.T.P.P.P.P.P.P.P.P.P.P.P.P.P.P.P.P.U.U.U.U.U.U.U.V.W.&     ",
"    X.Y.Z.U.U.U.U.U.U.U.U.U.U.U.U.U.`.`.`.`.`.`.`.`.`. +.+.     ",
"    . ++@+`.`.`.`.`.`.`.`.`.`.`.`.#+#+#+#+#+#+#+#+#+$+%+Q       ",
"      &+*+=+#+#+#+#+#+#+#+#+#+-+-+-+-+-+-+-+-+-+-+;+>+,+.       ",
"      . '+)+!+-+-+-+-+-+-+-+~+~+~+~+~+~+~+~+~+~+~+{+]+&         ",
"        & ^+/+(+~+~+~+~+_+_+_+_+_+_+_+_+_+_+_+:+<+[+R           ",
"          }+|+1+2+_+_+3+3+3+3+3+3+3+3+3+3+3+4+5+6+7+            ",
"            8+9+0+a+b+c+c+c+c+c+c+c+c+c+d+e+f+g+h+              ",
"              i+}+j+k+l+m+n+o+p+q+r+s+t+u+v+w+x+                ",
"                  y+}+z+A+B+C+D+E+F+G+H+I+J+K+                  ",
"                        L+M+N+O+P+Q+R+S+                        ",
"                                                                "};
