/* XPM */
static char * exit_xpm[] = {
"48 60 62 1",
" 	c None",
".	c #000000",
"+	c #FFFFFF",
"@	c #121212",
"#	c #DCDCDC",
"$	c #040404",
"%	c #FAFAFA",
"&	c #FDFDFD",
"*	c #0A0A0A",
"=	c #373737",
"-	c #CDCDCD",
";	c #252525",
">	c #D8D8D8",
",	c #5C5C5C",
"'	c #A7A7A7",
")	c #030303",
"!	c #9D9D9D",
"~	c #2F2F2F",
"{	c #ECECEC",
"]	c #878787",
"^	c #CACACA",
"/	c #E0E0E0",
"(	c #E1E1E1",
"_	c #F6F6F6",
":	c #808080",
"<	c #EFEFEF",
"[	c #020202",
"}	c #535353",
"|	c #FCFCFC",
"1	c #EDEDED",
"2	c #959595",
"3	c #707070",
"4	c #A0A0A0",
"5	c #888888",
"6	c #747474",
"7	c #A5A5A5",
"8	c #5F5F5F",
"9	c #1A1A1A",
"0	c #F9F9F9",
"a	c #010101",
"b	c #B0B0B0",
"c	c #606060",
"d	c #BFBFBF",
"e	c #444444",
"f	c #C9C9C9",
"g	c #3D3D3D",
"h	c #060606",
"i	c #C6C6C6",
"j	c #D6D6D6",
"k	c #393939",
"l	c #EEEEEE",
"m	c #202020",
"n	c #F1F1F1",
"o	c #979797",
"p	c #9B9B9B",
"q	c #E8E8E8",
"r	c #181818",
"s	c #B3B3B3",
"t	c #C2C2C2",
"u	c #B5B5B5",
"v	c #FBFBFB",
"w	c #222222",
"................................................",
"................................................",
"................................................",
"...........................++...................",
".............@++++#........++..$%&*.............",
".............=+-...............;+>..............",
".............,+'..)>!~{].^+/..(+++_)............",
".............:+++<[}|12..3+4...5+6..............",
".............7+8...90>a..b+c...d+e..............",
".............f+g..hij+k.[l+m...n+m..............",
".............l+++opqrst.#++++..uv+w.............",
"................................................",
"................................................",
"................................................",
"................................................",
"................................................",
"                                                ",
"                                                ",
"                                                ",
"                                                ",
"                                                ",
"                                                ",
"                                                ",
"                                                ",
"                                                ",
"                                                ",
"                                                ",
"                                                ",
"                                                ",
"                                                ",
"                                                ",
"                                                ",
"                                                ",
"                                                ",
"                                                ",
"                                                ",
"                                                ",
"                                                ",
"                                                ",
"                                                ",
"                                                ",
"                                                ",
"                                                ",
"                                                ",
"                                                ",
"                                                ",
"                                                ",
"                                                ",
"                                                ",
"                                                ",
"                                                ",
"                                                ",
"                                                ",
"                                                ",
"                                                ",
"                                                ",
"                                                ",
"                                                ",
"                                                ",
"                                                "};
