/* XPM */
static char * exit_xpm[] = {
"32 32 274 2",
"  	c None",
". 	c #000000",
"+ 	c #300400",
"@ 	c #6F0900",
"# 	c #9C2700",
"$ 	c #C04B00",
"% 	c #C14F00",
"& 	c #A94100",
"* 	c #7E2200",
"= 	c #280300",
"- 	c #0E0100",
"; 	c #820D00",
"> 	c #EA4D00",
", 	c #FF8D00",
"' 	c #FF9500",
") 	c #FF7B00",
"! 	c #FF6D00",
"~ 	c #FF6F00",
"{ 	c #FF8500",
"] 	c #FFA500",
"^ 	c #FFB600",
"/ 	c #EC7600",
"( 	c #832000",
"_ 	c #090100",
": 	c #670900",
"< 	c #F25500",
"[ 	c #FF8C00",
"} 	c #FF5900",
"| 	c #FF1E00",
"1 	c #FF1500",
"2 	c #FF2100",
"3 	c #FF5800",
"4 	c #FF9200",
"5 	c #EF6C00",
"6 	c #580A00",
"7 	c #070100",
"8 	c #A51A00",
"9 	c #FF5500",
"0 	c #FF3700",
"a 	c #FF3000",
"b 	c #FF5000",
"c 	c #8D1200",
"d 	c #030000",
"e 	c #060000",
"f 	c #BB0F00",
"g 	c #FF1600",
"h 	c #CC1100",
"i 	c #4F0700",
"j 	c #730900",
"k 	c #FE1500",
"l 	c #FC1500",
"m 	c #6A0900",
"n 	c #380500",
"o 	c #910C00",
"p 	c #F91500",
"q 	c #A30D00",
"r 	c #010000",
"s 	c #960C00",
"t 	c #9C0D00",
"u 	c #191312",
"v 	c #6B6A6A",
"w 	c #1F1E1E",
"x 	c #660800",
"y 	c #670800",
"z 	c #585757",
"A 	c #CFCFCF",
"B 	c #616060",
"C 	c #310400",
"D 	c #EA1300",
"E 	c #7B0A00",
"F 	c #520700",
"G 	c #A50E00",
"H 	c #393838",
"I 	c #E5E5E5",
"J 	c #FFFFFF",
"K 	c #E1E1E1",
"L 	c #282727",
"M 	c #620800",
"N 	c #720900",
"O 	c #5B5A5A",
"P 	c #FCFCFC",
"Q 	c #838383",
"R 	c #490600",
"S 	c #3B0500",
"T 	c #050000",
"U 	c #DB1200",
"V 	c #E31300",
"W 	c #1E0F0E",
"X 	c #E2E2E2",
"Y 	c #E9E9E9",
"Z 	c #323131",
"` 	c #5E0800",
" .	c #7E0A00",
"..	c #5E5D5D",
"+.	c #FEFEFE",
"@.	c #252424",
"#.	c #D91200",
"$.	c #C51000",
"%.	c #650800",
"&.	c #4F4E4E",
"*.	c #EFEFEF",
"=.	c #3B3A3A",
"-.	c #5A0700",
";.	c #870B00",
">.	c #605F5F",
",.	c #C8C8C8",
"'.	c #2E0E0B",
").	c #F11400",
"!.	c #4B0600",
"~.	c #BC0F00",
"{.	c #9E0D00",
"].	c #060404",
"^.	c #A4A4A4",
"/.	c #F4F4F4",
"(.	c #454444",
"_.	c #626161",
":.	c #CDCDCD",
"<.	c #28110F",
"[.	c #A00D00",
"}.	c #100100",
"|.	c #FA1500",
"1.	c #060202",
"2.	c #979797",
"3.	c #F9F9F9",
"4.	c #FDFDFD",
"5.	c #D2D2D2",
"6.	c #241615",
"7.	c #D21100",
"8.	c #ED1400",
"9.	c #430600",
"0.	c #B00E00",
"a.	c #0A0201",
"b.	c #898989",
"c.	c #D8D8D8",
"d.	c #1D1817",
"e.	c #BD1000",
"f.	c #270300",
"g.	c #5C0800",
"h.	c #BE1000",
"i.	c #7C7B7B",
"j.	c #DCDCDC",
"k.	c #201C1C",
"l.	c #AE0E00",
"m.	c #420500",
"n.	c #CB1100",
"o.	c #110100",
"p.	c #7A7979",
"q.	c #7D7C7C",
"r.	c #2D0400",
"s.	c #F41400",
"t.	c #570700",
"u.	c #680900",
"v.	c #AB0E00",
"w.	c #0F0B0B",
"x.	c #6C6B6B",
"y.	c #3D0500",
"z.	c #4E0600",
"A.	c #B80F00",
"B.	c #0E0807",
"C.	c #BDBDBD",
"D.	c #727171",
"E.	c #360400",
"F.	c #340400",
"G.	c #C31000",
"H.	c #0F0504",
"I.	c #B1B1B1",
"J.	c #787777",
"K.	c #E91300",
"L.	c #FD1500",
"M.	c #130200",
"N.	c #E11300",
"O.	c #CD1100",
"P.	c #120302",
"Q.	c #9C9C9C",
"R.	c #F6F6F6",
"S.	c #7F7E7E",
"T.	c #290300",
"U.	c #E51300",
"V.	c #C81000",
"W.	c #920C00",
"X.	c #DD1200",
"Y.	c #170301",
"Z.	c #969696",
"`.	c #A9A9A9",
" +	c #130403",
".+	c #403F3F",
"++	c #F1F1F1",
"@+	c #686767",
"#+	c #4C0600",
"$+	c #780A00",
"%+	c #FB1500",
"&+	c #AC0E00",
"*+	c #504F4F",
"=+	c #B6B6B6",
"-+	c #110706",
";+	c #BF1000",
">+	c #5D0800",
",+	c #333232",
"'+	c #6E6D6D",
")+	c #6D0900",
"!+	c #F21400",
"~+	c #160200",
"{+	c #980D00",
"]+	c #451A16",
"^+	c #E7E7E7",
"/+	c #C1C1C1",
"(+	c #110B0A",
"_+	c #B20F00",
":+	c #640800",
"<+	c #E0E0E0",
"[+	c #DFDFDF",
"}+	c #0F0A0A",
"|+	c #D81200",
"1+	c #170200",
"2+	c #473735",
"3+	c #CBCBCB",
"4+	c #130F0F",
"5+	c #C6C6C6",
"6+	c #A7A7A7",
"7+	c #191717",
"8+	c #0B0100",
"9+	c #330400",
"0+	c #F51400",
"a+	c #DE1200",
"b+	c #4C1C17",
"c+	c #777676",
"d+	c #171515",
"e+	c #970C00",
"f+	c #400500",
"g+	c #C01000",
"h+	c #230300",
"i+	c #470600",
"j+	c #CE0E00",
"k+	c #E71100",
"l+	c #A40E00",
"m+	c #A60E00",
"n+	c #F61400",
"o+	c #ED1200",
"p+	c #CA0C00",
"q+	c #CA0D00",
"r+	c #370500",
"s+	c #2E0300",
"t+	c #A40700",
"u+	c #910200",
"v+	c #B00800",
"w+	c #E31000",
"x+	c #F31300",
"y+	c #F81400",
"z+	c #D10D00",
"A+	c #B30800",
"B+	c #930300",
"C+	c #8A0100",
"D+	c #AF0A00",
"E+	c #1D0200",
"F+	c #770700",
"G+	c #9C0500",
"H+	c #830000",
"I+	c #850000",
"J+	c #8D0200",
"K+	c #B40900",
"L+	c #680700",
"M+	c #040000",
"N+	c #630700",
"O+	c #980700",
"P+	c #A50600",
"Q+	c #9C0400",
"R+	c #950300",
"S+	c #A00500",
"T+	c #AC0700",
"U+	c #9B0A00",
"V+	c #550700",
"W+	c #0A0100",
"X+	c #080100",
"Y+	c #200300",
"                            . . . .                             ",
"                    . . . . . . . . . . . .                     ",
"                . . . . + @ # $ % & * = . . . .                 ",
"              . . - ; > , ' ) ! ~ { ] ^ / ( _ . .               ",
"            . . : < [ } | 1 1 1 1 1 1 2 3 4 5 6 . .             ",
"          . 7 8 9 0 1 1 1 1 1 1 1 1 1 1 1 1 a b c d .           ",
"        . e f g 1 h i j k 1 1 1 1 1 1 l m n o p 1 q r .         ",
"      . . s 1 1 t u v w x k 1 1 1 1 k y z A B C D 1 E . .       ",
"    . . F 1 1 G H I J K L M l 1 1 1 N O P J J Q R 1 k S .       ",
"    . T U 1 V W X J J J Y Z ` l 1  ...P J J J +.@.#.1 $.. .     ",
"  . . %.1 1 E &.J J J J J *.=.-.;.>.P J J J J ,.'.).1 1 !..     ",
"  . . ~.1 1 {.].^.J J J J J /.(._.P J J J J :.<.U 1 1 1 [.. .   ",
"  . }.|.1 1 1 [.1.2.J J J J J 3.4.J J J J 5.6.7.1 1 1 1 8.d .   ",
"  . 9.1 1 1 1 1 0.a.b.J J J J J J J J J c.d.e.1 1 1 1 1 1 f..   ",
"  . g.1 1 1 1 1 1 h.- i.J J J J J J J j.k.l.1 1 1 1 1 1 1 m..   ",
"  . j 1 1 1 1 1 1 1 n.o.p.J J J J J J q.r.s.1 1 1 1 1 1 1 t..   ",
"  . u.1 1 1 1 1 1 1 v.w.,.J J J J J J +.x.y.).1 1 1 1 1 1 z..   ",
"  . i 1 1 1 1 1 1 A.B.C.J J J J J J J J +.D.E.8.1 1 1 1 1 F..   ",
"  . r.1 1 1 1 1 G.H.I.J J J J J +.J J J J J J.+ K.1 1 1 L.M..   ",
"  . r N.1 1 1 O.P.^.J J J J J Q.&.R.J J J J J S.T.U.1 1 V.. .   ",
"  . . W.1 1 X.Y.Z.J J J J J `. +R .+++J J J J J @+#+1 1 $+. .   ",
"    . = %+1 &+*+J J J J J =+-+;+l >+,+Y J J J J '+)+1 !+~+.     ",
"    . . {+1 %+]+^+J J J /+(+_+1 1 l :+L <+J J [+}+|+1  .. .     ",
"      . 1+V 1 V 2+^+J 3+4+G 1 1 1 1 k m w 5+6+7+W.1 7.8+.       ",
"      . . 9+0+1 a+b+c+d+e+1 1 1 1 1 1 k j d f+g+1 D h+. .       ",
"        . . i+j+k+%+l+m+1 1 1 1 1 1 1 1 1 n+o+p+q+r+. .         ",
"          . . s+t+u+v+p+w+x+k 1 1 y+k+z+A+B+C+D+E+. .           ",
"            . . _ F+G+H+H+H+I+C+H+H+H+H+J+K+L+M+. .             ",
"              . . . - N+O+P+Q+R+S+T+K+U+V+W+. .                 ",
"                  . . . . . X+Y+E+e . . . . .                   ",
"                        . . . . . . . .                         ",
"                                                                "};
