/* XPM */
static char * exit_xpm[] = {
"48 60 31 1",
" 	c None",
".	c #000000",
"+	c #FFFFFF",
"@	c #717171",
"#	c #717571",
"$	c #797979",
"%	c #797D79",
"&	c #868286",
"*	c #868686",
"=	c #8E8A8E",
"-	c #8E8E8E",
";	c #969296",
">	c #969696",
",	c #9E9A9E",
"'	c #9E9E9E",
")	c #867D79",
"!	c #B6AAAE",
"~	c #A6A2A6",
"{	c #D7DBDF",
"]	c #A6A6A6",
"^	c #AEAAAE",
"/	c #AEAEAE",
"(	c #B6B2B6",
"_	c #B6B6B6",
":	c #BEBABE",
"<	c #BEBEBE",
"[	c #C7C3C7",
"}	c #C7C7C7",
"|	c #CFCBCF",
"1	c #CFCFCF",
"2	c #D7D3D7",
"................................................",
"................................................",
"...........................+++++........++.++...",
"...........................++..............++...",
"...........................++....++..++.++.+++..",
"...........................+++++..++++..++.++...",
"...........................++......++...++.++...",
"...........................++.....++++..++.++...",
"...........................++....++..++.++.++...",
"...........................+++++.++..++.++..++..",
"................................................",
"................................................",
"................................................",
".@@@@@@@@@@@@###$$$%%%%&&&***====---;;;>>>,,,,'+",
".@@@@@@@@@@@###$$$%%%%&&&***====---;;;>>>,,,,''+",
".@@@...@@@@###$$$%%%%&&&***====---;;;>>>>..)+''+",
".@@.....@@###$$$%%%%&&&***====---;;;>>>>..)!+'~+",
".@@......###$$$%%%%&&&***====---;;;>>>>..)!{+'~+",
".@@.......#$$$%%%%&&&***====---;;;>>>>..)!{++~~+",
".@@@.......$$%%%%&&&***====---;;;>>>>..)!{++~~]+",
".@@@@.......%%%%&&&***====---;;;>>>>..)!{++~~]]+",
".@@@@#.......%%&&&***====---;;;>>>,..)!{++~~]]]+",
".@@@###.......&&&***====---;;;>>>,..)!{++~~]]]]+",
".@@###$$.......&***====---;;;>>>>..)!{++~~]]]]^+",
".@###$$$%.......**====---;;;>>>>..)!{++~~]]]]^^+",
".###$$$%%%.......====---;;;>>>>..)!{++~~]]]]^^^+",
".##$$$%%%%&.......==---;;;>>>>..)!{++~~]]]]^^^/+",
".#$$$%%%%&&&.......---;;;>>>>..)!{++~~]]]]^^^//+",
".$$$%%%%&&&**.......-;;;>>>>..)!{++~~]]]]^^^///+",
".$$%%%%&&&***=.......;;>>>,..)!{++~~]]]]^^^///(+",
".$%%%%&&&***===.......>>>,..)!{++~~]]]]^^^///((+",
".%%%%&&&***====-.......>>..)!{++~~]]]]^^^///(((+",
".%%%&&&***====---.........)!{++~~]]]]^^^///((((+",
".%%&&&***====---;;.......)!{++~~]]]]^^^///((((_+",
".%&&&***====---;;;>.....)!{++~~]]]]^^^///((((__+",
".&&&***====---;;;>>>...  {++~~]]]]^^^///((((___+",
".&&***====---;;;>>>>..)  +++~]]]]^^^///((((___:+",
".&***====---;;;>>>,..)!{+++++]]]^^^///((((___::+",
".***====---;;;>>>,..)!{+++++++]^^^///((((___:::+",
".**====---;;;>>>>..)!{+++++++++^^///((((___:::<+",
".*====---;;;>>>>..)!{++~~+++++++///((((___:::<<+",
".====---;;;>>>>..)!{++~~]]+++++++/((((___:::<<<+",
".===---;;;>>>>..)!{++~~]]]]+++++++(((___:::<<<<+",
".==---;;;>>>>..)!{++~~]]]]^^+++++++(___:::<<<<[+",
".=---;;;>>>>..)!{++~~]]]]^^^/+++++++__:::<<<<[[+",
".---;;;>>>,..)!{++~~]]]]^^^///+++++++:::<<<<[[[+",
".--;;;>>>,..)!{++~~]]]]^^^///((+++++++:<<<<[[[}+",
".-;;;>>>>..)!{++~~]]]]^^^///((((+++++++<<<[[[}}+",
".;;;>>>>..)!{++~~]]]]^^^///((((__+++++++<[[[}}}+",
".;;>>>>..)!{++~~]]]]^^^///((((___:+++++++[[}}}|+",
".;>>>>..)!{++~~]]]]^^^///((((___:::+++++++}}}||+",
".>>>>..)!{++~~]]]]^^^///((((___:::<<+++++++}|||+",
".>>>..)!{++~~]]]]^^^///((((___:::<<<<+++++++||1+",
".>,..)!{++~~]]]]^^^///((((___:::<<<<[[+++++++11+",
".,,.)!{++~~]]]]^^^///((((___:::<<<<[[[}++++++11+",
".,,)!{++~~]]]]^^^///((((___:::<<<<[[[}}}+++++11+",
".,,++++~~]]]]^^^///((((___:::<<<<[[[}}}||++++22+",
".,''''~~]]]]^^^///((((___:::<<<<[[[}}}|||111122+",
".'''~~~]]]]^^^///((((___:::<<<<[[[}}}|||1111222+",
"++++++++++++++++++++++++++++++++++++++++++++++++"};
