/* XPM */
static char * folder_del_xpm[] = {
"32 32 121 2",
"  	c None",
". 	c #585A56",
"+ 	c #555753",
"@ 	c #565854",
"# 	c #5A5B56",
"$ 	c #828573",
"% 	c #979984",
"& 	c #8F927D",
"* 	c #5C5F58",
"= 	c #D3D3C9",
"- 	c #B8B9AA",
"; 	c #B4B5A6",
"> 	c #C2C2B5",
", 	c #9FA08F",
"' 	c #575954",
") 	c #BDBDB1",
"! 	c #8F927B",
"~ 	c #90937D",
"{ 	c #B1B3A2",
"] 	c #B2B3A6",
"^ 	c #676963",
"/ 	c #60625D",
"( 	c #60615D",
"_ 	c #5F615C",
": 	c #5F605C",
"< 	c #5D5F5A",
"[ 	c #5C5E59",
"} 	c #5A5C58",
"| 	c #595B57",
"1 	c #595A57",
"2 	c #575955",
"3 	c #595B54",
"4 	c #BABBAE",
"5 	c #9FA18D",
"6 	c #B4B6A5",
"7 	c #B7B8A8",
"8 	c #AFB1A0",
"9 	c #ACAD9C",
"0 	c #A7A996",
"a 	c #A2A491",
"b 	c #9EA08C",
"c 	c #999B86",
"d 	c #90917D",
"e 	c #8B8E78",
"f 	c #5A5B55",
"g 	c #B8B9AC",
"h 	c #8D9079",
"i 	c #898C76",
"j 	c #595B55",
"k 	c #B8B8AB",
"l 	c #858874",
"m 	c #595A55",
"n 	c #B6B6A9",
"o 	c #858772",
"p 	c #828470",
"q 	c #B4B4A8",
"r 	c #5E6058",
"s 	c #595B56",
"t 	c #5B5D58",
"u 	c #595A54",
"v 	c #B3B3A6",
"w 	c #FFFF00",
"x 	c #C2C3B0",
"y 	c #C0C1AE",
"z 	c #61635D",
"A 	c #5A5C57",
"B 	c #FFF000",
"C 	c #C1C2AF",
"D 	c #5D5F59",
"E 	c #6B6D69",
"F 	c #CFCFC0",
"G 	c #D5D5C4",
"H 	c #C1C2AE",
"I 	c #7D7F78",
"J 	c #CBCBB9",
"K 	c #C0C1AD",
"L 	c #5E605B",
"M 	c #5E605A",
"N 	c #5C605A",
"O 	c #5C5E5A",
"P 	c #5C5D59",
"Q 	c #61625E",
"R 	c #B9BAA7",
"S 	c #6A6C67",
"T 	c #CDCEBC",
"U 	c #BFC0AC",
"V 	c #BCBCA9",
"W 	c #B8B9A6",
"X 	c #BABAA7",
"Y 	c #BABBA8",
"Z 	c #BBBCA8",
"` 	c #BDBDAA",
" .	c #AEAF9E",
"..	c #C9CAB9",
"+.	c #BEBFAB",
"@.	c #A4A595",
"#.	c #C1C2B1",
"$.	c #BEBFAA",
"%.	c #9B9C8D",
"&.	c #B4B5A5",
"*.	c #BDBEA9",
"=.	c #909284",
"-.	c #A6A79A",
";.	c #BCBDA8",
">.	c #86877B",
",.	c #565853",
"'.	c #97998D",
").	c #BCBDA7",
"!.	c #797B71",
"~.	c #85867C",
"{.	c #BBBCA6",
"].	c #6E7067",
"^.	c #72746B",
"/.	c #BABBA6",
"(.	c #BABBA5",
"_.	c #64665F",
":.	c #60625C",
"<.	c #B6B7A3",
"[.	c #B9BAA5",
"}.	c #B6B7A2",
"|.	c #545651",
"                                                                ",
"                                                                ",
"                                                                ",
"                                                                ",
"      . + + + + + + + + + @ #                                   ",
"      # $ % % % % % % % % & *                                   ",
"      # = - ; ; ; ; ; ; ; > , '                                 ",
"      # ) ! ! ! ! ! ! ! ! ~ { ] ^ / ( _ : < [ } | 1 2 2 + 3     ",
"      # 4 ! ! ! ! ! ! ! ! ! ! 5 6 7 7 7 7 6 8 9 0 a b c d '     ",
"      # 4 ! ! ! ! ! ! ! ! ! ! ! ! ! ! ! ! ! ! ! ! ! ! ! e '     ",
"      f g h h h h h h h h h h h h h h h h h h h h h h h i '     ",
"      j k i i i i i i i i i i i i i i i i i i i i i i i l '     ",
"      m n o o o o o o o o o o o o o o o o o o o o o o o p @     ",
"      m q r @ @ @ @ @ @ @ + + + + + + + + + + + + + + s + + t   ",
"      u v + w w w w w w w w w w w w w w w w w w w w w + x y z   ",
"    [ A + + w B B B B B B B B B B B B B B B B B B B w + C C D   ",
"    E F G + w w w w w w w w w w w w w w w w w w w w w + H H @   ",
"    I J K L M M N O O < < < P P P P P P P P } } | | | Q K R 2   ",
"    S T U V W W R R R R R R X X X Y Y Y Y Y Z Z Z V V ` U  .A   ",
"    / ..+.+.+.+.+.+.+.+.+.+.+.+.+.+.+.+.+.+.+.+.+.+.+.+.+.@.[   ",
"    t #.$.$.$.$.$.$.$.$.$.$.$.$.$.$.$.$.$.$.$.$.$.$.$.$.$.%.[   ",
"    [ &.*.*.*.*.*.*.*.*.*.*.*.*.*.*.*.*.*.*.*.*.*.*.*.*.*.=.A   ",
"    t -.;.;.;.;.;.;.;.;.;.;.;.;.;.;.;.;.;.;.;.;.;.;.;.;.;.>.+   ",
"    ,.'.).).).).).).).).).).).).).).).).).).).).).).).).).!.    ",
"      ~.{.{.{.{.{.{.{.{.{.{.{.{.{.{.{.{.{.{.{.{.{.{.{.{.{.].    ",
"      ^./.(.(.(.(.(.(.(.(.(.(.(.(.(.(.(.(.(.(.(.(.(.(.(.(._.    ",
"      :.<.[.[.[.[.[.[.[.[.[.[.[.[.[.[.[.[.[.[.[.[.[.[.[.}.A     ",
"      |.+ + + + + + + + + + + + + + + + + + + + + + + + + ,.    ",
"                                                                ",
"                                                                ",
"                                                                ",
"                                                                "};
