/* XPM */
static char * folder_add_xpm[] = {
"32 32 130 2",
"  	c None",
". 	c #585A56",
"+ 	c #555753",
"@ 	c #565854",
"# 	c #5A5B56",
"$ 	c #828573",
"% 	c #979984",
"& 	c #8F927D",
"* 	c #5A5B57",
"= 	c #585C56",
"- 	c #D3D3C9",
"; 	c #B8B9AA",
"> 	c #B4B5A6",
", 	c #C2C2B5",
"' 	c #575954",
") 	c #FFFF00",
"! 	c #BDBDB1",
"~ 	c #8F927B",
"{ 	c #90937D",
"] 	c #575955",
"^ 	c #FFF000",
"/ 	c #5F615C",
"( 	c #5F605C",
"_ 	c #5D5F5A",
": 	c #5C5E59",
"< 	c #5A5C58",
"[ 	c #595B57",
"} 	c #595A57",
"| 	c #595B54",
"1 	c #BABBAE",
"2 	c #B7B8A8",
"3 	c #B4B6A5",
"4 	c #AFB1A0",
"5 	c #ACAD9C",
"6 	c #A7A996",
"7 	c #A2A491",
"8 	c #9EA08C",
"9 	c #999B86",
"0 	c #90917D",
"a 	c #8B8E78",
"b 	c #5A5B55",
"c 	c #B8B9AC",
"d 	c #8D9079",
"e 	c #898C76",
"f 	c #595B55",
"g 	c #B8B8AB",
"h 	c #858874",
"i 	c #595A55",
"j 	c #B6B6A9",
"k 	c #858772",
"l 	c #828470",
"m 	c #B4B4A8",
"n 	c #81836E",
"o 	c #7D7F6B",
"p 	c #64665D",
"q 	c #5B5D58",
"r 	c #595A54",
"s 	c #B3B3A6",
"t 	c #5E5F5A",
"u 	c #595B56",
"v 	c #5B5D59",
"w 	c #5C5F5A",
"x 	c #61625F",
"y 	c #666861",
"z 	c #C2C3B0",
"A 	c #C0C1AE",
"B 	c #61635D",
"C 	c #5A5C57",
"D 	c #C1C2AF",
"E 	c #5D5F59",
"F 	c #6B6D69",
"G 	c #CFCFC0",
"H 	c #D5D5C4",
"I 	c #C1C2AE",
"J 	c #7D7F78",
"K 	c #CBCBB9",
"L 	c #C0C1AD",
"M 	c #B9BAA7",
"N 	c #6A6C67",
"O 	c #CDCEBC",
"P 	c #BFC0AC",
"Q 	c #5E605B",
"R 	c #696C67",
"S 	c #727370",
"T 	c #60625E",
"U 	c #5C5E5A",
"V 	c #61625E",
"W 	c #AEAF9E",
"X 	c #60625D",
"Y 	c #C9CAB9",
"Z 	c #BEBFAB",
"` 	c #BBBCA8",
" .	c #B7B8A5",
"..	c #B4B5A2",
"+.	c #B8B9A6",
"@.	c #B9BAA6",
"#.	c #BABBA7",
"$.	c #BCBDA9",
"%.	c #A4A595",
"&.	c #C1C2B1",
"*.	c #BEBFAA",
"=.	c #BBBCA7",
"-.	c #9B9C8D",
";.	c #B4B5A5",
">.	c #BDBEA9",
",.	c #BABBA6",
"'.	c #909284",
").	c #A6A79A",
"!.	c #BCBDA8",
"~.	c #B9BAA5",
"{.	c #86877B",
"].	c #565853",
"^.	c #97998D",
"/.	c #BCBDA7",
"(.	c #B9BAA4",
"_.	c #797B71",
":.	c #85867C",
"<.	c #BBBCA6",
"[.	c #B8B9A3",
"}.	c #6E7067",
"|.	c #72746B",
"1.	c #BABBA5",
"2.	c #B7B8A2",
"3.	c #64665F",
"4.	c #60625C",
"5.	c #B6B7A3",
"6.	c #B6B7A2",
"7.	c #545651",
"8.	c #585956",
"9.	c #545652",
"                                                                ",
"                                                                ",
"                                                                ",
"                                                                ",
"      . + + + + + + + + + @ #                                   ",
"      # $ % % % % % % % % & * + @ @ =                           ",
"      # - ; > > > > > > > , ' ) ) ) @                           ",
"      # ! ~ ~ ~ ~ ~ ~ ~ ~ { ] ) ^ ) @ / ( _ : < [ } ] ] + |     ",
"      # 1 ~ ~ ~ ~ ~ ~ ~ ~ ~ @ ) ^ ) @ 2 2 3 4 5 6 7 8 9 0 '     ",
"      # 1 ~ ~ ~ ~ ~ ~ ~ ~ ~ @ ) ^ ) + ~ ~ ~ ~ ~ ~ ~ ~ ~ a '     ",
"      b c d d d d d d d d d @ ) ^ ) + d d d d d d d d d e '     ",
"      f g e e e e e e e e e @ ) ^ ) + e e e e e e e e e h '     ",
"      i j k k k k k k k k k @ ) ^ ) + k k k k k k k k k l @     ",
"      i m n n n n n n o p + + ) ^ ) + + + + + + + + + + + + q   ",
"      r s t @ ] ] ] ] ] u v w ) ^ ) x . . . . . ] ] ] y z A B   ",
"    : C + + ) ) ) ) ) ) ) ) ) ) ^ ) ) ) ) ) ) ) ) ) ) + D D E   ",
"    F G H + ) ^ ^ ^ ^ ^ ^ ^ ^ ^ ^ ^ ^ ^ ^ ^ ^ ^ ^ ^ ) + I I @   ",
"    J K L + ) ) ) ) ) ) ) ) ) ) ^ ) ) ) ) ) ) ) ) ) ) + L M ]   ",
"    N O P Q Q Q Q Q Q Q Q Q R ) ^ ) S T _ Q U U U < [ V P W C   ",
"    X Y Z `  . . . . . . . .. ) ^ ) q ..+.+.@.M M #.` $.Z %.:   ",
"    q &.*.*.*.*.*.*.*.*.*.*.. ) ^ ) q =.*.*.*.*.*.*.*.*.*.-.:   ",
"    : ;.>.>.>.>.>.>.>.>.>.>.. ) ^ ) q ,.>.>.>.>.>.>.>.>.>.'.C   ",
"    q ).!.!.!.!.!.!.!.!.!.!.. ) ^ ) q ~.!.!.!.!.!.!.!.!.!.{.+   ",
"    ].^././././././././././.. ) ^ ) q (./././././././././._.    ",
"      :.<.<.<.<.<.<.<.<.<.<.. ) ^ ) : [.<.<.<.<.<.<.<.<.<.}.    ",
"      |.,.1.1.1.1.1.1.1.1.1.. ) ^ ) : 2.1.1.1.1.1.1.1.1.1.3.    ",
"      4.5.~.~.~.~.~.~.~.~.~.. ) ) ) : 6.~.~.~.~.~.~.~.~.6.C     ",
"      7.+ + + + + + + + + + < + @ + 8.9.+ + + + + + + + + ].    ",
"                                                                ",
"                                                                ",
"                                                                ",
"                                                                "};
