/* XPM */
static char * folder_xpm[] = {
"16 16 131 2",
"  	c None",
". 	c #5A3C28",
"+ 	c #7E6539",
"@ 	c #AA944C",
"# 	c #9A8145",
"$ 	c #7B5F37",
"% 	c #765A34",
"& 	c #593A29",
"* 	c #765C35",
"= 	c #AB964D",
"- 	c #DFCE64",
"; 	c #B89F4B",
"> 	c #967F44",
", 	c #DBC85F",
"' 	c #F6D343",
") 	c #A88635",
"! 	c #593A28",
"~ 	c #694B2F",
"{ 	c #9D8546",
"] 	c #D7C55E",
"^ 	c #F4DA5C",
"/ 	c #F8D149",
"( 	c #F5C231",
"_ 	c #7F6133",
": 	c #F2DC5E",
"< 	c #FBC426",
"[ 	c #FEBC11",
"} 	c #85642E",
"| 	c #7C6138",
"1 	c #C6B358",
"2 	c #F2DB63",
"3 	c #F7D658",
"4 	c #F9CF4B",
"5 	c #FACD44",
"6 	c #FBCB3F",
"7 	c #BE9534",
"8 	c #B59F50",
"9 	c #F8D044",
"0 	c #FDC123",
"a 	c #FBC024",
"b 	c #513725",
"c 	c #61432C",
"d 	c #ECDA67",
"e 	c #F7D760",
"f 	c #F8D65B",
"g 	c #F8D357",
"h 	c #EDC750",
"i 	c #BE9840",
"j 	c #906E36",
"k 	c #A08543",
"l 	c #ECDB67",
"m 	c #FBC939",
"n 	c #FCC52F",
"o 	c #EBBD37",
"p 	c #452D20",
"q 	c #765934",
"r 	c #F3E06A",
"s 	c #F6DA64",
"t 	c #E6C75C",
"u 	c #93753C",
"v 	c #A48845",
"w 	c #CDB859",
"x 	c #EFDE66",
"y 	c #F5DA5D",
"z 	c #F9D049",
"A 	c #FBCA3F",
"B 	c #FBC93A",
"C 	c #C6A23E",
"D 	c #F3E06B",
"E 	c #F5DC69",
"F 	c #977B42",
"G 	c #E4D565",
"H 	c #F5DB62",
"I 	c #F7D559",
"J 	c #F9D254",
"K 	c #F9D051",
"L 	c #FACF4B",
"M 	c #FACE47",
"N 	c #FACC43",
"O 	c #886936",
"P 	c #7E6338",
"Q 	c #F3E16C",
"R 	c #D2BB5D",
"S 	c #BDA855",
"T 	c #F4DE67",
"U 	c #F7D65D",
"V 	c #F8D55A",
"W 	c #F8D457",
"X 	c #F9D04F",
"Y 	c #EFCA4E",
"Z 	c #523626",
"` 	c #866C3C",
" .	c #F2E16E",
"..	c #A48B4A",
"+.	c #EDDF6A",
"@.	c #F6DB67",
"#.	c #F6D965",
"$.	c #F7D862",
"%.	c #A98C43",
"&.	c #38251A",
"*.	c #F1E16D",
"=.	c #AF9A4E",
"-.	c #F3DF6C",
";.	c #F5DC6A",
">.	c #F5DC68",
",.	c #F6D962",
"'.	c #E9CF5F",
").	c #A28745",
"!.	c #4C3124",
"~.	c #DECE63",
"{.	c #E3D365",
"].	c #F4DE6D",
"^.	c #F4DE6C",
"/.	c #F4DE6B",
"(.	c #E6D166",
"_.	c #BCA352",
":.	c #876D3C",
"<.	c #573926",
"[.	c #3C271C",
"}.	c #7F653A",
"|.	c #ECDE6A",
"1.	c #E6D668",
"2.	c #C4AF58",
"3.	c #9E8746",
"4.	c #755C35",
"5.	c #4C3223",
"6.	c #38241B",
"7.	c #5C3F2A",
"8.	c #6F5432",
"9.	c #4B3223",
"0.	c #3A261B",
"                                ",
"                                ",
"                  . + @ # $ %   ",
"            & * = - ; > , ' )   ",
"      ! ~ { ] ^ / ( _ : < [ }   ",
"    | 1 2 3 4 5 6 7 8 9 0 a b   ",
"  c d e f g h i j k l m n o p   ",
"  q r s t u v w x y z A B C     ",
"  | D E F G H I J K L M N O     ",
"  P Q R S T e U V W J X Y Z     ",
"  `  ...+.@.#.$.e U V W %.&.    ",
"  ` *.=.-.;.>.@.#.,.'.).!.      ",
"  ` ~.{.].^./.(._.:.<.[.        ",
"  }.|.1.2.3.4.5.6.              ",
"  7.8.9.0.                      ",
"                                "};
