/* XPM */
static char * folder_add_xpm[] = {
"32 32 100 2",
"  	c None",
". 	c #0D3E08",
"+ 	c #0D3E07",
"@ 	c #0D3D06",
"# 	c #0D3D07",
"$ 	c #0E4208",
"% 	c #13560A",
"& 	c #17650D",
"* 	c #14590B",
"= 	c #0E4408",
"- 	c #0D3D08",
"; 	c #12530B",
"> 	c #68C25C",
", 	c #AEE1A8",
"' 	c #2FB11C",
") 	c #2AAF18",
"! 	c #29AA17",
"~ 	c #124E0A",
"{ 	c #0D3E06",
"] 	c #18680D",
"^ 	c #B2E2AB",
"/ 	c #EBF8E9",
"( 	c #41B730",
"_ 	c #14580B",
": 	c #0C3D06",
"< 	c #196C0E",
"[ 	c #0E3E06",
"} 	c #1A700F",
"| 	c #1B720F",
"1 	c #1C7910",
"2 	c #1D7B10",
"3 	c #13530B",
"4 	c #1E8011",
"5 	c #12510A",
"6 	c #0C3D07",
"7 	c #0D3C07",
"8 	c #0E3D07",
"9 	c #1F8312",
"0 	c #0C3D08",
"a 	c #0E3C07",
"b 	c #0E3B07",
"c 	c #114C09",
"d 	c #218C13",
"e 	c #14570B",
"f 	c #4CB53F",
"g 	c #6AC85E",
"h 	c #68C75C",
"i 	c #5EC250",
"j 	c #C1E9BC",
"k 	c #3FB62E",
"l 	c #29A917",
"m 	c #28A716",
"n 	c #27A517",
"o 	c #D9F1D5",
"p 	c #D8F1D4",
"q 	c #2DB01B",
"r 	c #239314",
"s 	c #1D7C10",
"t 	c #65C558",
"u 	c #77CC6B",
"v 	c #7FCF74",
"w 	c #84D17A",
"x 	c #7ECF73",
"y 	c #43B934",
"z 	c #2AAE18",
"A 	c #29AB17",
"B 	c #249C14",
"C 	c #249A14",
"D 	c #259D14",
"E 	c #26A115",
"F 	c #0E4308",
"G 	c #196D0E",
"H 	c #249813",
"I 	c #208C11",
"J 	c #229012",
"K 	c #104808",
"L 	c #229413",
"M 	c #208E11",
"N 	c #28AB17",
"O 	c #28AA17",
"P 	c #28A816",
"Q 	c #18660D",
"R 	c #1E7D10",
"S 	c #0F4509",
"T 	c #0E4108",
"U 	c #0E3E08",
"V 	c #0C3C07",
"W 	c #1C7A10",
"X 	c #0C3B07",
"Y 	c #0D3F06",
"Z 	c #229612",
"` 	c #239613",
" .	c #17640D",
"..	c #249814",
"+.	c #219212",
"@.	c #218D13",
"#.	c #249914",
"$.	c #229114",
"%.	c #1E7E11",
"&.	c #0E3E07",
"                                                                ",
"                          . + @ # @                             ",
"                        # $ % & * = -                           ",
"                      . ; > , ' ) ! ~ @                         ",
"                      { ] ^ / ( ) ) _ :                         ",
"                      { < ^ / ( ) ) _ [                         ",
"                      { } ^ / ( ) ) _ [                         ",
"                      { | ^ / ( ) ) _ #                         ",
"                      { 1 ^ / ( ) ) _ #                         ",
"                      { 2 ^ / ( ) ) 3 #                         ",
"                      { 4 ^ / ( ) ) 5 6                         ",
"    # @ 7 + + # 7 8 7 # 9 ^ / ( ) ) 5 @ # - 0 # # # a b         ",
"    # = c c c c c c c c d ^ / ( ) ) e $ # # # # # # # # # {     ",
"  6 $ f g g g g g g h i i j / k ) ) ) ) ) ) ) ) l m m n _ -     ",
"  7 & o / / / / / / / / / / p q ) ) ) ) ) ) ) ) ) ) ) ) r #     ",
"  6 s t u u u u u u v w w x y ) ) ) ) ) ) ) ) ) ) ) ) ) z $ :   ",
"  6 4 ) ) ) ) ) ) ) ) ) ) ) ) ) A B C C C C C C D D D D E F :   ",
"  7 G ) ) ) ) ) ) ) ) ) ) ) ) ) H I I I I I I I I I I I J #     ",
"  6 K m ) ) ) ) ) ) ) ) ) ) ) ) L M N N N N N O P P P m Q -     ",
"    # # # # # # # # # # & ) ) ) L M R S S S T # # # # # # @     ",
"    U @ # # # - # # V - & ) ) ) L I W 6 # 7 7 7 7 7 X 8 Y       ",
"                      + & ) ) ) L I W #                         ",
"                      + & ) ) ) Z I W #                         ",
"                      + & ) ) ) ` I W #                         ",
"                      + & ) ) ) ` I W #                         ",
"                      + & ) ) ) ` I W #                         ",
"                      + & ) ) ) ` I W #                         ",
"                      + & ) ) ) ` I W #                         ",
"                      +  .) ) ) ..+.W #                         ",
"                      # $ | @.#.$.%.c #                         ",
"                          # @ + : 6 &.                          ",
"                                                                "};
