/* XPM */
static char * folder_del_xpm[] = {
"32 32 30 1",
" 	c None",
".	c #B01911",
"+	c #B01A11",
"@	c #AF1912",
"#	c #B61710",
"$	c #DA0805",
"%	c #F03A2F",
"&	c #F77A62",
"*	c #F9997C",
"=	c #FAA988",
"-	c #DB0705",
";	c #F0231C",
">	c #FFE1B6",
",	c #FFE6BA",
"'	c #EB0100",
")	c #ED0000",
"!	c #EF1713",
"~	c #F35343",
"{	c #F6755F",
"]	c #F78269",
"^	c #F88A70",
"/	c #B11A10",
"(	c #E40403",
"_	c #BF130D",
":	c #EA0101",
"<	c #AF1910",
"[	c #B41710",
"}	c #C2120C",
"|	c #C4110B",
"1	c #B01912",
"                                ",
"                                ",
"                                ",
"                                ",
"                                ",
"                                ",
"                                ",
"                                ",
"                                ",
"                                ",
"                                ",
"       .++++++++++++++++.       ",
"     ......................     ",
"   @........................@   ",
"   ..#$%&*============*&%$#..   ",
"   ..-;>,,,,,,,,,,,,,,,,>;-..   ",
"  ...')!~{]^^^^^^^^^^]{~!)'...  ",
"  /..())))))))))))))))))))(../  ",
"   .._:)))))))))))))))))):_..   ",
"   <..[}||||||||||||||||}[..<   ",
"    1......................1    ",
"      +..................+      ",
"                                ",
"                                ",
"                                ",
"                                ",
"                                ",
"                                ",
"                                ",
"                                ",
"                                ",
"                                "};
