/* XPM */
static char * menu_del_folder_xpm[] = {
"16 16 19 1",
" 	c None",
".	c #B21911",
"+	c #B01911",
"@	c #B11910",
"#	c #BB140E",
"$	c #EF5242",
"%	c #FBB18F",
"&	c #FDC6A0",
"*	c #FDC7A1",
"=	c #B31810",
"-	c #CA0E0A",
";	c #ED0605",
">	c #F02A22",
",	c #F23D32",
"'	c #B31710",
")	c #D20B08",
"!	c #D90806",
"~	c #B01912",
"{	c #B11811",
"                ",
"                ",
"                ",
"                ",
"                ",
"                ",
"  .++++++++++.  ",
" @#$%&****&%$#@ ",
" =-;>,,,,,,>;-= ",
"  ')!!!!!!!!)'  ",
"  ~{++++++++{~  ",
"                ",
"                ",
"                ",
"                ",
"                "};
