/* XPM */
static char * menu_about_xpm[] = {
"16 16 59 1",
" 	c None",
".	c #230000",
"+	c #300000",
"@	c #3D0000",
"#	c #2C0000",
"$	c #250000",
"%	c #790600",
"&	c #DC0F00",
"*	c #CB0C00",
"=	c #7C0200",
"-	c #350000",
";	c #3F0200",
">	c #FB1300",
",	c #FF1400",
"'	c #540000",
")	c #1C0000",
"!	c #4B0300",
"~	c #D70E00",
"{	c #4C0000",
"]	c #1B0000",
"^	c #280000",
"/	c #A10B00",
"(	c #FE1400",
"_	c #EE1200",
":	c #7B0400",
"<	c #2B0000",
"[	c #360000",
"}	c #390100",
"|	c #310000",
"1	c #320000",
"2	c #2A0000",
"3	c #7E0800",
"4	c #D00F00",
"5	c #BF0D00",
"6	c #B50B00",
"7	c #950500",
"8	c #580000",
"9	c #240000",
"0	c #850800",
"a	c #A50800",
"b	c #460000",
"c	c #830800",
"d	c #900400",
"e	c #340000",
"f	c #FC1400",
"g	c #740100",
"h	c #760700",
"i	c #DB1000",
"j	c #5C0000",
"k	c #260000",
"l	c #BC0C00",
"m	c #4A0000",
"n	c #1E0000",
"o	c #750700",
"p	c #9B0800",
"q	c #490300",
"r	c #8E0900",
"s	c #930A00",
"t	c #4D0300",
"                ",
"      .+@#      ",
"     $%&*=-     ",
"     ;>,,*')    ",
"     !,,,~{]    ",
"     ^/(_:<     ",
"     #[}|1[2    ",
"     3456789    ",
"     0,,,ab)    ",
"     c,,,de     ",
"     c,,fg2     ",
"     h,,ijk     ",
"     h,,lmn     ",
"     o,,p|      ",
"     qrst)      ",
"                "};
