/* XPM */
static char * menu_prefs_xpm[] = {
"16 16 104 2",
"  	c None",
". 	c #000000",
"+ 	c #0C0C0C",
"@ 	c #949494",
"# 	c #2C2C2C",
"$ 	c #040404",
"% 	c #484848",
"& 	c #101010",
"* 	c #AEAEAE",
"= 	c #D6D6D6",
"- 	c #B9B9B9",
"; 	c #656565",
"> 	c #030303",
", 	c #020202",
"' 	c #464646",
") 	c #A3A3A3",
"! 	c #AFAFAF",
"~ 	c #5D5D5D",
"{ 	c #C0C0C0",
"] 	c #A2A2A2",
"^ 	c #ACACAC",
"/ 	c #121212",
"( 	c #262626",
"_ 	c #B6B6B6",
": 	c #565656",
"< 	c #A09F9F",
"[ 	c #ACABAB",
"} 	c #C2C2C2",
"| 	c #212121",
"1 	c #B4B4B4",
"2 	c #1D1D1D",
"3 	c #6A6A6A",
"4 	c #1F1F1F",
"5 	c #474747",
"6 	c #646464",
"7 	c #0F0F0F",
"8 	c #B0B0B0",
"9 	c #B1B1B1",
"0 	c #292929",
"a 	c #676767",
"b 	c #C1C1C1",
"c 	c #353535",
"d 	c #8F8F8F",
"e 	c #9E9E9E",
"f 	c #B2B2B2",
"g 	c #AAAAAA",
"h 	c #252525",
"i 	c #090706",
"j 	c #A29266",
"k 	c #68593A",
"l 	c #727272",
"m 	c #C2ACAC",
"n 	c #85302B",
"o 	c #280C0A",
"p 	c #2D2D2D",
"q 	c #0A0A0A",
"r 	c #524831",
"s 	c #F2D99A",
"t 	c #FFBC5B",
"u 	c #D57E33",
"v 	c #23180C",
"w 	c #B11E16",
"x 	c #D65025",
"y 	c #D5A75E",
"z 	c #342912",
"A 	c #B9A573",
"B 	c #FED787",
"C 	c #FFA33F",
"D 	c #FE983F",
"E 	c #8C6536",
"F 	c #9A1C10",
"G 	c #FF943D",
"H 	c #FFB343",
"I 	c #F2D58A",
"J 	c #2A210D",
"K 	c #D2B469",
"L 	c #959391",
"M 	c #F7AA6A",
"N 	c #F09D46",
"O 	c #352818",
"P 	c #020200",
"Q 	c #D98A34",
"R 	c #FF933D",
"S 	c #FFB446",
"T 	c #EDD290",
"U 	c #221C0B",
"V 	c #BD9E54",
"W 	c #F5B56B",
"X 	c #AE7E41",
"Y 	c #070502",
"Z 	c #E08E36",
"` 	c #FFB749",
" .	c #E7CE90",
"..	c #181306",
"+.	c #090602",
"@.	c #E79037",
"#.	c #E59F3F",
"$.	c #B06B2A",
"%.	c #0D0902",
"&.	c #E49037",
"*.	c #C4712F",
"=.	c #090501",
"-.	c #4D2C12",
";.	c #0E0803",
"      .                         ",
"    + @ #           $ % &       ",
"  . * = - ; >   , ' ) ! #       ",
"    ~ { ] ^ /   ( * _ :         ",
"    > < [ } |   ( ! 1 2 2 3 &   ",
"      4 5 6 { 7 ~ _ - * 8 9 0   ",
"          . a b c d e f g h .   ",
"        i j k l m n o p q       ",
"      r s t u v w x y z         ",
"    A B C D E . F G H I J       ",
"  K L M N O     P Q R S T U     ",
"  V W X .         Y Z R `  ...  ",
"  . .               +.@.R #.$.. ",
"                      %.&.G *.. ",
"                        =.-.;.  ",
"                                "};
