/* XPM */
static char * menu_add_folder_xpm[] = {
"16 16 57 1",
" 	c None",
".	c #26691D",
"+	c #439A38",
"@	c #1E7E11",
"#	c #0D4209",
"$	c #69B45E",
"%	c #90D586",
"&	c #2AAF18",
"*	c #11500A",
"=	c #6AB65F",
"-	c #114E0A",
";	c #6AB85F",
">	c #114D0A",
",	c #0E3D08",
"'	c #6BBB5F",
")	c #124D09",
"!	c #1D5F15",
"~	c #45933C",
"{	c #3B8C31",
"]	c #378A2D",
"^	c #7DCA73",
"/	c #1E7D10",
"(	c #1C7A10",
"_	c #1B730F",
":	c #1A710F",
"<	c #0E4508",
"[	c #0C3C08",
"}	c #5DAF52",
"|	c #ABDFA3",
"1	c #B3E3AC",
"2	c #B7E5B1",
"3	c #B4E3AD",
"4	c #56BF47",
"5	c #196E0E",
"6	c #0C3E08",
"7	c #239314",
"8	c #259D14",
"9	c #229313",
"0	c #229312",
"a	c #1B780F",
"b	c #14590B",
"c	c #259E15",
"d	c #219112",
"e	c #208711",
"f	c #1B7510",
"g	c #0F4809",
"h	c #0E3E07",
"i	c #228E13",
"j	c #145B0B",
"k	c #0E3D07",
"l	c #155F0C",
"m	c #0E3F08",
"n	c #229112",
"o	c #155E0C",
"p	c #27A116",
"q	c #249513",
"r	c #12500A",
"                ",
"      .+@#      ",
"      $%&*      ",
"      =%&-      ",
"      ;%&>      ",
"     ,'%&)      ",
" !~{]]^%&/(__:< ",
"[}|12234&&&&&&5 ",
"67&&&&&&899990a ",
" b____c&de(((fg ",
"     hi&dj      ",
"     ki&dl      ",
"     mi&dl      ",
"     ,i&no      ",
"      _pqr      ",
"                "};
