/* XPM */
static char * plugin_xpm[] = {
"48 48 317 2",
"  	c None",
". 	c #519E08",
"+ 	c #4E9C07",
"@ 	c #4E9A06",
"# 	c #4F9B07",
"$ 	c #4F9C08",
"% 	c #509D06",
"& 	c #6AAD2C",
"* 	c #9BCE6B",
"= 	c #B5DD8E",
"- 	c #BCE198",
"; 	c #B6DE8F",
"> 	c #A4D477",
", 	c #6FB02E",
"' 	c #4F9C07",
") 	c #509C07",
"! 	c #7ABA3F",
"~ 	c #B3DE8A",
"{ 	c #8CCD4E",
"] 	c #72C227",
"^ 	c #6CBF1D",
"/ 	c #71C125",
"( 	c #85CA44",
"_ 	c #B1DC88",
": 	c #509B07",
"< 	c #B3DD8B",
"[ 	c #78C52F",
"} 	c #6DC01E",
"| 	c #80C83C",
"1 	c #A9D87C",
"2 	c #509C06",
"3 	c #4E9B07",
"4 	c #B3DD89",
"5 	c #76C42A",
"6 	c #6EC11E",
"7 	c #73C325",
"8 	c #B0DD84",
"9 	c #73B535",
"0 	c #509D08",
"a 	c #99CF65",
"b 	c #8BCE4B",
"c 	c #6FC21F",
"d 	c #A0D76B",
"e 	c #92CB5C",
"f 	c #509C09",
"g 	c #7DBB41",
"h 	c #9FD769",
"i 	c #70C320",
"j 	c #81CA3B",
"k 	c #AEDC81",
"l 	c #549F0C",
"m 	c #62A921",
"n 	c #AEDD80",
"o 	c #71C420",
"p 	c #7CBB3F",
"q 	c #57A112",
"r 	c #B4E089",
"s 	c #71C521",
"t 	c #B1DF85",
"u 	c #5BA216",
"v 	c #549E0F",
"w 	c #B7E28E",
"x 	c #72C622",
"y 	c #B6E18D",
"z 	c #BDE496",
"A 	c #BCE495",
"B 	c #BBE494",
"C 	c #BAE493",
"D 	c #BAE392",
"E 	c #B7E28D",
"F 	c #97D55A",
"G 	c #73C722",
"H 	c #B6E28C",
"I 	c #B8E28E",
"J 	c #B5E28B",
"K 	c #B5E18A",
"L 	c #B4E189",
"M 	c #B4E188",
"N 	c #74C823",
"O 	c #75C824",
"P 	c #BBE593",
"Q 	c #76CA24",
"R 	c #B3E286",
"S 	c #BAE492",
"T 	c #76CA25",
"U 	c #B3E186",
"V 	c #BAE591",
"W 	c #77CC25",
"X 	c #88D240",
"Y 	c #A1DC69",
"Z 	c #AFE17F",
"` 	c #B4E386",
" .	c #ACE07A",
"..	c #9AD95D",
"+.	c #7DCE2E",
"@.	c #B2E284",
"#.	c #BAE590",
"$.	c #78CC26",
"%.	c #99D95C",
"&.	c #A9DC79",
"*.	c #78BA39",
"=.	c #5AA315",
"-.	c #509A08",
";.	c #5DA619",
">.	c #88C54C",
",.	c #ADDF7C",
"'.	c #BAE68F",
").	c #79CE27",
"!.	c #8BD545",
"~.	c #A8DC75",
"{.	c #56A110",
"].	c #519C09",
"^.	c #58A113",
"/.	c #85C449",
"(.	c #9ED767",
"_.	c #B1E182",
":.	c #519D08",
"<.	c #529D08",
"[.	c #BAE58E",
"}.	c #7ACE27",
"|.	c #A6DE6E",
"1.	c #70B42F",
"2.	c #509D07",
"3.	c #509E08",
"4.	c #549F0E",
"5.	c #A2D770",
"6.	c #B8E48B",
"7.	c #8AC750",
"8.	c #519E0A",
"9.	c #B9E68D",
"0.	c #7BD028",
"a.	c #B3E483",
"b.	c #54A00C",
"c.	c #91CC58",
"d.	c #A2DE68",
"e.	c #82D335",
"f.	c #A9E074",
"g.	c #A4D971",
"h.	c #5FA51A",
"i.	c #519C07",
"j.	c #7BD029",
"k.	c #B3E484",
"l.	c #519B0A",
"m.	c #AFE180",
"n.	c #86D439",
"o.	c #7CD129",
"p.	c #7DD12A",
"q.	c #97DB55",
"r.	c #B4E485",
"s.	c #89C74E",
"t.	c #B7E68A",
"u.	c #AEE27A",
"v.	c #4F9B06",
"w.	c #7FD32D",
"x.	c #7DD22A",
"y.	c #85D537",
"z.	c #A0DE63",
"A.	c #B1E47F",
"B.	c #B6E688",
"C.	c #9CDD5C",
"D.	c #A2DF66",
"E.	c #75B935",
"F.	c #B4E484",
"G.	c #84D534",
"H.	c #7ED32B",
"I.	c #8FD947",
"J.	c #9FD867",
"K.	c #529E0A",
"L.	c #529E08",
"M.	c #A7DD75",
"N.	c #8BD840",
"O.	c #7ED42B",
"P.	c #7FD42D",
"Q.	c #A8E270",
"R.	c #81C243",
"S.	c #519D0A",
"T.	c #78BD38",
"U.	c #98D65D",
"V.	c #AEE27B",
"W.	c #519E07",
"X.	c #88C74B",
"Y.	c #AAE372",
"Z.	c #88D83A",
"`.	c #81D62F",
" +	c #8DD942",
".+	c #A1E063",
"++	c #AEE47A",
"@+	c #B3E682",
"#+	c #B6E786",
"$+	c #9CDF5C",
"%+	c #7FD52C",
"&+	c #86D737",
"*+	c #AAE373",
"=+	c #94D158",
"-+	c #68AF25",
";+	c #539D0B",
">+	c #549E0E",
",+	c #78BC37",
"'+	c #A7DF71",
")+	c #A2E065",
"!+	c #90DA47",
"~+	c #B0E57C",
"{+	c #539E0B",
"]+	c #8ECD53",
"^+	c #AEE17D",
"/+	c #B6E686",
"(+	c #A9DE75",
"_+	c #85C547",
":+	c #62A920",
"<+	c #56A112",
"[+	c #539D0D",
"}+	c #B5E785",
"|+	c #80D62C",
"1+	c #82D730",
"2+	c #97DD52",
"3+	c #A7E36D",
"4+	c #AFE57B",
"5+	c #AEE579",
"6+	c #A2E165",
"7+	c #8AD93D",
"8+	c #529F09",
"9+	c #B7E887",
"0+	c #81D72D",
"a+	c #AFE67A",
"b+	c #B6E886",
"c+	c #82D82E",
"d+	c #AFE679",
"e+	c #B7E985",
"f+	c #83D92E",
"g+	c #90DD43",
"h+	c #A7E46B",
"i+	c #B0E779",
"j+	c #B3E87F",
"k+	c #B1E77B",
"l+	c #A9E56E",
"m+	c #9FE15D",
"n+	c #8EDC41",
"o+	c #AFE779",
"p+	c #B6E984",
"q+	c #83DA2F",
"r+	c #8FDE43",
"s+	c #ADE476",
"t+	c #76BC34",
"u+	c #57A212",
"v+	c #529E0C",
"w+	c #57A00F",
"x+	c #66AE21",
"y+	c #81C341",
"z+	c #A5DF6E",
"A+	c #A0E360",
"B+	c #84DA31",
"C+	c #AFE778",
"D+	c #B6EA84",
"E+	c #84DB30",
"F+	c #A7E56A",
"G+	c #72BA2F",
"H+	c #509A07",
"I+	c #539E0A",
"J+	c #9BD95F",
"K+	c #99E153",
"L+	c #AEE777",
"M+	c #B6EA83",
"N+	c #85DC30",
"O+	c #B2E97C",
"P+	c #64AC1F",
"Q+	c #A9E66E",
"R+	c #AEE876",
"S+	c #B5EA82",
"T+	c #86DD31",
"U+	c #B1E97A",
"V+	c #56A00F",
"W+	c #B0E978",
"X+	c #B6EB82",
"Y+	c #87DE32",
"Z+	c #A6E666",
"`+	c #78BD36",
" @	c #59A312",
".@	c #ADE873",
"+@	c #AEE975",
"@@	c #B5EB80",
"#@	c #88DF32",
"$@	c #92E243",
"%@	c #ABE672",
"&@	c #5AA413",
"*@	c #70B729",
"=@	c #A7E767",
"-@	c #AEE974",
";@	c #B5EC80",
">@	c #89E033",
",@	c #9EE557",
"'@	c #9EDC60",
")@	c #519E09",
"!@	c #87CC43",
"~@	c #9FE659",
"{@	c #AEEA74",
"]@	c #B4EC7E",
"^@	c #89E133",
"/@	c #89E134",
"(@	c #A8E969",
"_@	c #7DC43A",
":@	c #4B9208",
"<@	c #519D09",
"[@	c #9ADC59",
"}@	c #97E54C",
"|@	c #AEEA72",
"1@	c #B4EC7D",
"2@	c #B4EC7C",
"3@	c #B3EC7C",
"4@	c #B3EC7B",
"5@	c #B2EC7A",
"6@	c #ABE673",
"7@	c #509A09",
"8@	c #ADE774",
"9@	c #B0EB75",
"0@	c #AFEB74",
"a@	c #AEEB73",
"b@	c #AEEB72",
"                                                                                                ",
"                                                                                                ",
"                                                                                                ",
"                                                  . + @ # $                                     ",
"                                              % & * = - ; > , '                                 ",
"                                            ) ! ~ { ] ^ / ( _ :                                 ",
"                                            : < [ } } } } | 1 2                                 ",
"                                            3 4 5 6 6 6 7 8 9                                   ",
"                                            0 a b c c c d e f                                   ",
"                                              g h i i j k l                                     ",
"                                              m n o o h p                                       ",
"                                              q r s s t u                                       ",
"                            @ @ @ @ @ @ @ @ @ v w x x y v @ @ @ @ @ @ @ @ @ @ @                 ",
"                            @ z A B B B C C D E F G G F H I E E E H J K K L M @                 ",
"                            @ A N N N N N N N N N N N N N N N N N N N N N N M @                 ",
"                            @ B O O O O O O O O O O O O O O O O O O O O O O M @                 ",
"                            @ P Q Q Q Q Q Q Q Q Q Q Q Q Q Q Q Q Q Q Q Q Q Q R @                 ",
"                            @ S T T T T T T T T T T T T T T T T T T T T T T U @                 ",
"                            @ V W W W W W W W W W W W W W X Y Z `  ...+.W W @.@                 ",
"                            @ #.$.$.$.$.$.$.$.$.$.$.$.$.%.&.*.=.-.;.>.,.%.X @.@                 ",
"                            @ '.).).).).).).).).).).).!.~.{.        ].^./.(._.@                 ",
"              :.# <.        @ [.}.}.}.}.}.}.}.}.}.}.}.|.1.              2.3.3 @                 ",
"            4.5.6.7.8.      @ 9.0.0.0.0.0.0.0.0.0.0.0.a.b.                                      ",
"          8.c.d.e.f.g.h.i.  @ 9.j.j.j.j.j.j.j.j.j.j.j.k.l.                                      ",
"          :.m.n.o.p.q.r.s.;.v t.o.o.o.o.o.o.o.o.o.o.o.u.=.                                      ",
"          v.9.w.x.x.x.y.z.A.B.C.x.x.x.x.x.x.x.x.x.x.x.D.E.                                      ",
"          ' F.G.H.H.H.H.H.H.H.H.H.H.H.H.H.H.H.H.H.H.H.I.J..               K.# @                 ",
"          L.M.N.O.O.O.O.O.O.O.O.O.O.O.O.O.O.O.O.O.O.O.P.Q.R.0       $ S.T.U.V.@                 ",
"          W.X.Y.Z.`. +.+++@+#+$+%+%+%+%+%+%+%+%+%+%+%+%+&+*+=+-+;+>+,+'+)+!+~+@                 ",
"            {+]+^+/+(+_+:+<+[+}+|+|+|+|+|+|+|+|+|+|+|+|+|+1+2+3+4+5+6+7+|+|+4+@                 ",
"              8+3.' L.3.    @ 9+0+0+0+0+0+0+0+0+0+0+0+0+0+0+0+0+0+0+0+0+0+0+a+@                 ",
"                            @ b+c+c+c+c+c+c+c+c+c+c+c+c+c+c+c+c+c+c+c+c+c+c+d+@                 ",
"                            @ e+f+f+f+f+f+g+h+i+j+k+i+l+m+n+f+f+f+f+f+f+f+f+o+@                 ",
"                            @ p+q+q+q+q+r+s+t+u+# v+w+x+y+z+A+B+q+q+q+q+q+q+C+@                 ",
"                            @ D+E+E+E+E+F+G+i.          H+I+J+K+E+E+E+E+E+E+L+@                 ",
"                            @ M+N+N+N+N+O+b.                P+Q+N+N+N+N+N+N+R+@                 ",
"                            @ S+T+T+T+T+U+V+                f W+T+T+T+T+T+T+R+@                 ",
"                            @ X+Y+Y+Y+Y+Z+`+                 @.@Y+Y+Y+Y+Y+Y++@@                 ",
"                            @ @@#@#@#@#@$@%@&@              *@=@#@#@#@#@#@#@-@@                 ",
"                            @ ;@>@>@>@>@>@,@'@)@          . !@~@>@>@>@>@>@>@{@@                 ",
"                            @ ]@^@^@^@^@^@/@(@_@:@        <@[@}@^@^@^@^@^@^@|@@                 ",
"                            @ 1@1@1@2@3@3@4@5@6@7@        ' 8@9@9@0@0@0@a@a@b@@                 ",
"                            @ @ @ @ @ @ @ @ @ @ @         @ @ @ @ @ @ @ @ @ @ @                 ",
"                                                                                                ",
"                                                                                                ",
"                                                                                                ",
"                                                                                                ",
"                                                                                                "};
