/* XPM */
static char * plugin_xpm[] = {
"32 32 214 2",
"  	c None",
". 	c #55A30D",
"+ 	c #6FB132",
"@ 	c #77B53B",
"# 	c #6BAE2B",
"$ 	c #549F0A",
"% 	c #66AD26",
"& 	c #A4D574",
"* 	c #8FCD52",
"= 	c #87CA46",
"- 	c #94D05B",
"; 	c #89C253",
"> 	c #94CA60",
", 	c #74C329",
"' 	c #6DC01E",
") 	c #82C93F",
"! 	c #86C24F",
"~ 	c #87C04D",
"{ 	c #7FC838",
"] 	c #6FC11F",
"^ 	c #74C326",
"/ 	c #A1D570",
"( 	c #57A30F",
"_ 	c #6BAF2A",
": 	c #91D154",
"< 	c #70C320",
"[ 	c #98D45F",
"} 	c #6CAF2B",
"| 	c #5BA414",
"1 	c #9DD666",
"2 	c #71C421",
"3 	c #9CD268",
"4 	c #52A10A",
"5 	c #519D09",
"6 	c #78B63C",
"7 	c #78B63B",
"8 	c #77B53A",
"9 	c #9BD661",
"0 	c #73C622",
"a 	c #A0D56D",
"b 	c #72B135",
"c 	c #76B539",
"d 	c #75B438",
"e 	c #75B537",
"f 	c #53A20A",
"g 	c #B2E085",
"h 	c #8CD149",
"i 	c #8BD048",
"j 	c #89D045",
"k 	c #77C827",
"l 	c #74C723",
"m 	c #7DCB32",
"n 	c #8AD046",
"o 	c #ACDD7B",
"p 	c #53A20C",
"q 	c #A2DB6C",
"r 	c #75C924",
"s 	c #9ED964",
"t 	c #54A20C",
"u 	c #A3DB6C",
"v 	c #76CA25",
"w 	c #9DD963",
"x 	c #A2DC6B",
"y 	c #77CC26",
"z 	c #8DD449",
"A 	c #9FD968",
"B 	c #97D160",
"C 	c #9CD665",
"D 	c #93D753",
"E 	c #79CD29",
"F 	c #9DDA63",
"G 	c #A3DD6B",
"H 	c #79CD27",
"I 	c #90D64C",
"J 	c #89C84D",
"K 	c #56A30C",
"L 	c #54A30A",
"M 	c #72B531",
"N 	c #97D15E",
"O 	c #AEDF7E",
"P 	c #55A20C",
"Q 	c #59A410",
"R 	c #6FB22E",
"S 	c #59A712",
"T 	c #54A30C",
"U 	c #A3DE69",
"V 	c #7ACF27",
"W 	c #9DD864",
"X 	c #55A30B",
"Y 	c #56A20B",
"Z 	c #529F08",
"` 	c #95CE5E",
" .	c #9CDC5D",
"..	c #A7DD71",
"+.	c #6CB32A",
"@.	c #55A20B",
"#.	c #7BD028",
"$.	c #98D35F",
"%.	c #A6DF6E",
"&.	c #7CD229",
"*.	c #80D330",
"=.	c #A1DF65",
"-.	c #95D05C",
";.	c #79B73C",
">.	c #9EDE61",
",.	c #9BD861",
"'.	c #55A30C",
").	c #A5DF6B",
"!.	c #7ED32A",
"~.	c #85D535",
"{.	c #8FD946",
"].	c #81D42E",
"^.	c #9EDD5F",
"/.	c #61AB1A",
"(.	c #54A30D",
"_.	c #A1DB69",
":.	c #80D52C",
"<.	c #7FD52B",
"[.	c #82D62F",
"}.	c #8DD941",
"|.	c #90DA46",
"1.	c #87D737",
"2.	c #9EDA65",
"3.	c #5FA917",
"4.	c #56A40B",
"5.	c #68AF24",
"6.	c #93D157",
"7.	c #ACE178",
"8.	c #57A30C",
"9.	c #71B530",
"0.	c #A3DE6B",
"a.	c #A5E06A",
"b.	c #9CD664",
"c.	c #82C045",
"d.	c #76B638",
"e.	c #9FE060",
"f.	c #80D62C",
"g.	c #88D93A",
"h.	c #9EDE5F",
"i.	c #98D55B",
"j.	c #99D75C",
"k.	c #9BDF59",
"l.	c #84D733",
"m.	c #9FE05F",
"n.	c #55A40D",
"o.	c #56A40C",
"p.	c #A4E367",
"q.	c #81D82D",
"r.	c #9FE15F",
"s.	c #82D92E",
"t.	c #8DDC41",
"u.	c #9FE25E",
"v.	c #A3E365",
"w.	c #9FE25F",
"x.	c #99E055",
"y.	c #8CDC3F",
"z.	c #57A40D",
"A.	c #A4E466",
"B.	c #84DA2F",
"C.	c #8FDD42",
"D.	c #96D45A",
"E.	c #60AA1A",
"F.	c #5DA814",
"G.	c #89C94B",
"H.	c #9EE25A",
"I.	c #A0E25E",
"J.	c #57A60D",
"K.	c #A5E566",
"L.	c #85DC30",
"M.	c #A0E45E",
"N.	c #5EA917",
"O.	c #8ACB4B",
"P.	c #8DDE3D",
"Q.	c #A0E45D",
"R.	c #A4E665",
"S.	c #86DE31",
"T.	c #A1E55F",
"U.	c #5FAA17",
"V.	c #76B936",
"W.	c #92E146",
"X.	c #A0E55D",
"Y.	c #A5E765",
"Z.	c #87DF32",
"`.	c #91E244",
" +	c #8DCF4F",
".+	c #85C946",
"++	c #8EE13E",
"@+	c #A0E65D",
"#+	c #A5E764",
"$+	c #89E033",
"%+	c #A0E65A",
"&+	c #73BB2F",
"*+	c #98DA57",
"=+	c #8AE035",
"-+	c #A1E65D",
";+	c #54A00D",
">+	c #B4EC7C",
",+	c #A6E965",
"'+	c #A6E964",
")+	c #ACE574",
"!+	c #4F930C",
"~+	c #529B0D",
"{+	c #ACE771",
"]+	c #A3E860",
"^+	c #A3E85F",
"/+	c #A2E85E",
"(+	c #ADEB71",
"_+	c #519A0C",
":+	c #4F9909",
"<+	c #519B0C",
"[+	c #50990C",
"}+	c #4B9208",
"|+	c #4F9709",
"1+	c #4A9009",
"                                                                ",
"                                                                ",
"                                . + @ # $                       ",
"                              % & * = - ;                       ",
"                              > , ' ' ) !                       ",
"                              ~ { ] ^ / (                       ",
"                              _ : < [ }                         ",
"                              | 1 2 3 4                         ",
"                  5 6 7 7 7 8 @ 9 0 a b c d d d e e 5           ",
"                  f g h i i i j k l m n n n n n j o f           ",
"                  p q r r r r r r r r r r r r r r s p           ",
"                  t u v v v v v v v v v v v v v v w t           ",
"                  t x y y y y y y y y z A B C D E F t           ",
"                  t G H H H H H H H I J K   L M N O P           ",
"        Q R S     T U V V V V V V V W X           Y Z           ",
"        `  ...+.  @.U #.#.#.#.#.#.#.$.                          ",
"      @.%.&.*.=.-.;.>.&.&.&.&.&.&.&.,.t                         ",
"      '.).!.!.!.~.{.].!.!.!.!.!.!.!.^./.          Y Z           ",
"      (._.:.<.[.}.|.[.<.<.<.<.<.<.<.1.2.3.  4.5.6.7.8.          ",
"        9.0.a.b.c.d.e.f.f.f.f.f.f.f.f.g.h.i.j.k.l.m.n.          ",
"          K o.    K p.q.q.q.q.q.q.q.q.q.q.q.q.q.q.r.n.          ",
"                  n.p.s.s.s.t.u.v.w.x.y.s.s.s.s.s.u.n.          ",
"                  z.A.B.B.C.D.E.o.F.5.G.H.B.B.B.B.I.z.          ",
"                  J.K.L.L.M.N.          O.P.L.L.L.Q.J.          ",
"                  J.R.S.S.T.U.          V.W.S.S.S.X.J.          ",
"                  J.Y.Z.Z.`. +          .+++Z.Z.Z.@+J.          ",
"                  J.#+$+$+$+%+&+        *+=+$+$+$+-+J.          ",
"                  ;+>+,+,+'+,+)+!+    ~+{+]+^+^+/+(+_+          ",
"                  :+<+_+[+[+[+[+}+    |+<+_+[+[+[+_+1+          ",
"                                                                ",
"                                                                ",
"                                                                "};
