/* XPM */
static char * prefs_xpm[] = {
"32 32 250 2",
"  	c None",
". 	c #000000",
"+ 	c #252525",
"@ 	c #4F4F4F",
"# 	c #010101",
"$ 	c #070707",
"% 	c #262626",
"& 	c #C8C8C8",
"* 	c #D3D3D3",
"= 	c #8F8F8F",
"- 	c #131313",
"; 	c #5A5A5A",
"> 	c #B6B6B6",
", 	c #2E2E2E",
"' 	c #2A2A2A",
") 	c #D0CFCF",
"! 	c #E3E2E2",
"~ 	c #D4D4D4",
"{ 	c #C4C4C4",
"] 	c #B4B4B4",
"^ 	c #404040",
"/ 	c #050505",
"( 	c #565656",
"_ 	c #B0B0B0",
": 	c #AAAAAA",
"< 	c #AEAEAE",
"[ 	c #858585",
"} 	c #919191",
"| 	c #D8D7D7",
"1 	c #C9C8C8",
"2 	c #BAB9B9",
"3 	c #ACABAB",
"4 	c #B2B1B1",
"5 	c #7C7C7C",
"6 	c #040404",
"7 	c #505050",
"8 	c #AFAFAF",
"9 	c #ABABAB",
"0 	c #B7B7B7",
"a 	c #292929",
"b 	c #242424",
"c 	c #C6C6C6",
"d 	c #CCCCCC",
"e 	c #BDBDBD",
"f 	c #9F9F9F",
"g 	c #939292",
"h 	c #B8B8B8",
"i 	c #1B1B1B",
"j 	c #474747",
"k 	c #BABABA",
"l 	c #A4A4A4",
"m 	c #BBBBBB",
"n 	c #B9B9B9",
"o 	c #2F2F2F",
"p 	c #6B6B6B",
"q 	c #C1C1C1",
"r 	c #B1B1B1",
"s 	c #A2A2A2",
"t 	c #969595",
"u 	c #B2B2B2",
"v 	c #C2C2C2",
"w 	c #222222",
"x 	c #353535",
"y 	c #090909",
"z 	c #ADADAD",
"A 	c #AAA9A9",
"B 	c #989797",
"C 	c #2C2C2C",
"D 	c #060606",
"E 	c #313131",
"F 	c #3E3E3E",
"G 	c #484848",
"H 	c #636363",
"I 	c #0B0B0B",
"J 	c #545454",
"K 	c #A8A8A8",
"L 	c #303030",
"M 	c #777777",
"N 	c #8B8B8B",
"O 	c #828282",
"P 	c #E0E0E0",
"Q 	c #383838",
"R 	c #535353",
"S 	c #A9A9A9",
"T 	c #BFBFBF",
"U 	c #797979",
"V 	c #B3B3B3",
"W 	c #3D3D3D",
"X 	c #D7D7D7",
"Y 	c #3B3B3B",
"Z 	c #C7C7C7",
"` 	c #C9C9C9",
" .	c #B5B5B5",
"..	c #ACACAC",
"+.	c #D9D9D9",
"@.	c #DFDFDF",
"#.	c #989898",
"$.	c #838383",
"%.	c #515151",
"&.	c #DCDCDC",
"*.	c #DEDEDE",
"=.	c #3F3F3F",
"-.	c #5B5B5B",
";.	c #7B7B7B",
">.	c #473E25",
",.	c #7E7151",
"'.	c #040403",
").	c #5C5C5C",
"!.	c #DDDDDD",
"~.	c #060101",
"{.	c #160302",
"].	c #101010",
"^.	c #606060",
"/.	c #232323",
"(.	c #13110B",
"_.	c #CDB26E",
":.	c #E4D8BD",
"<.	c #B2A075",
"[.	c #6B4A1B",
"}.	c #676767",
"|.	c #D27F7B",
"1.	c #D6251B",
"2.	c #F0847E",
"3.	c #8E2823",
"4.	c #020000",
"5.	c #655735",
"6.	c #F9DE9A",
"7.	c #FFF4D7",
"8.	c #FFCA60",
"9.	c #DB8934",
"0.	c #B2672B",
"a.	c #4B2B12",
"b.	c #924F4A",
"c.	c #B01911",
"d.	c #CF1E14",
"e.	c #E9462C",
"f.	c #F18B58",
"g.	c #A25B23",
"h.	c #070602",
"i.	c #CCB069",
"j.	c #FFF0CC",
"k.	c #FFE3A0",
"l.	c #FFB240",
"m.	c #FF953D",
"n.	c #FF933D",
"o.	c #CC7631",
"p.	c #3B2813",
"q.	c #A91911",
"r.	c #C7371C",
"s.	c #FCB13D",
"t.	c #FFCC48",
"u.	c #FFEEC1",
"v.	c #B7953D",
"w.	c #030201",
"x.	c #665835",
"y.	c #F8DC93",
"z.	c #FFF1CF",
"A.	c #FFCA5D",
"B.	c #FFA03D",
"C.	c #FD9A40",
"D.	c #694F2A",
"E.	c #8D140E",
"F.	c #B11B12",
"G.	c #FA8F3B",
"H.	c #FFB43E",
"I.	c #FFCF54",
"J.	c #FFEFC5",
"K.	c #A88837",
"L.	c #010100",
"M.	c #14120C",
"N.	c #CBAF66",
"O.	c #FFEFC7",
"P.	c #FFE299",
"Q.	c #FFB33F",
"R.	c #E99C48",
"S.	c #201910",
"T.	c #B43118",
"U.	c #FFD15A",
"V.	c #FFF0C8",
"W.	c #977A31",
"X.	c #38311F",
"Y.	c #F7D47B",
"Z.	c #C5C3BE",
"`.	c #929191",
" +	c #EEC599",
".+	c #FE993E",
"++	c #976F3D",
"@+	c #0A0502",
"#+	c #E69037",
"$+	c #FFB53F",
"%+	c #FFD361",
"&+	c #FFF0CA",
"*+	c #866C2C",
"=+	c #BA9D53",
"-+	c #FFD979",
";+	c #747373",
">+	c #6A6969",
",+	c #E6BD9C",
"'+	c #EF9D46",
")+	c #2D2214",
"!+	c #0C0802",
"~+	c #EC9339",
"{+	c #FFB63E",
"]+	c #FFD568",
"^+	c #735D26",
"/+	c #AF9450",
"(+	c #FFC845",
"_+	c #E9C39A",
":+	c #EBB992",
"<+	c #FE9A43",
"[+	c #A87940",
"}+	c #140E04",
"|+	c #F0943A",
"1+	c #FFB73E",
"2+	c #FFD771",
"3+	c #614F1F",
"4+	c #1C1910",
"5+	c #E4BB54",
"6+	c #FEBF3F",
"7+	c #F09E46",
"8+	c #392B18",
"9+	c #1D1408",
"0+	c #F3953B",
"a+	c #FF943D",
"b+	c #FFB83E",
"c+	c #FFDF8D",
"d+	c #FEEBBA",
"e+	c #4E3D13",
"f+	c #231708",
"g+	c #F7963B",
"h+	c #FFBE4D",
"i+	c #E1AF40",
"j+	c #BF842F",
"k+	c #2F1C0C",
"l+	c #281C0A",
"m+	c #F9973C",
"n+	c #FD963D",
"o+	c #D27932",
"p+	c #35240D",
"q+	c #FB973C",
"r+	c #FE973C",
"s+	c #CF7732",
"t+	c #412C10",
"u+	c #E99438",
"v+	c #FA903C",
"w+	c #4A2B12",
"x+	c #201407",
"y+	c #945523",
"z+	c #9E5B26",
"A+	c #38200D",
"                                                                ",
"            . .                                                 ",
"          . + @ # .                         . $ .               ",
"        . % & * = - . .                 . $ ; > , .             ",
"      . ' ) ! ~ { ] ^ . .           . / ( _ : < [ .             ",
"      . } ! | 1 2 3 4 5 / .     . 6 7 8 9 : 0 0 a .             ",
"      . b c d e < f g h i .     . j k l > m n o .               ",
"        . p q r s t u v w .     . j ] m m n x .       . .       ",
"        . y z A B r v v C .     . j ] n h _ D . . . # E #       ",
"          . F n _ v v v G .     . j ] 0 m n H . I J K q L .     ",
"          . . M } N O c P Q . . . R v S m n T U e ] 9 V U .     ",
"            . . . . . W X P Y . J Z ` _  .m  ._ ..n ] ..% .     ",
"                  . . . j +.@.W y #.& & l u k m 0 k $.I .       ",
"                      . . %.&.*.=.$ -.J ;.V n h q 7 . .         ",
"                    . >.,.'.).!.*.^ ~.{.. ].^.;./.. .           ",
"                . (._.:.<.[.. }.*.|.1.2.3.4.. . .               ",
"              . 5.6.7.8.9.0.a.# b.c.d.e.f.g.h..                 ",
"          . (.i.j.k.l.m.n.o.p.. q.c.r.s.t.u.v.w..               ",
"        . x.y.z.A.B.n.n.C.D.. . E.F.G.n.H.I.J.K.L..             ",
"    . M.N.O.P.Q.m.n.n.R.S.. . . 4.T.n.n.n.H.U.V.W.. .           ",
"  . X.Y.Z.`. +n.n..+++. .   . . . @+#+n.n.n.$+%+&+*+. .         ",
"  . =+-+;+>+,+n.'+)+.             . !+~+n.n.n.{+]+&+^+. .       ",
"  . /+(+_+:+<+[+. .                 . }+|+n.n.n.1+2+j.3+.       ",
"  . 4+5+6+7+8+.                     . . 9+0+n.n.a+b+c+d+e+.     ",
"    . . . . .                         . . f+g+n.n.m.h+i+j+k+.   ",
"      . .                               . . l+m+n.n.n+n.n.o+. . ",
"                                          . . p+q+r+m.n.n.s+. . ",
"                                            . . t+u+n.n.v+w+.   ",
"                                              . . x+y+z+A+. .   ",
"                                                . . . . . .     ",
"                                                  . . . .       ",
"                                                                "};
