/* XPM */
static char * preferences_xpm[] = {
"32 32 229 2",
"  	c None",
". 	c #C75203",
"+ 	c #F5830E",
"@ 	c #F27508",
"# 	c #CB5503",
"$ 	c #CC5302",
"% 	c #F78E14",
"& 	c #F89115",
"* 	c #E36207",
"= 	c #C65C1F",
"- 	c #CD5507",
"; 	c #E0E0E0",
"> 	c #F5F5F6",
", 	c #F9F9F9",
"' 	c #F1F1F1",
") 	c #D2D2D2",
"! 	c #E46206",
"~ 	c #BF5B23",
"{ 	c #E06619",
"] 	c #F06400",
"^ 	c #858585",
"/ 	c #E4E4E4",
"( 	c #E9E9E9",
"_ 	c #EBEBEB",
": 	c #F7F7F7",
"< 	c #FFFFFF",
"[ 	c #FBFBFC",
"} 	c #A5A5A5",
"| 	c #E16618",
"1 	c #F36600",
"2 	c #FA810F",
"3 	c #C1C1C1",
"4 	c #E8E8E8",
"5 	c #ECECEC",
"6 	c #FDFDFD",
"7 	c #FD8611",
"8 	c #C35206",
"9 	c #ADADAD",
"0 	c #E5E5E5",
"a 	c #EAEAEA",
"b 	c #E7E7E9",
"c 	c #CB5504",
"d 	c #818181",
"e 	c #E1E1E1",
"f 	c #EEEEEE",
"g 	c #E2E2E2",
"h 	c #E6E6E6",
"i 	c #A1A1A1",
"j 	c #979797",
"k 	c #D7D7D7",
"l 	c #DBDBDB",
"m 	c #DFDFDF",
"n 	c #F0F0F0",
"o 	c #CA5504",
"p 	c #B1B1B1",
"q 	c #FCFCFC",
"r 	c #E7E7E8",
"s 	c #A7A7A7",
"t 	c #B9B9B9",
"u 	c #D5D5D5",
"v 	c #D8D8D8",
"w 	c #DDDDDD",
"x 	c #AFAFAF",
"y 	c #CACACA",
"z 	c #EFEFEF",
"A 	c #F5F5F5",
"B 	c #F4F4F4",
"C 	c #BFBFBF",
"D 	c #D3D3D3",
"E 	c #B0B0B0",
"F 	c #555555",
"G 	c #FBFBFB",
"H 	c #BE4E03",
"I 	c #F78D13",
"J 	c #999999",
"K 	c #CFCFCF",
"L 	c #D4D4D4",
"M 	c #585858",
"N 	c #747474",
"O 	c #626262",
"P 	c #D9D9D9",
"Q 	c #EDEDED",
"R 	c #DB6709",
"S 	c #F78F14",
"T 	c #909090",
"U 	c #C8C8C8",
"V 	c #D1D1D1",
"W 	c #D6D6D6",
"X 	c #DADADA",
"Y 	c #B5B5B5",
"Z 	c #656565",
"` 	c #C4C4C4",
" .	c #EBE5E2",
"..	c #F1E4DC",
"+.	c #DBA889",
"@.	c #E77914",
"#.	c #E56206",
"$.	c #FD8511",
"%.	c #ACACAC",
"&.	c #C6C6C6",
"*.	c #C7C7C7",
"=.	c #E2DBD6",
"-.	c #DA610E",
";.	c #F5840F",
">.	c #F37508",
",.	c #E07B24",
"'.	c #DF6310",
").	c #E46613",
"!.	c #A4A4A4",
"~.	c #737373",
"{.	c #BCBCBC",
"].	c #CD926E",
"^.	c #F37608",
"/.	c #EF6502",
"(.	c #CF5E18",
"_.	c #E9660E",
":.	c #ED6301",
"<.	c #DD6509",
"[.	c #B24D09",
"}.	c #6D6D6D",
"|.	c #707070",
"1.	c #AC8D7D",
"2.	c #CA5E1E",
"3.	c #E76611",
"4.	c #F26600",
"5.	c #943311",
"6.	c #991616",
"7.	c #C25151",
"8.	c #8C7064",
"9.	c #F97D0D",
"0.	c #A23930",
"a.	c #921A1A",
"b.	c #930E0E",
"c.	c #C14949",
"d.	c #BDBDBD",
"e.	c #7B7B7B",
"f.	c #5D2C2C",
"g.	c #AB350F",
"h.	c #DB5A04",
"i.	c #C64945",
"j.	c #C13D3D",
"k.	c #941E1E",
"l.	c #8F0D0D",
"m.	c #BE4242",
"n.	c #732626",
"o.	c #9C1F19",
"p.	c #CA3B3B",
"q.	c #E04E4E",
"r.	c #C43F3F",
"s.	c #972323",
"t.	c #8A0D0D",
"u.	c #B93838",
"v.	c #732525",
"w.	c #A61919",
"x.	c #CA3838",
"y.	c #E24F4F",
"z.	c #C64040",
"A.	c #9B2727",
"B.	c #850C0C",
"C.	c #B22F2F",
"D.	c #752525",
"E.	c #C63535",
"F.	c #E35050",
"G.	c #C94242",
"H.	c #A02A2A",
"I.	c #800D0D",
"J.	c #AB2727",
"K.	c #CD5757",
"L.	c #762626",
"M.	c #A61A1A",
"N.	c #C43232",
"O.	c #E55151",
"P.	c #CC4343",
"Q.	c #A32D2D",
"R.	c #7C0E0E",
"S.	c #A01C1C",
"T.	c #CF5757",
"U.	c #782525",
"V.	c #A71A1A",
"W.	c #BF2F2F",
"X.	c #CE4545",
"Y.	c #A72F2F",
"Z.	c #7A1010",
"`.	c #931212",
" +	c #CE5252",
".+	c #7A2727",
"++	c #A81A1A",
"@+	c #BD2C2C",
"#+	c #E65151",
"$+	c #D14646",
"%+	c #AA3030",
"&+	c #771212",
"*+	c #8B0D0D",
"=+	c #C84949",
"-+	c #7A2626",
";+	c #A91B1B",
">+	c #B92929",
",+	c #E75252",
"'+	c #B73C3C",
")+	c #6C1D1D",
"!+	c #AC3E3E",
"~+	c #B2B2B2",
"{+	c #792424",
"]+	c #B62626",
"^+	c #C04141",
"/+	c #822D2D",
"(+	c #961111",
"_+	c #831717",
":+	c #AEAEAE",
"<+	c #E7E7E7",
"[+	c #ABABAB",
"}+	c #7A2525",
"|+	c #AA1B1B",
"1+	c #AA2020",
"2+	c #BB3636",
"3+	c #AE2B2B",
"4+	c #9B1313",
"5+	c #DCDCDC",
"6+	c #919191",
"7+	c #752727",
"8+	c #A61C1C",
"9+	c #A71919",
"0+	c #A01818",
"a+	c #782020",
"b+	c #CECECE",
"c+	c #CBCBCB",
"d+	c #8D8D8D",
"e+	c #777777",
"f+	c #5D5D5D",
"                                                                ",
"                                                    . + @ #     ",
"                                                  $ % & * = -   ",
"            ; > , ' )                           $ % & ! ~ { ]   ",
"          ^ / ( _ : < [ }                     $ % & ! ~ | 1 2   ",
"              3 4 ( 5 < 6                   $ % & ! ~ | 1 7 8   ",
"                9 0 4 a < b               $ % & ! ~ | 1 7 c     ",
"                d e 0 4 f <             $ % & ! ~ | 1 7 c       ",
"                  ; g h ( < i         $ % & ! ~ | 1 7 c         ",
"    j           k l m / 4 n j       $ % & ! ~ | 1 7 o           ",
"    p q r s   t u v w x w _ y     $ % & ! ~ | 1 7 o             ",
"      z A B C D ) v E F d u G   H I & ! ~ | 1 7 o               ",
"      J 5 w u K L v M N O P < Q R S ! ~ | 1 7 o                 ",
"        T U V D W X Y Z `  ...+.@.#.~ | 1 $.o                   ",
"          Z %.&.*.3 U m =.-.;.>.,.'.).1 $.o                     ",
"              !.`     ~.{.].^./.(._.:.<.[.                      ",
"                }.        |.1.2.3.4.5.6.7.                      ",
"                          {.D 8.4.9.0.a.b.c.                    ",
"                        d.D e.f.g.h.i.j.k.l.m.                  ",
"                      d.D e.    n.o.p.q.r.s.t.u.                ",
"                    d.D e.        v.w.x.y.z.A.B.C.              ",
"                  d.D e.            D.w.E.F.G.H.I.J.K.          ",
"                d.D e.                L.M.N.O.P.Q.R.S.T.        ",
"              d.D e.                    U.V.W.O.X.Y.Z.`. +      ",
"            d.D e.                        .+++@+#+$+%+&+*+=+    ",
"          d.D e.                            -+;+>+,+'+  )+b.!+  ",
"      ~+*.D e.                                {+;+]+^+  /+(+_+  ",
"    :+<+h [+                                    }+|+1+2+3+4+    ",
"    5+X X 6+                                      7+8+9+0+a+    ",
"  3 b+c+d+                                                      ",
"  e+~+f+                                                        ",
"                                                                "};
