/* XPM */
static char * preferences_xpm[] = {
"48 48 389 2",
"  	c None",
". 	c #B64703",
"+ 	c #D05602",
"@ 	c #CC5804",
"# 	c #B24906",
"$ 	c #C45002",
"% 	c #F37005",
"& 	c #FCB326",
"* 	c #F78911",
"= 	c #F36600",
"- 	c #D65902",
"; 	c #C64F02",
"> 	c #F47205",
", 	c #FCB527",
"' 	c #F89115",
") 	c #F26600",
"! 	c #BF5717",
"~ 	c #CA5E1B",
"{ 	c #D65904",
"] 	c #989898",
"^ 	c #AAAAAA",
"/ 	c #999999",
"( 	c #BA5419",
"_ 	c #BF5B23",
": 	c #D66627",
"< 	c #F06604",
"[ 	c #A74709",
"} 	c #ACACAC",
"| 	c #EBEBEC",
"1 	c #FCFCFD",
"2 	c #FFFFFF",
"3 	c #EFEFEF",
"4 	c #B2B2B2",
"5 	c #EA660B",
"6 	c #CF5A06",
"7 	c #A6A6A6",
"8 	c #EAEAEA",
"9 	c #E9E9E9",
"0 	c #EDEDED",
"a 	c #F5F5F5",
"b 	c #EA660C",
"c 	c #FE8813",
"d 	c #D55A04",
"e 	c #585858",
"f 	c #D7D7D8",
"g 	c #E8E8E8",
"h 	c #EBEBEB",
"i 	c #F8F8F9",
"j 	c #F36802",
"k 	c #9E440C",
"l 	c #A0A0A0",
"m 	c #E6E6E6",
"n 	c #F0F0F0",
"o 	c #ECECEC",
"p 	c #F46802",
"q 	c #C25105",
"r 	c #525252",
"s 	c #E7E7E7",
"t 	c #B3B3B3",
"u 	c #C25205",
"v 	c #E3E3E3",
"w 	c #E4E4E4",
"x 	c #F1F1F1",
"y 	c #F46801",
"z 	c #D9D9D9",
"A 	c #E1E1E1",
"B 	c #FBFBFB",
"C 	c #CBCBCC",
"D 	c #DFDFDF",
"E 	c #EEEEEE",
"F 	c #DDDDDD",
"G 	c #E0E0E0",
"H 	c #E2E2E2",
"I 	c #ADADAD",
"J 	c #F46901",
"K 	c #6E6E6E",
"L 	c #CCCCCE",
"M 	c #DADADA",
"N 	c #D8D8D8",
"O 	c #DBDBDB",
"P 	c #DEDEDE",
"Q 	c #9B9B9C",
"R 	c #FDFDFD",
"S 	c #E0E0E1",
"T 	c #929294",
"U 	c #BBBBBC",
"V 	c #D4D4D4",
"W 	c #D6D6D6",
"X 	c #D0D0D0",
"Y 	c #F47105",
"Z 	c #F9F9F9",
"` 	c #F7F7F7",
" .	c #A4A4A4",
"..	c #8A8A8A",
"+.	c #D7D7D7",
"@.	c #D2D2D2",
"#.	c #D5D5D5",
"$.	c #DCDCDC",
"%.	c #B5B5B5",
"&.	c #5A5A5A",
"*.	c #919191",
"=.	c #FCFCFC",
"-.	c #808080",
";.	c #F3F3F3",
">.	c #F4F4F4",
",.	c #CBCBCB",
"'.	c #CECECE",
").	c #CACACA",
"!.	c #575757",
"~.	c #818181",
"{.	c #797979",
"].	c #F46E04",
"^.	c #C6C6C6",
"/.	c #D1D1D1",
"(.	c #CCCCCC",
"_.	c #CFCFCF",
":.	c #5E5E5E",
"<.	c #565656",
"[.	c #5B5B5B",
"}.	c #7A7A7A",
"|.	c #C05004",
"1.	c #FAAB22",
"2.	c #C8C8C8",
"3.	c #B2B2B3",
"4.	c #757575",
"5.	c #858585",
"6.	c #5C5C5C",
"7.	c #646464",
"8.	c #FBF6F4",
"9.	c #CB5D13",
"0.	c #F57A0A",
"a.	c #B95419",
"b.	c #F36801",
"c.	c #E8E7E7",
"d.	c #EBDFD8",
"e.	c #EBD9CE",
"f.	c #E4CABC",
"g.	c #CF783F",
"h.	c #E8891F",
"i.	c #F26803",
"j.	c #C55914",
"k.	c #828282",
"l.	c #C3C3C3",
"m.	c #CFCFD0",
"n.	c #C88153",
"o.	c #E36208",
"p.	c #EE6C06",
"q.	c #F99A1A",
"r.	c #F27209",
"s.	c #E2892A",
"t.	c #E26E1B",
"u.	c #D45F15",
"v.	c #505050",
"w.	c #A1A1A1",
"x.	c #A9A9A9",
"y.	c #888888",
"z.	c #555555",
"A.	c #696969",
"B.	c #959595",
"C.	c #CDA38A",
"D.	c #E66607",
"E.	c #FDBA2A",
"F.	c #F6810D",
"G.	c #E8660B",
"H.	c #DB6620",
"I.	c #E8660E",
"J.	c #F16603",
"K.	c #F36701",
"L.	c #C15005",
"M.	c #C0C0C0",
"N.	c #8F8F8F",
"O.	c #4B4B4B",
"P.	c #898989",
"Q.	c #CB9C81",
"R.	c #ED7009",
"S.	c #CC5A11",
"T.	c #BE5A23",
"U.	c #E66611",
"V.	c #EB6609",
"W.	c #CA5207",
"X.	c #BD4F0A",
"Y.	c #93420D",
"Z.	c #777777",
"`.	c #5D5D5D",
" +	c #484848",
".+	c #939393",
"++	c #957667",
"@+	c #DB6414",
"#+	c #D86624",
"$+	c #AF4509",
"%+	c #851512",
"&+	c #AD2E2E",
"*+	c #C45252",
"=+	c #686868",
"-+	c #F1F0F0",
";+	c #B4ABA7",
">+	c #D9671D",
",+	c #F06603",
"'+	c #F9790A",
")+	c #8F3423",
"!+	c #901919",
"~+	c #930E0E",
"{+	c #AB2727",
"]+	c #C84F4F",
"^+	c #727272",
"/+	c #D3D3D3",
"(+	c #A5A4A4",
"_+	c #785349",
":+	c #E96102",
"<+	c #F06602",
"[+	c #A13C31",
"}+	c #B03434",
"|+	c #911C1C",
"1+	c #920E0E",
"2+	c #A62121",
"3+	c #C74B4B",
"4+	c #737373",
"5+	c #4E4D4D",
"6+	c #822424",
"7+	c #9F2B10",
"8+	c #E66002",
"9+	c #E55F02",
"0+	c #B7453D",
"a+	c #CC4343",
"b+	c #B23535",
"c+	c #932020",
"d+	c #8E0E0E",
"e+	c #A01B1B",
"f+	c #C44444",
"g+	c #A7A7A7",
"h+	c #4E4E4E",
"i+	c #931E1E",
"j+	c #A02911",
"k+	c #A93F0F",
"l+	c #D4504F",
"m+	c #DF4E4E",
"n+	c #CD4444",
"o+	c #B43636",
"p+	c #962323",
"q+	c #8A0F0F",
"r+	c #9A1414",
"s+	c #C13D3D",
"t+	c #C95656",
"u+	c #941E1E",
"v+	c #A41A1A",
"w+	c #B32424",
"x+	c #E95353",
"y+	c #E04E4E",
"z+	c #CF4545",
"A+	c #B73838",
"B+	c #972626",
"C+	c #870F0F",
"D+	c #940E0E",
"E+	c #BB3838",
"F+	c #CE5757",
"G+	c #961E1E",
"H+	c #A61919",
"I+	c #B22222",
"J+	c #E85252",
"K+	c #E14F4F",
"L+	c #D14646",
"M+	c #B93939",
"N+	c #9A2828",
"O+	c #831111",
"P+	c #B53232",
"Q+	c #D25858",
"R+	c #A71919",
"S+	c #B02222",
"T+	c #E24F4F",
"U+	c #D34747",
"V+	c #BC3A3A",
"W+	c #9D2929",
"X+	c #7F1313",
"Y+	c #900D0D",
"Z+	c #B02B2B",
"`+	c #D25555",
" @	c #971F1F",
".@	c #AF2020",
"+@	c #E55050",
"@@	c #E45050",
"#@	c #D44848",
"$@	c #BE3C3C",
"%@	c #A02B2B",
"&@	c #7F1515",
"*@	c #8B0C0C",
"=@	c #AA2525",
"-@	c #D04F4F",
";@	c #971E1E",
">@	c #A71A1A",
",@	c #AE2020",
"'@	c #E24D4D",
")@	c #E55151",
"!@	c #D64949",
"~@	c #C03D3D",
"{@	c #A32C2C",
"]@	c #801717",
"^@	c #840A0A",
"/@	c #A41F1F",
"(@	c #CB4949",
"_@	c #CB5555",
":@	c #A81A1A",
"<@	c #AD1E1E",
"[@	c #E04A4A",
"}@	c #D74A4A",
"|@	c #C23E3E",
"1@	c #A52E2E",
"2@	c #811919",
"3@	c #7C0909",
"4@	c #9E1919",
"5@	c #C54343",
"6@	c #CF5757",
"7@	c #991E1E",
"8@	c #AC1E1E",
"9@	c #DD4848",
"0@	c #E65151",
"a@	c #D94B4B",
"b@	c #C43F3F",
"c@	c #A72F2F",
"d@	c #841B1B",
"e@	c #740808",
"f@	c #971313",
"g@	c #D35858",
"h@	c #9A1F1F",
"i@	c #AC1D1D",
"j@	c #DA4545",
"k@	c #DA4B4B",
"l@	c #C54040",
"m@	c #AA3030",
"n@	c #871D1D",
"o@	c #6D0808",
"p@	c #910D0D",
"q@	c #BA3636",
"r@	c #D45858",
"s@	c #9B1F1F",
"t@	c #A91A1A",
"u@	c #AA1C1C",
"v@	c #D74242",
"w@	c #E65252",
"x@	c #DB4C4C",
"y@	c #C74141",
"z@	c #9F2D2D",
"A@	c #772121",
"B@	c #6B0E0E",
"C@	c #B43030",
"D@	c #C75454",
"E@	c #9B2020",
"F@	c #A91B1B",
"G@	c #AA1A1A",
"H@	c #D44040",
"I@	c #E75252",
"J@	c #C64242",
"K@	c #7B0F0F",
"L@	c #A52A2A",
"M@	c #8E8E8E",
"N@	c #9C1F1F",
"O@	c #D13D3D",
"P@	c #C44242",
"Q@	c #881D1D",
"R@	c #971010",
"S@	c #8E1010",
"T@	c #9D1E1E",
"U@	c #AA1B1B",
"V@	c #C43434",
"W@	c #A32121",
"X@	c #9A1111",
"Y@	c #881515",
"Z@	c #7F7F7F",
"`@	c #E5E5E5",
" #	c #7B7B7B",
".#	c #9E1F1F",
"+#	c #B42929",
"@#	c #C13838",
"##	c #B92F2F",
"$#	c #9E1515",
"%#	c #9B1313",
"&#	c #9E2020",
"*#	c #A31717",
"=#	c #9F1616",
"-#	c #7B1F1F",
";#	c #B4B4B4",
">#	c #9C9C9C",
",#	c #792626",
"'#	c #951F1F",
")#	c #881F1F",
"!#	c #C4C4C4",
"~#	c #929292",
"{#	c #ABABAB",
"]#	c #424242",
"^#	c #535353",
"                                                                                                ",
"                                                                                . + @ #         ",
"                                                                              $ % & * = -       ",
"                                                                            ; > , ' ) ! ~ {     ",
"                      ] ^ /                                               ; > , ' = ( _ : < [   ",
"                } | 1 2 2 2 2 3 4                                       ; > , ' = ( _ : 5 = 6   ",
"                7 8 9 8 0 a 2 2 2 0                                   ; > , ' = ( _ : b = c d   ",
"                  e f g g 9 h a 2 2 i                               ; > , ' = ( _ : b = c j k   ",
"                      l m g g 9 n 2 2 o                           ; > , ' = ( _ : b = c p q     ",
"                        r m s g 9 3 2 2 t                       ; > , ' = ( _ : b = c p u       ",
"                          v w m g 9 x 2 a                     ; > , ' = ( _ : b = c y u         ",
"                          z A w m g 9 B 2                   ; > , ' = ( _ : b = c y u           ",
"                          C D A w s 9 E 2 7               ; > , ' = ( _ : b = c y u             ",
"                          A F G H m g 9 2 I             ; > , ' = ( _ : b = c J u               ",
"      K L               M N O P A w g 9 a Q           ; > , ' = ( _ : b = c J u                 ",
"        R 1 S T       U V W M F G X s 9 3 W         ; Y , ' = ( _ : b = c J u                   ",
"        H Z Z ` m  ...+.@.#.z $.%.&.*.w E =.-.    $ Y , ' = ( _ : b = c J u                     ",
"        *.;.>.>.>.,.M '.@.#.z ).!.e ~.{.9 2 0     ]., ' = ( _ : b = c J u                       ",
"          ^.3 3 P /.(._.@.W W :.<.-.[.}.0 2 2 ).|.1.' = ( _ : b = c J u                         ",
"            2.m 3./._./.V +.N 4.5.6.7.D n 2 2 8.9.0.) a._ : b = c b.u                           ",
"              ..N /.@.V W z O F / :.(.c.d.e.f.g.h.i.j._ : b = c b.u                             ",
"                k.l.m.V +.N @.@.A A g n.o.p.q.r.s.t.u.: b = c b.u                               ",
"                    v.w.x.y.z.A.B.).w C.D.E.F.= G.H.I.J.= c K.L.                                ",
"                      M.X N.      O.P.W Q.R.= S.T.U.V.) W.X.Y.                                  ",
"                      Z.~.`.           +.+++@+T.#+J.= $+%+&+*+                                  ",
"                                        =+-+;+>+,+= '+)+!+~+{+]+                                ",
"                                      ^+;./+(+_+:+c <+[+}+|+1+2+3+                              ",
"                                    4+;./+7 5+6+7+8+9+0+a+b+c+d+e+f+                            ",
"                                  4+;./+g+h+    i+j+k+l+m+n+o+p+q+r+s+t+                        ",
"                                4+;./+g+h+        u+v+w+x+y+z+A+B+C+D+E+F+                      ",
"                              4+;./+g+h+            G+H+I+J+K+L+M+N+O+~+P+Q+                    ",
"                            4+;./+g+h+                G+R+S+J+T+U+V+W+X+Y+Z+`+                  ",
"                          4+;./+g+h+                     @R+.@+@@@#@$@%@&@*@=@-@                ",
"                        4+;./+g+h+                        ;@>@,@'@)@!@~@{@]@^@/@(@_@            ",
"                      4+;./+g+h+                            ;@:@<@[@)@}@|@1@2@3@4@5@6@          ",
"                    4+;./+g+h+                                7@:@8@9@0@a@b@c@d@e@f@~@g@        ",
"                  4+;./+g+h+                                    h@:@i@j@0@k@l@m@n@o@p@q@r@      ",
"                4+;./+g+h+                                        s@t@u@v@w@x@y@z@A@B@~+C@D@    ",
"              4+;./+g+h+                                            E@F@G@H@I@J@      K@D+L@    ",
"            M@;./+g+h+                                                N@F@F@O@P@      Q@R@S@    ",
"        M.E 0 /+g+h+                                                    T@U@F@V@      W@X@Y@    ",
"      Z@m `@w w  #                                                        .#U@t@+#@###$#%#      ",
"      $.F $.$.z !.                                                          &#U@:@H+*#=#-#      ",
"    ;##.V V X >#                                                              ,#'#7@)#          ",
"    _.(.,.!#K                                                                                   ",
"    ~#l.{#]#                                                                                    ",
"      ^#                                                                                        ",
"                                                                                                "};
