/* XPM */
static char * run_xpm[] = {
"48 60 55 1",
" 	c None",
".	c #000000",
"+	c #FFFFFF",
"@	c #D3D3D3",
"#	c #969296",
"$	c #868286",
"%	c #616161",
"&	c #515151",
"*	c #282828",
"=	c #8E8A8E",
"-	c #696969",
";	c #303030",
">	c #202020",
",	c #414141",
"'	c #494949",
")	c #080808",
"!	c #383838",
"~	c #BEBABE",
"{	c #FFFBFF",
"]	c #EFEBEF",
"^	c #DFDBDF",
"/	c #595959",
"(	c #717171",
"_	c #9E9A9E",
":	c #797979",
"<	c #E7E3E7",
"[	c #101010",
"}	c #B6B2B6",
"|	c #515159",
"1	c #A6A2A6",
"2	c #868A8E",
"3	c #797179",
"4	c #F7F3F7",
"5	c #CFCBCF",
"6	c #413841",
"7	c #C7C3C7",
"8	c #DFD3D7",
"9	c #596161",
"0	c #181818",
"a	c #384141",
"b	c #202828",
"c	c #283028",
"d	c #303028",
"e	c #414941",
"f	c #494941",
"g	c #716971",
"h	c #515149",
"i	c #202820",
"j	c #697171",
"k	c #383830",
"l	c #494951",
"m	c #867979",
"n	c #413838",
"o	c #302828",
"p	c #202028",
"................................................",
"................................................",
".....++++++............++++.........++..++..++..",
"..........+...........++..++........++..++..++..",
"..........+....++....++....+..+++...++..++..++..",
".......++++....++....++......++.++..++..++..++..",
"..........+..........++..+++.++.++..+@..+@..+@..",
"..........+..........++...++.++.++..+@..+@..+@..",
"..........+....++.....++..++.++.++..............",
"......+++++....++......+++.+..+++...++..++..++..",
"................................................",
"................................................",
"                                                ",
"                                    #$%&*=      ",
"                              $-&;*.>,%' *#     ",
"                       =$&'*).!,,$~{]^=-$/*(    ",
"                _$%&*>.>>:=~< ==$:#-/;>[)[.'    ",
"          $(&,*.[,(:$$$=(}__--|;*>= ^,...;.*    ",
"    $&'*[.,',/-(=_12=/!,;34^]>...>]{^....5,>    ",
"   =.)( _ 1$/'&6*%78~....^{{$...._{{(...={&.    ",
"   _;.9- }5~>..[._{{;...%{{][...,{{][..>{{$._   ",
"   8~>%{{{{,..[.,{{$...[]{{%....~{{_...$~~%.$   ",
"   5%.,{{{ ....[^{5....${{5....&~ $[....**'-    ",
"   ~$)[{{]>..[.=]{;...>_5=,....)*;&&$$          ",
"     *.{{$..[.*~~%.....>*,&-$#                  ",
"    ~..=_..>[.)**&&$$_                          ",
"    =>>.....)'&($_                              ",
"    7;>[[.!&,,;*;*0a*&&$$                       ",
"   _50!,$>>b!,//%-(($3-9&,!,;&%$=               ",
"   =^0!${(....(~#&;;'&(($=_ ~1_:,.[*,&-$_       ",
"    &0;~{][...&{{~....(}_(;,&-2#1}}1_(-!c.>'    ",
"    ,,>^{{$....]{{,...>{{{>...> _$:&%=_}~<}>(   ",
"    &..>,($[...={{~.... {{_....5{{{;..._1$$[;   ",
"    ,))>00[))..[$=~;...,{{][...%{{{_...${{{,.   ",
"    ,:>&,,!;d>>0[[)....._~{$....^{{][..[{{{[*   ",
"    !-*&&'&'''',&'**>>0[[)......${{{$..._{^.;   ",
"   =/,!&'9//'%'':%,,,,!;;**>00[)).>,%...>{ .&   ",
"   $%,,''/&%(=&e:',,&,,,,,,,!;;**>>0[[)..;>.(   ",
"   &:0'''''&%''/-e,/$(/,',,!'!!!!!;;;***>>[,_   ",
"   '(*''::(%|f,-9,,-&&-g'/-'=/!!!!!;;;;;;;.     ",
"   h-[''''/-($$=-/&,,,,,''!!,:'%(%;;;;;;;i>     ",
"   ;/>''''f,,,,$&%j$$:-/&!!!!!!!';;;;;;;;0'     ",
"  #!,;'''&&&,,,#f,,,,,&%-:::%&'kk;;;;;;;;[-     ",
"  $&!!'''/%$%,'$,,,,!!!!!!!!l%-::(%&,;;;d)=     ",
"  &'*''''%%$&,9-,,&#&,/-!!!!!;;;;!'/-:&d*.      ",
"  ,%*f,,,,,,,,-/,'$((m=%%&,;;;;;;;;;;;d*>*      ",
"  ;/b,,-$$(-/&:&n!!!!,/n/(:!$3!;;;;;;o**[&      ",
"  d&*,,,,,'&%j=/:-/&!!!!!!!!'%%';;;;d***)(      ",
" _;,;,,,,,,,,,(,,&%%:::%/'!;;;,!;;;;;;**.#      ",
" $;;;,,,&',,,!-,!!!!!!;'/%(::-/';d*****i)       ",
" %;>,,,,$%$h!&/!!!!!!;;;;;;;;,l%(::-%;*0;       ",
" ([[,,,,,'&!!%,!!!!!;;;;;;;;;;d****!,;*[&       ",
"  .[,,,,,!!!!'!!!!;;;;;;;;;;;d*******bp)$       ",
"  ,[*o!n!!!!!!!!!;;;;;;;;;;;o*******pp>._       ",
"  _&;*).)[00**!!;;;;;;;;;;d********p>>>>        ",
"        =$&&**..))00>*;;;d*******bp>>>[,        ",
"                $$&&*>..))[0>>**bp>>>>[%        ",
"                       _$(&'*>..))[[0>)$        ",
"                               _$-&,*[)         ",
"                                                "};
