/* XPM */
static char * run_xpm[] = {
"48 60 88 1",
" 	c None",
".	c #000000",
"+	c #2E2E2E",
"@	c #C6C6C6",
"#	c #F9F9F9",
"$	c #C5C5C5",
"%	c #1E1E1E",
"&	c #040404",
"*	c #FAFAFA",
"=	c #FDFDFD",
"-	c #0A0A0A",
";	c #848484",
">	c #FFFFFF",
",	c #FEFEFE",
"'	c #E6E6E6",
")	c #808080",
"!	c #D7D7D7",
"~	c #373737",
"{	c #3D3D3D",
"]	c #8C8C8C",
"^	c #252525",
"/	c #D8D8D8",
"(	c #323232",
"_	c #E1E1E1",
":	c #EFEFEF",
"<	c #5A5A5A",
"[	c #070707",
"}	c #F6F6F6",
"|	c #101010",
"1	c #A2A2A2",
"2	c #F4F4F4",
"3	c #E7E7E7",
"4	c #585858",
"5	c #121212",
"6	c #C0C0C0",
"7	c #F1F1F1",
"8	c #737373",
"9	c #050505",
"0	c #F0F0F0",
"a	c #C3C3C3",
"b	c #1B1B1B",
"c	c #404040",
"d	c #BABABA",
"e	c #6B6B6B",
"f	c #888888",
"g	c #747474",
"h	c #9C9C9C",
"i	c #4D4D4D",
"j	c #EEEEEE",
"k	c #EAEAEA",
"l	c #2A2A2A",
"m	c #010101",
"n	c #515151",
"o	c #F2F2F2",
"p	c #BFBFBF",
"q	c #444444",
"r	c #EBEBEB",
"s	c #5C5C5C",
"t	c #AEAEAE",
"u	c #151515",
"v	c #0C0C0C",
"w	c #F8F8F8",
"x	c #7D7D7D",
"y	c #505050",
"z	c #080808",
"A	c #4A4A4A",
"B	c #CCCCCC",
"C	c #202020",
"D	c #929292",
"E	c #878787",
"F	c #090909",
"G	c #313131",
"H	c #C2C2C2",
"I	c #9B9B9B",
"J	c #171717",
"K	c #B5B5B5",
"L	c #FBFBFB",
"M	c #222222",
"N	c #686868",
"O	c #EDEDED",
"P	c #A5A5A5",
"Q	c #C7C7C7",
"R	c #969696",
"S	c #E9E9E9",
"T	c #999999",
"U	c #0E0E0E",
"V	c #CACACA",
"W	c #3F3F3F",
"................................................",
"................................................",
"................................................",
"................................................",
".......+@#$%.&*=-..................;>,')........",
".......!>~{].^>/.....................(>_........",
".......:><.[_>>>}|12345>#678.......90>ab........",
".......cd>e..f>g.h>i>j~>kl>}........mn>6........",
".........>o..p>q.:>>>rs>tu>'.........v>w........",
".....xyzA>B..7>C.7>%..)>DE>;........F)>t........",
".....GH*3IJ..KL>MNO>7-P>Q7R9......0>,STU........",
"......................V>W.......................",
"......................j>b.......................",
"................................................",
"................................................",
"................................................",
"                                                ",
"                                                ",
"                                                ",
"                                                ",
"                                                ",
"                                                ",
"  ....                                          ",
"  .. ..                                         ",
"  .. ..  .... ...    .... ...    ...   ...      ",
" ... ..  ..  .. ..  ...  .. ..  ..    ..        ",
" .....  ...  .. ..  ..   .....   ...   ...      ",
" ..     ..   .. ..  ..   ..       ..    ..      ",
" ..     ..    ...    ...  ...  ....  ....       ",
"                                                ",
"                                                ",
"                                                ",
"                                                ",
"                                                ",
"              ...                             ..",
"               ..                ..           ..",
"               ..                ..           ..",
"   ...  ...   ..    ...    ......... ...   .....",
"  ..   .. ..  ..   .. ..  ...   ..  .. .. ..... ",
"   ... .....  ..   .....  ..    ..  ..... .. .. ",
"    .. ..     ..   ..     ..    ..  ..    .. .. ",
" ....   ...   ....  ...    ...  ...  ...   .... ",
"                                                ",
"                                                ",
"                                                ",
"                                                ",
"                                                ",
"    ...  ..  ...                                ",
"   ..    ..   ..                                ",
"   ..         ..                                ",
"  .... ...   ..    ...    ...                   ",
"   ..   ..   ..   .. ..  ..                     ",
"   ..  ..    ..   .....   ...                   ",
"  ..   ..    ..   ..       ..                   ",
"  ..  .....  ....  ...  ....                    ",
"                                                ",
"                                                ",
"                                                ",
"                                                ",
"                                                "};
