/* XPM */
static char * run_xpm[] = {
"32 32 103 2",
"  	c None",
". 	c #0D3C07",
"+ 	c #0C3C06",
"@ 	c #0C3C08",
"# 	c #0F4508",
"$ 	c #196C0E",
"% 	c #0D3D07",
"& 	c #0D3D06",
"* 	c #13540B",
"= 	c #27A417",
"- 	c #27A116",
"; 	c #0D3C08",
"> 	c #13510A",
", 	c #29A917",
"' 	c #2AAF18",
") 	c #0D3D08",
"! 	c #0F4409",
"~ 	c #27A016",
"{ 	c #259B15",
"] 	c #0E3E07",
"^ 	c #218C13",
"/ 	c #155A0B",
"( 	c #0C3B07",
"_ 	c #0C3C07",
": 	c #1A710F",
"< 	c #208912",
"[ 	c #0E3D07",
"} 	c #13560A",
"| 	c #29AC17",
"1 	c #29AA17",
"2 	c #104A09",
"3 	c #18680D",
"4 	c #1C7810",
"5 	c #1B730F",
"6 	c #0C3D07",
"7 	c #155D0C",
"8 	c #0E3C07",
"9 	c #0E4108",
"0 	c #249615",
"a 	c #249515",
"b 	c #0D3C06",
"c 	c #155C0C",
"d 	c #2BAF19",
"e 	c #40B730",
"f 	c #218B13",
"g 	c #114D09",
"h 	c #196B0E",
"i 	c #BFE7B9",
"j 	c #ECF8EA",
"k 	c #8AD380",
"l 	c #1E7E11",
"m 	c #196A0E",
"n 	c #16600D",
"o 	c #ADE0A6",
"p 	c #FBFDFB",
"q 	c #C3E9BE",
"r 	c #229214",
"s 	c #208712",
"t 	c #0F4309",
"u 	c #2DAF1B",
"v 	c #83D079",
"w 	c #4BBB3B",
"x 	c #13520B",
"y 	c #2AAE18",
"z 	c #249714",
"A 	c #228E13",
"B 	c #208412",
"C 	c #196D0E",
"D 	c #27A216",
"E 	c #114809",
"F 	c #17640D",
"G 	c #29AD18",
"H 	c #0E3F08",
"I 	c #1E8011",
"J 	c #13550A",
"K 	c #269F16",
"L 	c #228D13",
"M 	c #259814",
"N 	c #17650E",
"O 	c #196F0F",
"P 	c #0D3B07",
"Q 	c #1C7910",
"R 	c #18690D",
"S 	c #26A116",
"T 	c #28A816",
"U 	c #1E7F11",
"V 	c #219011",
"W 	c #249813",
"X 	c #27A316",
"Y 	c #26A315",
"Z 	c #239613",
"` 	c #208C11",
" .	c #29AB18",
"..	c #1D7F11",
"+.	c #218F12",
"@.	c #208D11",
"#.	c #219112",
"$.	c #29AB17",
"%.	c #249B14",
"&.	c #26A215",
"*.	c #29A817",
"=.	c #114C09",
"-.	c #0E3C08",
"                                                                ",
"                                                                ",
"                                                                ",
"                                                                ",
"                                                                ",
"                                                      . +       ",
"                                                    . . . @     ",
"                                                  . . # $ %     ",
"                                                & . * = - .     ",
"                                              ; . > , ' $ )     ",
"                                            . . ! ~ ' { ]       ",
"                                            . % ^ ' ' / .       ",
"          ( . .                           _ . : ' ' < . [       ",
"        . . . . .                       . . } | ' 1 2 .         ",
"      _ % 3 ^ 4 .                     % . # - ' ' 5 . .         ",
"    6 % ^ ' ' ' 7 .                 8 . 9 0 ' ' a % .           ",
"    b c d e ' ' { %               . . % f ' ' 1 g . .           ",
"    . h i j k ' ' 7             . . . l ' ' ' m . .             ",
"    . n o p q ' ' r .         . . . h ' ' ' s . .               ",
"    8 t u v w ' ' ' x       . . . h y ' ' z 9 . _               ",
"      . A ' ' ' ' ' B . . . . . C y ' ' D E . .                 ",
"      . F ' ' ' ' ' G g . . H I ' ' ' 1 J . .                   ",
"      . ] K ' ' ' ' ' L # / M ' ' ' y N . .                     ",
"        . 3 ' ' ' ' ' ' ' ' ' ' ' ' O . . P                     ",
"        . ] ~ ' ' ' ' ' ' ' ' ' ' Q . . %                       ",
"          . R ' S ' ' ' ' 1 T ' U % . ;                         ",
"          8 % z V W X Y Z `  ...% . .                           ",
"            . > T +.` @.#.$.Q . . .                             ",
"              . R $.%.&.*.N . . .                               ",
"                . h D I =.. .                                   ",
"                  . . . . -.                                    ",
"                                                                "};
