/* XPM */
static char * run_xpm[] = {
"32 32 376 2",
"  	c None",
". 	c #8F9090",
"+ 	c #727272",
"@ 	c #858686",
"# 	c #7A7C7C",
"$ 	c #5A5B5B",
"% 	c #595959",
"& 	c #565656",
"* 	c #606060",
"= 	c #AFB2B2",
"- 	c #8D8E8F",
"; 	c #5E5E5E",
"> 	c #C5C7C8",
", 	c #B5B8B9",
"' 	c #909292",
") 	c #6C6C6C",
"! 	c #5A5A5A",
"~ 	c #555555",
"{ 	c #5D5E5E",
"] 	c #626262",
"^ 	c #7F92AA",
"/ 	c #7388A3",
"( 	c #738BAB",
"_ 	c #A5A7A8",
": 	c #E4E9EA",
"< 	c #AAAEAF",
"[ 	c #7186A0",
"} 	c #728CAF",
"| 	c #708199",
"1 	c #6F7E93",
"2 	c #718AAD",
"3 	c #718BB0",
"4 	c #708BAF",
"5 	c #818893",
"6 	c #E6EBEB",
"7 	c #E3E8E9",
"8 	c #DADFE0",
"9 	c #A3A6A6",
"0 	c #6D83A1",
"a 	c #6D89AE",
"b 	c #6D88AE",
"c 	c #6C87AD",
"d 	c #6E8CB3",
"e 	c #94A0AF",
"f 	c #5C5D5D",
"g 	c #A1A4A5",
"h 	c #263E65",
"i 	c #ACAFAF",
"j 	c #989B9E",
"k 	c #CED4D7",
"l 	c #E9EDEE",
"m 	c #EBEFEF",
"n 	c #A4A8AB",
"o 	c #6C727D",
"p 	c #9FA0A3",
"q 	c #A3A5A7",
"r 	c #53637A",
"s 	c #5D6979",
"t 	c #74797F",
"u 	c #676E77",
"v 	c #E5E9EB",
"w 	c #E2E7E8",
"x 	c #D9DEDF",
"y 	c #909394",
"z 	c #2A4E83",
"A 	c #204A87",
"B 	c #495D78",
"C 	c #53657F",
"D 	c #6B8EB7",
"E 	c #6E6E6F",
"F 	c #8898AD",
"G 	c #15305A",
"H 	c #9EA3A6",
"I 	c #E6EBEC",
"J 	c #F6F7F8",
"K 	c #FFFFFF",
"L 	c #EAECEC",
"M 	c #D8DDDE",
"N 	c #A7A8A9",
"O 	c #ABABAB",
"P 	c #B7B7B7",
"Q 	c #888888",
"R 	c #ACADAE",
"S 	c #C8CBCD",
"T 	c #E5E9EA",
"U 	c #DEE3E4",
"V 	c #D7DCDD",
"W 	c #CDD2D3",
"X 	c #9A9B9D",
"Y 	c #4D607C",
"Z 	c #4B5D78",
"` 	c #67696B",
" .	c #686869",
"..	c #6B6D6F",
"+.	c #97A1AA",
"@.	c #777878",
"#.	c #3E587C",
"$.	c #1A3359",
"%.	c #91959A",
"&.	c #FCFDFD",
"*.	c #F2F3F4",
"=.	c #BFC3C8",
"-.	c #DDDDDE",
";.	c #EDEDED",
">.	c #E6E7E9",
",.	c #C9C9C9",
"'.	c #BABABB",
").	c #E2E6E7",
"!.	c #DBE0E1",
"~.	c #D4D9DA",
"{.	c #BDC3C5",
"].	c #818282",
"^.	c #64676B",
"/.	c #696969",
"(.	c #696B6D",
"_.	c #72869E",
":.	c #616161",
"<.	c #B4B7B8",
"[.	c #20385B",
"}.	c #656B74",
"|.	c #F9F9F9",
"1.	c #FEFEFE",
"2.	c #FDFDFD",
"3.	c #F7F7F7",
"4.	c #FCFCFC",
"5.	c #F6F6F6",
"6.	c #E1E1E1",
"7.	c #DADDE0",
"8.	c #BFC3C5",
"9.	c #A2A6A7",
"0.	c #A9ADAE",
"a.	c #D0D4D5",
"b.	c #CACECF",
"c.	c #C3C7C8",
"d.	c #A3A6A7",
"e.	c #9DA0A2",
"f.	c #C5CBCF",
"g.	c #CBD1D5",
"h.	c #A1A6A8",
"i.	c #6A829B",
"j.	c #747676",
"k.	c #646464",
"l.	c #575757",
"m.	c #B3BEC9",
"n.	c #666A6E",
"o.	c #B9B9B9",
"p.	c #ECECEC",
"q.	c #FBFBFB",
"r.	c #DBDCDC",
"s.	c #B9BBBB",
"t.	c #A1A6A6",
"u.	c #979B9C",
"v.	c #989C9E",
"w.	c #999E9F",
"x.	c #C5CACB",
"y.	c #BFC5C7",
"z.	c #CCD1D3",
"A.	c #D7DCDE",
"B.	c #E1E6E7",
"C.	c #E9EEEF",
"D.	c #ECF1F2",
"E.	c #9EA0A1",
"F.	c #7C8187",
"G.	c #ECF0F1",
"H.	c #EFF3F4",
"I.	c #E7EBEC",
"J.	c #DBDEDF",
"K.	c #DBDFDF",
"L.	c #DCE0E0",
"M.	c #DDE0E1",
"N.	c #DDE1E2",
"O.	c #DEE1E2",
"P.	c #DEE2E3",
"Q.	c #DCDFE0",
"R.	c #E2E5E6",
"S.	c #DADDDE",
"T.	c #C2C6C7",
"U.	c #EEF3F5",
"V.	c #F5FAFB",
"W.	c #D9DEE0",
"X.	c #B4B9BC",
"Y.	c #5F5F5F",
"Z.	c #A9ABAC",
"`.	c #C1C4C5",
" +	c #C0C3C4",
".+	c #BFC2C3",
"++	c #BEC1C2",
"@+	c #BDC0C1",
"#+	c #BCBFC0",
"$+	c #B1B3B4",
"%+	c #A2A4A5",
"&+	c #EDF2F3",
"*+	c #F3F8F9",
"=+	c #B9BCBC",
"-+	c #A8ABAB",
";+	c #53565B",
">+	c #545454",
",+	c #5B5B5B",
"'+	c #B4B8B9",
")+	c #D6DBDD",
"!+	c #E0E5E6",
"~+	c #E7ECED",
"{+	c #CCD0D0",
"]+	c #585858",
"^+	c #214D8B",
"/+	c #769CCD",
"(+	c #457CC2",
"_+	c #3E76BE",
":+	c #3D74BB",
"<+	c #3D73BA",
"[+	c #3C72B6",
"}+	c #3B70B4",
"|+	c #3A6EB1",
"1+	c #396DB0",
"2+	c #386CAD",
"3+	c #376AAB",
"4+	c #3768A8",
"5+	c #3567A7",
"6+	c #3565A3",
"7+	c #33639F",
"8+	c #32609B",
"9+	c #305E98",
"0+	c #305D96",
"a+	c #2F5C95",
"b+	c #395E8E",
"c+	c #A5A8A9",
"d+	c #798088",
"e+	c #687686",
"f+	c #5D6D82",
"g+	c #4F6786",
"h+	c #5576A0",
"i+	c #214C89",
"j+	c #234D8B",
"k+	c #7096C9",
"l+	c #497FC3",
"m+	c #3F77BF",
"n+	c #3E75BD",
"o+	c #3E75BB",
"p+	c #3D74BA",
"q+	c #3D73B9",
"r+	c #3C72B8",
"s+	c #3C72B7",
"t+	c #3B71B6",
"u+	c #3B70B5",
"v+	c #3A6FB4",
"w+	c #3A6FB2",
"x+	c #396EB1",
"y+	c #386CAF",
"z+	c #376BAC",
"A+	c #3669AA",
"B+	c #3767A4",
"C+	c #878889",
"D+	c #446590",
"E+	c #31619C",
"F+	c #305E99",
"G+	c #456DA0",
"H+	c #5476A3",
"I+	c #234E8D",
"J+	c #6A91C4",
"K+	c #4E82C4",
"L+	c #386CAE",
"M+	c #376BAD",
"N+	c #376AAC",
"O+	c #6D7277",
"P+	c #3E689F",
"Q+	c #3568A8",
"R+	c #507AB1",
"S+	c #5377AA",
"T+	c #1F4C89",
"U+	c #224D8A",
"V+	c #658CBF",
"W+	c #5285C6",
"X+	c #3C69A2",
"Y+	c #3668A9",
"Z+	c #567FB4",
"`+	c #4E73A7",
" @	c #204986",
".@	c #224B8A",
"+@	c #5E85BA",
"@@	c #5788C7",
"#@	c #5B82B6",
"$@	c #486FA2",
"%@	c #577EB4",
"&@	c #5B8CC9",
"*@	c #5F86B8",
"=@	c #41689E",
"-@	c #5079AF",
";@	c #5F8ECA",
">@	c #648ABA",
",@	c #3B6299",
"'@	c #4B72A9",
")@	c #6391CC",
"!@	c #698DBD",
"~@	c #345A94",
"{@	c #426AA2",
"]@	c #6694CD",
"^@	c #6E91BF",
"/@	c #2D568F",
"(@	c #3A639B",
"_@	c #6895CD",
":@	c #7294C1",
"<@	c #274F8B",
"[@	c #335B94",
"}@	c #6995CD",
"|@	c #7495C1",
"1@	c #204988",
"2@	c #2B548E",
"3@	c #6996CE",
"4@	c #3869A8",
"5@	c #6D90BD",
"6@	c #204B87",
"7@	c #264E8A",
"8@	c #6996CD",
"9@	c #3C6CAA",
"0@	c #6488B8",
"a@	c #204C89",
"b@	c #224C89",
"c@	c #6793CA",
"d@	c #406FAB",
"e@	c #5B80B2",
"f@	c #214C88",
"g@	c #214C8A",
"h@	c #608DC5",
"i@	c #4279C0",
"j@	c #4371AD",
"k@	c #5278AD",
"l@	c #214A86",
"m@	c #204A86",
"n@	c #4E7CB7",
"o@	c #4E81C4",
"p@	c #3F77BE",
"q@	c #3F76BD",
"r@	c #3F76BB",
"s@	c #3E75BA",
"t@	c #3E74B9",
"u@	c #3D73B8",
"v@	c #3D73B7",
"w@	c #3C71B5",
"x@	c #3B70B2",
"y@	c #3A6FB1",
"z@	c #3A6EB0",
"A@	c #396DAF",
"B@	c #396DAE",
"C@	c #386BAC",
"D@	c #376AAA",
"E@	c #3769A9",
"F@	c #396BAA",
"G@	c #537DB4",
"H@	c #446BA3",
"I@	c #1D427B",
"J@	c #2E5893",
"K@	c #5382BF",
"L@	c #5C8AC7",
"M@	c #5C8AC6",
"N@	c #5D8AC4",
"O@	c #5C89C3",
"P@	c #5C88C3",
"Q@	c #5C88C2",
"R@	c #5C88C1",
"S@	c #5C87C0",
"T@	c #5C88BF",
"U@	c #5C88BE",
"V@	c #5C87BD",
"W@	c #5C87BC",
"X@	c #5C86BD",
"Y@	c #5C86BC",
"Z@	c #5C86BB",
"`@	c #5C85BB",
" #	c #5C85B9",
".#	c #5C84B9",
"+#	c #5B84B7",
"@#	c #4972A9",
"##	c #26518B",
"$#	c #1C4278",
"%#	c #1F4680",
"&#	c #16335D",
"                                                                ",
"                  . +           @ #                             ",
"      $ % & & * = - & & & & & & ; > , ' ) ! ~ ~ ~ ~ ~ {         ",
"      ] ^ / ( _ : < [ } | 1 2 3 4 5 6 7 8 9 0 a b c d e f       ",
"    f g h i j k l m n o p q r s t u v w x y z A A B C D E       ",
"    % F G H I J K L M N O P Q N R S T U V W X Y Z `  ...+.;     ",
"    @.#.$.%.&.K K K *.=.-.;.>.,.'.).w !.~.W {.].^././.(._.:.    ",
"  ; <.[.}.|.1.K K K K 2.3.4.5.6.7.8.9.0.a.b.c.d.e.f.g.h.i.j.k.  ",
"  l.m.n.o.p.1.1.1.1.4.3.q.3.r.s.t.u.v.w.x.c.y.z.A.B.C.D.E.F.l.  ",
"  ~ G.H.I.J.K.L.M.N.O.P.P.O.N.M.Q.K.J.R.S.S.T.g 8 : U.V.W.X.Y.  ",
"  l.Z.`.`.`.`. + + +.+.+.+.+++++++@+@+@+@+#+$+%+W.: &+*+=+-+!   ",
"    ;+~ ~ ~ ~ ~ ~ ~ ~ ~ ~ ~ >+>+>+>+>+>+>+>+,+'+)+!+~+{+) ~ ]+  ",
"    ^+/+(+_+:+<+[+}+|+1+2+3+4+5+6+7+8+9+0+a+b+c+d+e+f+g+h+i+    ",
"    j+k+l+m+_+n+o+p+q+r+s+t+u+v+w+x+1+y+z+A+B+C+D+E+F+G+H+i+    ",
"    I+J+K+m+_+n+o+p+q+r+s+t+u+v+w+x+1+y+L+M+N+O+P+Q+5+R+S+T+    ",
"    U+V+W+m+_+n+o+p+q+r+s+t+u+v+w+x+1+y+L+M+N+X+Y+Q+5+Z+`+ @    ",
"    .@+@@@m+_+n+o+p+q+r+s+t+u+v+w+x+1+y+L+M+N+A+Y+Q+5+#@$@      ",
"    A %@&@m+_+n+o+p+q+r+s+t+u+v+w+x+1+y+L+M+N+A+Y+Q+5+*@=@      ",
"      -@;@m+_+n+o+p+q+r+s+t+u+v+w+x+1+y+L+M+N+A+Y+Q+5+>@,@      ",
"      '@)@m+_+n+o+p+q+r+s+t+u+v+w+x+1+y+L+M+N+A+Y+Q+5+!@~@      ",
"      {@]@m+_+n+o+p+q+r+s+t+u+v+w+x+1+y+L+M+N+A+Y+Q+5+^@/@      ",
"      (@_@m+_+n+o+p+q+r+s+t+u+v+w+x+1+y+L+M+N+A+Y+Q+5+:@<@      ",
"      [@}@m+_+n+o+p+q+r+s+t+u+v+w+x+1+y+L+M+N+A+Y+Q+5+|@1@      ",
"      2@3@m+_+n+o+p+q+r+s+t+u+v+w+x+1+y+L+M+N+A+Y+Q+4@5@6@      ",
"      7@8@m+_+n+o+p+q+r+s+t+u+v+w+x+1+y+L+M+N+A+Y+Q+9@0@a@      ",
"      b@c@m+_+n+o+p+q+r+s+t+u+v+w+x+1+y+L+M+N+A+Y+Q+d@e@f@      ",
"      g@h@i@_+n+o+p+q+r+s+t+u+v+w+x+1+y+L+M+N+A+Y+Q+j@k@l@      ",
"      m@n@o@p@q@r@s@t@u@v@[+w@}+x@y@z@A@B@2+C@D@E@F@G@H@I@      ",
"        J@K@L@M@N@O@P@Q@R@R@S@T@U@V@W@X@Y@Z@`@ #.#+#@###        ",
"        $#m@A A A A A A A A A A A A A A A A A A A A %#&#        ",
"                                                                ",
"                                                                "};
