/* XPM */
static char * run_xpm[] = {
"32 32 348 2",
"  	c None",
". 	c #565854",
"+ 	c #777875",
"@ 	c #969896",
"# 	c #555753",
"$ 	c #CFCFCE",
"% 	c #E2E2E0",
"& 	c #AFB0AD",
"* 	c #C7C8C6",
"= 	c #E1E1E0",
"- 	c #F8F8F8",
"; 	c #FCFCFB",
"> 	c #F7F7F7",
", 	c #969894",
"' 	c #AEAEAB",
") 	c #FBFBFB",
"! 	c #9FA09D",
"~ 	c #5C5E5A",
"{ 	c #C5C5C4",
"] 	c #2F3537",
"^ 	c #363B3D",
"/ 	c #343A3D",
"( 	c #939592",
"_ 	c #303739",
": 	c #919595",
"< 	c #D0D2D1",
"[ 	c #B9BBBB",
"} 	c #34393B",
"| 	c #303637",
"1 	c #343A3C",
"2 	c #363C3D",
"3 	c #3A4040",
"4 	c #EEEFEE",
"5 	c #E5E6E4",
"6 	c #E8E8E8",
"7 	c #3A4042",
"8 	c #424849",
"9 	c #EAEBEA",
"0 	c #C9CBCA",
"a 	c #424749",
"b 	c #2F3536",
"c 	c #CCCCCC",
"d 	c #C8CAC6",
"e 	c #D3D4D3",
"f 	c #7D8182",
"g 	c #393F40",
"h 	c #BBBDBC",
"i 	c #D7D8D7",
"j 	c #E6E7E6",
"k 	c #B2B4B3",
"l 	c #32393B",
"m 	c #3D4341",
"n 	c #414645",
"o 	c #545652",
"p 	c #33393B",
"q 	c #A9ABAA",
"r 	c #D3D4D2",
"s 	c #E2E3E1",
"t 	c #E7E8E6",
"u 	c #EBEBEA",
"v 	c #CACCC9",
"w 	c #CACBC9",
"x 	c #B4B7B2",
"y 	c #D9D9D9",
"z 	c #474B4D",
"A 	c #3B4142",
"B 	c #8D9090",
"C 	c #3C4141",
"D 	c #383D3E",
"E 	c #383D3F",
"F 	c #C8CAC9",
"G 	c #F4F4F3",
"H 	c #E0E1DF",
"I 	c #C3C5C1",
"J 	c #BEC0BB",
"K 	c #B9BCB6",
"L 	c #C4C7C1",
"M 	c #DADBD8",
"N 	c #E9EAE7",
"O 	c #CED0CC",
"P 	c #ABADAB",
"Q 	c #33383A",
"R 	c #353A3C",
"S 	c #B1B5B4",
"T 	c #F3F4F3",
"U 	c #DEDFDE",
"V 	c #939796",
"W 	c #D6D7D5",
"X 	c #B7B9B4",
"Y 	c #ABAEA8",
"Z 	c #ADB0AA",
"` 	c #AFB2AC",
" .	c #B1B4AD",
"..	c #B3B6AF",
"+.	c #B5B8B1",
"@.	c #BCBFB8",
"#.	c #DFE1DD",
"$.	c #D5D6D3",
"%.	c #404445",
"&.	c #F0F1F0",
"*.	c #DDDFDB",
"=.	c #C3C6C1",
"-.	c #D3D3D2",
";.	c #B3B5B0",
">.	c #ACAFA9",
",.	c #AEB1AB",
"'.	c #B0B3AD",
").	c #B2B5AF",
"!.	c #B4B7B1",
"~.	c #B6B9B2",
"{.	c #B8BBB4",
"].	c #BABDB6",
"^.	c #BEC1BA",
"/.	c #DBDCD8",
"(.	c #CFD0CD",
"_.	c #353B3C",
":.	c #333B3B",
"<.	c #373D3F",
"[.	c #313738",
"}.	c #353A3A",
"|.	c #515657",
"1.	c #CDCFCD",
"2.	c #CCCDCB",
"3.	c #F8F8F7",
"4.	c #AFB3AC",
"5.	c #BEC1BB",
"6.	c #CACDC8",
"7.	c #D0D2CE",
"8.	c #CCCFCA",
"9.	c #BFC2BC",
"0.	c #BDC1B9",
"a.	c #BFC2BB",
"b.	c #C3C7BF",
"c.	c #E0E1DE",
"d.	c #A5A9A6",
"e.	c #B0B1B0",
"f.	c #CFD0CF",
"g.	c #A2A5A5",
"h.	c #2E3436",
"i.	c #383E3F",
"j.	c #CBCCCA",
"k.	c #E4E5E3",
"l.	c #AFB2AB",
"m.	c #B4B7B0",
"n.	c #C8CAC5",
"o.	c #C2C5C0",
"p.	c #6F7372",
"q.	c #808482",
"r.	c #BABDB9",
"s.	c #E2E4E1",
"t.	c #C6CAC3",
"u.	c #C2C6BE",
"v.	c #C4C8C0",
"w.	c #D5D8D2",
"x.	c #CBCECA",
"y.	c #AAACA9",
"z.	c #C0C1BF",
"A.	c #CECFCE",
"B.	c #373D3E",
"C.	c #E3E4E2",
"D.	c #CBCDC8",
"E.	c #B2B5AE",
"F.	c #BDC0BC",
"G.	c #373D3D",
"H.	c #363A3D",
"I.	c #C6CAC6",
"J.	c #E3E5E1",
"K.	c #C5C9C1",
"L.	c #C7CBC3",
"M.	c #CDD1CA",
"N.	c #D9DBD6",
"O.	c #B4B5B3",
"P.	c #CBCBCA",
"Q.	c #B3B5B5",
"R.	c #323839",
"S.	c #EEEEED",
"T.	c #BDC0BA",
"U.	c #B7BAB3",
"V.	c #D4D6D2",
"W.	c #858987",
"X.	c #474D4E",
"Y.	c #C8CCC4",
"Z.	c #CACEC6",
"`.	c #CED2CA",
" +	c #DEE1DB",
".+	c #818484",
"++	c #3C4042",
"@+	c #343939",
"#+	c #303536",
"$+	c #4D5152",
"%+	c #C4C6C0",
"&+	c #DCDDDA",
"*+	c #707573",
"=+	c #575C5D",
"-+	c #FDFDFD",
";+	c #CDD1C9",
">+	c #CFD3CB",
",+	c #E1E3DF",
"'+	c #3F4547",
")+	c #888C8C",
"!+	c #C7C9C7",
"~+	c #CACDC7",
"{+	c #BBBEB7",
"]+	c #BDC0B9",
"^+	c #D8DAD6",
"/+	c #CCCECA",
"(+	c #353B3D",
"_+	c #343B3C",
":+	c #B5B7B5",
"<+	c #F3F4F2",
"[+	c #CFD2CB",
"}+	c #D0D4CC",
"|+	c #D5D8D1",
"1+	c #DCDFDA",
"2+	c #393E41",
"3+	c #373C3D",
"4+	c #BDBFBE",
"5+	c #D3D4D1",
"6+	c #B3B5B1",
"7+	c #D0D1CE",
"8+	c #DCDEDA",
"9+	c #BEC2BA",
"0+	c #C0C4BC",
"a+	c #C8CBC4",
"b+	c #EFF1EE",
"c+	c #C3C5C2",
"d+	c #616565",
"e+	c #434849",
"f+	c #C2C4C1",
"g+	c #FBFBFA",
"h+	c #DBDED7",
"i+	c #D2D6CE",
"j+	c #D3D7CF",
"k+	c #DADED7",
"l+	c #C7CAC5",
"m+	c #2F3336",
"n+	c #858888",
"o+	c #DCDDDB",
"p+	c #BFC1BF",
"q+	c #A9ACA9",
"r+	c #EAEBE9",
"s+	c #CED2CB",
"t+	c #EEF0ED",
"u+	c #FEFEFE",
"v+	c #DBDFD8",
"w+	c #D4D7D0",
"x+	c #B4B6B2",
"y+	c #A3A5A3",
"z+	c #444A4A",
"A+	c #323639",
"B+	c #393E40",
"C+	c #383F3F",
"D+	c #C9CBC9",
"E+	c #E0E2DF",
"F+	c #CCD0C8",
"G+	c #D1D5CD",
"H+	c #DCDFD9",
"I+	c #90918D",
"J+	c #ABADAA",
"K+	c #C5C6C5",
"L+	c #3D4446",
"M+	c #989996",
"N+	c #838683",
"O+	c #767774",
"P+	c #3D4244",
"Q+	c #D5D7D4",
"R+	c #E2E5E1",
"S+	c #CED1CA",
"T+	c #D0D3CD",
"U+	c #878987",
"V+	c #B1B2B0",
"W+	c #BEBFBD",
"X+	c #B3B5B3",
"Y+	c #343A3A",
"Z+	c #BABDB7",
"`+	c #C9CDC6",
" @	c #A8AAA5",
".@	c #C0C2BF",
"+@	c #303537",
"@@	c #707373",
"#@	c #CCCFCB",
"$@	c #E5E8E4",
"%@	c #DDE0DA",
"&@	c #D6DAD3",
"*@	c #D4D8D0",
"=@	c #D5D9D2",
"-@	c #DADDD6",
";@	c #CACDC9",
">@	c #4A4E50",
",@	c #3A4041",
"'@	c #838787",
")@	c #474C4D",
"!@	c #C9CCC5",
"~@	c #F7F7F6",
"{@	c #EBEDEA",
"]@	c #535551",
"^@	c #AFB1AF",
"/@	c #A0A19D",
"(@	c #B3B5B2",
"_@	c #C8CBC7",
":@	c #E4E6E1",
"<@	c #D8DBD5",
"[@	c #C6C8C3",
"}@	c #A0A3A1",
"|@	c #2D3133",
"1@	c #2C3234",
"2@	c #A6A8A3",
"3@	c #F6F7F5",
"4@	c #91938E",
"5@	c #5A5C58",
"6@	c #A5A7A2",
"7@	c #393E3E",
"8@	c #666A6C",
"9@	c #CBCDCA",
"0@	c #ACADAC",
"a@	c #383E3E",
"b@	c #3C4345",
"c@	c #585C5D",
"d@	c #A8A9A7",
"e@	c #8F928D",
"f@	c #9FA19F",
"g@	c #353A3B",
"h@	c #BFC0BD",
"i@	c #35393A",
"j@	c #3D4143",
"k@	c #A4A6A5",
"l@	c #C8C9C8",
"m@	c #1E2424",
"n@	c #353A3D",
"o@	c #A7A9A7",
"p@	c #A7A9A6",
"q@	c #B8B8B7",
"r@	c #939591",
"s@	c #90928D",
"t@	c #8D8E8B",
"u@	c #34393A",
"v@	c #3B4143",
"w@	c #2A3032",
"x@	c #808483",
"y@	c #AEB0AE",
"z@	c #8B8D8C",
"A@	c #2F3436",
"B@	c #343B3B",
"C@	c #2A3133",
"D@	c #BFC1BE",
"E@	c #878985",
"F@	c #232422",
"G@	c #868884",
"                                                                ",
"          . + @   @ + .                                         ",
"        # $ % & * & % $ #                                       ",
"        + = - ; > ; - = +                                       ",
"        , ' ) ! ~ ! ) ' ,                                       ",
"          { > #   # > {     ] ^ /                               ",
"        , ' ) ! ~ ! ) ' ( _ : < [ }       | 1 2                 ",
"        + = - ; > ; - = + 3 4 5 6 7       8 9 0 a b             ",
"        # $ % & * & % $ # 3 c d e f 2 g 2 h i j k l             ",
"          . + @ m n o .   p q r s t u s v w x y z               ",
"                A B C D E F G H I J K L M N O P Q               ",
"              R S T U V W 4 X Y Z `  ...+.@.#.$.%.              ",
"              R &.*.=.-.T ;.>.,.'.).!.~.{.].^./.(._.:.<.[.      ",
"              }.|.1.2.3.K Z 4.).5.6.7.8.9.0.a.b.c.d.e.f.g.h.    ",
"                  i.j.k.l. .m.n.o.p.q.r.s.t.u.v.w.x.y.z.A.D     ",
"                  B.C.D.E.m.L F.G.    H.I.J.K.L.M.N.O.P.Q.R.    ",
"                  B.S.T.+.U.V.W.        X.3.Y.Z.`. +.+++@+      ",
"              #+E $+t %+{.].&+*+        =+-+M.;+>+,+'+          ",
"            Q )+!+w H ~+{+]+^+/+(+    _+:+<+[+}+|+1+2+          ",
"            3+4+5+6+7+8+9+0+a+b+c+d+e+f+g+h+i+j+k+l+_+          ",
"            m+n+o+p+q+r+t.b.K.s+t+-+u+G v+j+j+w+ +x+y+z+A+      ",
"              1 B+C+p D+E+a+Y.Z.F+>+G+i+j+j+j+H+n.I+J+K+L+      ",
"      # + M+  N+O+#   P+Q+R+S+;+>+G+j+j+j+w+h+T+U+V+W+X+Y+      ",
"    # Z+`+ @.@ @`+Z+# +@@@#@$@%@&@j+*@=@-@ +;@>@h.,@'@)@        ",
"    + !@t+~@{@~@t+!@]@2 ^@/@(@_@*.:@#.<@[@}@p       |@1@        ",
"    , 2@3@4@5@4@3@6@7@8@9@& 0@a@3+b@c@d@e@f@g@                  ",
"      h@{@#   # {@h@i@j@k@l@|.m@    n@o@p@q@(+                  ",
"    r@2@3@4@5@s@3@6@t@  u@v@+@      w@x@y@z@(+                  ",
"    + !@t+~@{@~@t+!@+                 A@B@C@                    ",
"    # Z+`+2@D@2@`+Z+#                                           ",
"      # # E@F@G@+ #                                             ",
"                                                                "};
