/* XPM */
static char * run_fr_xpm[] = {
"48 60 84 1",
" 	c None",
".	c #000000",
"+	c #121212",
"@	c #FFFFFF",
"#	c #DCDCDC",
"$	c #040404",
"%	c #FAFAFA",
"&	c #FDFDFD",
"*	c #0A0A0A",
"=	c #848484",
"-	c #FEFEFE",
";	c #E6E6E6",
">	c #808080",
",	c #373737",
"'	c #CDCDCD",
")	c #252525",
"!	c #D8D8D8",
"~	c #323232",
"{	c #E1E1E1",
"]	c #5C5C5C",
"^	c #A7A7A7",
"/	c #F6F6F6",
"(	c #030303",
"_	c #868686",
":	c #F7F7F7",
"<	c #8E8E8E",
"[	c #F9F9F9",
"}	c #C0C0C0",
"|	c #F1F1F1",
"1	c #737373",
"2	c #0D0D0D",
"3	c #A2A2A2",
"4	c #F4F4F4",
"5	c #E7E7E7",
"6	c #585858",
"7	c #050505",
"8	c #F0F0F0",
"9	c #C3C3C3",
"0	c #1B1B1B",
"a	c #EFEFEF",
"b	c #020202",
"c	c #888888",
"d	c #747474",
"e	c #090909",
"f	c #EAEAEA",
"g	c #2A2A2A",
"h	c #9C9C9C",
"i	c #4D4D4D",
"j	c #EEEEEE",
"k	c #010101",
"l	c #515151",
"m	c #A5A5A5",
"n	c #5F5F5F",
"o	c #BFBFBF",
"p	c #444444",
"q	c #5D5D5D",
"r	c #DEDEDE",
"s	c #C7C7C7",
"t	c #AEAEAE",
"u	c #151515",
"v	c #EBEBEB",
"w	c #0C0C0C",
"x	c #F8F8F8",
"y	c #C9C9C9",
"z	c #3D3D3D",
"A	c #202020",
"B	c #F3F3F3",
"C	c #929292",
"D	c #878787",
"E	c #1E1E1E",
"F	c #979797",
"G	c #B5B5B5",
"H	c #FBFBFB",
"I	c #222222",
"J	c #A9A9A9",
"K	c #1F1F1F",
"L	c #969696",
"M	c #686868",
"N	c #EDEDED",
"O	c #E9E9E9",
"P	c #999999",
"Q	c #0E0E0E",
"R	c #CACACA",
"S	c #3F3F3F",
"................................................",
"................................................",
"................................................",
"................................................",
"....+@@@@#.$%&*........................=@-;>....",
"....,@'....)@!...........................~@{....",
"....]@^...{@@@/(_@:<+@[}|123456........78@90....",
"....>@@@ab.c@d...e@/,@fg@/h@i@j.........kl@}....",
"....m@n....o@p.qr&@s]@tu@;a@@@v..........w@x....",
"....y@z....|@A.B]^@1>@CD@=|@E...........e>@t....",
"....j@@@F..GH@IJ5-@Km@s|L7MN@|*.......8@-OPQ....",
"....................R@S.........................",
"....................j@0.........................",
"................................................",
"................................................",
"................................................",
"                                                ",
"                                                ",
"                                                ",
"                                                ",
"                                                ",
"                                                ",
"                     ..                         ",
" ......              ..   ..                    ",
"   ..                     ..                    ",
"   ..   .... ....  ...  ..... ...    ....       ",
"   ..   ..     ..   ..   ..  .. ..   ..         ",
"  ..   ...   ....  ..    ..  .....  ...         ",
"  ..   ..   . ..   ..    ..  ..     ..          ",
"  ..   ..   ....  .....  ...  ...   ..          ",
"                                                ",
"                                                ",
"                                                ",
"                                                ",
"                                                ",
"  ...                                           ",
"   ..                                           ",
"   ..                                           ",
"  ..    ...    ...                              ",
"  ..   .. ..  ..                                ",
"  ..   .....   ...                              ",
"  ..   ..       ..                              ",
"  ....  ...  ....                               ",
"                                                ",
"                                                ",
"                                                ",
"                                                ",
"                                                ",
"    ...  ..        ..      ..                   ",
"   ..    ..        ..      ..                   ",
"   ..              ..                           ",
"  .... ...    .... ....  ...   ...    ....  ... ",
"   ..   ..   ...   .. .   ..  .. ..   ..   ..   ",
"   ..  ..    ..   ... .  ..   .....  ...    ... ",
"  ..   ..    ..   .. .   ..   ..     ..      .. ",
"  ..  .....   ... .. .  .....  ...   ..   ....  ",
"                                                ",
"                                                ",
"                                                ",
"                                                "};
