/* XPM */
static char * scan_xpm[] = {
"48 60 210 2",
"  	c None",
". 	c #000000",
"+ 	c #FFFFFF",
"@ 	c #5A76D3",
"# 	c #2E50B3",
"$ 	c #3D3BC2",
"% 	c #2E50C2",
"& 	c #6884D3",
"* 	c #4C84BD",
"= 	c #0B008A",
"- 	c #5A84C8",
"; 	c #5A84D3",
"> 	c #2050A1",
", 	c #0B17A2",
"' 	c #3D50C2",
") 	c #2E3BA1",
"! 	c #203BA1",
"~ 	c #B7CEF2",
"{ 	c #80A7D8",
"] 	c #80A7DF",
"^ 	c #88A7D8",
"/ 	c #5A76BD",
"( 	c #2E50A1",
"_ 	c #1817A2",
": 	c #4C50D1",
"< 	c #00176F",
"[ 	c #4C76C8",
"} 	c #4C84C8",
"| 	c #2050D1",
"1 	c #2063C2",
"2 	c #0017B7",
"3 	c #2E63D1",
"4 	c #80A7E5",
"5 	c #5A76C8",
"6 	c #3D63C2",
"7 	c #20508D",
"8 	c #0B006F",
"9 	c #0017A2",
"0 	c #4C84D3",
"a 	c #2050B3",
"b 	c #2E63C2",
"c 	c #0B30B7",
"d 	c #5A91D3",
"e 	c #88A7DF",
"f 	c #4C76BD",
"g 	c #2E3BB3",
"h 	c #4C76D1",
"i 	c #00178A",
"j 	c #B1CEF2",
"k 	c #80B7E5",
"l 	c #4C91DC",
"m 	c #4C91D3",
"n 	c #80AFEA",
"o 	c #80AFDF",
"p 	c #0B49B7",
"q 	c #6891E5",
"r 	c #80AFE5",
"s 	c #4C63D1",
"t 	c #00006F",
"u 	c #2076D1",
"v 	c #2076E6",
"w 	c #0049C9",
"x 	c #0B49C9",
"y 	c #2076DC",
"z 	c #2E76DC",
"A 	c #5A91DC",
"B 	c #2063B3",
"C 	c #2E508D",
"D 	c #0049A2",
"E 	c #2063D1",
"F 	c #0061C9",
"G 	c #2E76E6",
"H 	c #4C9EDC",
"I 	c #2E76D1",
"J 	c #1817B7",
"K 	c #2E63B3",
"L 	c #00308A",
"M 	c #0030A2",
"N 	c #4C9EEC",
"O 	c #88B7EA",
"P 	c #2E87E6",
"Q 	c #88AFE5",
"R 	c #18008A",
"S 	c #0077D9",
"T 	c #2098F6",
"U 	c #2098E6",
"V 	c #0061D9",
"W 	c #2E98F6",
"X 	c #4CAAE5",
"Y 	c #2063A1",
"Z 	c #0061E5",
"` 	c #2E3B8D",
" .	c #2076C2",
"..	c #4C91C8",
"+.	c #2087C2",
"@.	c #0B61D9",
"#.	c #2EA7EF",
"$.	c #80AFD8",
"%.	c #5A91E5",
"&.	c #4C76B0",
"*.	c #1800A2",
"=.	c #00498A",
"-.	c #80C0E5",
";.	c #5AAADC",
">.	c #5AB5E5",
",.	c #5AC9F2",
"'.	c #5AC0E5",
").	c #80B7DF",
"!.	c #4CAAEC",
"~.	c #2050C2",
"{.	c #B1CEEF",
"].	c #2076B3",
"^.	c #2E87D1",
"/.	c #0BC0EF",
"(.	c #3DCDFB",
"_.	c #0BB0E5",
":.	c #189FE5",
"<.	c #3DCDF6",
"[.	c #88C0EA",
"}.	c #0077E5",
"|.	c #4C91BD",
"1.	c #0B30A2",
"2.	c #3D3BB3",
"3.	c #0B8BB7",
"4.	c #2E98D1",
"5.	c #20A7EF",
"6.	c #80B7EA",
"7.	c #4C9EE5",
"8.	c #0B176F",
"9.	c #4C84B0",
"0.	c #203BB3",
"a.	c #2087B3",
"b.	c #2E87C2",
"c.	c #2E98DC",
"d.	c #0B61E5",
"e.	c #0B49D9",
"f.	c #B1D3EF",
"g.	c #0049B7",
"h.	c #0B61A2",
"i.	c #4C9ED3",
"j.	c #4C9EC8",
"k.	c #18C0F7",
"l.	c #4CC0E5",
"m.	c #0B00A2",
"n.	c #0030B7",
"o.	c #2E87B3",
"p.	c #B1D3F2",
"q.	c #2ED9FB",
"r.	c #5AAAE5",
"s.	c #2E76B3",
"t.	c #68D3F7",
"u.	c #0BDBFD",
"v.	c #80C7EA",
"w.	c #0077EF",
"x.	c #4C91E5",
"y.	c #2087D1",
"z.	c #2076A1",
"A.	c #2EC2EF",
"B.	c #3DD9FB",
"C.	c #3DC2F6",
"D.	c #5AAAD3",
"E.	c #2087E6",
"F.	c #2098EF",
"G.	c #B1D3F4",
"H.	c #2063DC",
"I.	c #2E3BC2",
"J.	c #5A9ED3",
"K.	c #4CAAD3",
"L.	c #008BE5",
"M.	c #2E76C2",
"N.	c #4CB5EC",
"O.	c #20A7F6",
"P.	c #0049D9",
"Q.	c #2EA7DC",
"R.	c #2EA7E6",
"S.	c #2EA7D1",
"T.	c #00618A",
"U.	c #0B8BF7",
"V.	c #2087DC",
"W.	c #203B8D",
"X.	c #2EB5DC",
"Y.	c #4C76D3",
"Z.	c #20A7D1",
"`.	c #0061A2",
" +	c #B1CEF4",
".+	c #0B61B7",
"++	c #5AB5DC",
"@+	c #2E98E6",
"#+	c #0030C9",
"$+	c #0B17B7",
"%+	c #0B8BC9",
"&+	c #00008A",
"*+	c #0B77C9",
"=+	c #0077B7",
"-+	c #2E98C2",
";+	c #B7D3F4",
">+	c #88AFD8",
",+	c #88AFDF",
"'+	c #00306F",
")+	c #5A84BD",
"!+	c #B7CEEF",
"~+	c #00174F",
"{+	c #88A7E5",
"]+	c #689ED3",
"^+	c #2949C9",
"/+	c #0B178A",
"(+	c #3D63A1",
"_+	c #94AFE5",
":+	c #0B004F",
"<+	c #00004F",
". . . . . . . . . . . . . . . . . . . . . . . . . . . . . . . . . . . . . . . . . . . . . . . . ",
". . . . . . . . . . . . . . . . . . . . . . . . . . . . . . . . . . . . . . . . . . . . . . . . ",
". . . . . + + + + + . . . . . . . . . . . . . . + + + + . . . . . . . . . . . . . . . . . . . . ",
". . . . . . . . . + . . . . . . . . . . . . . + + . . + + . . . . . . . . . . . . . . . . . . . ",
". . . . . . . . . + . . . . + + . . . . . . . + + + . . . . . + + + . . + + + . . + . + + . . . ",
". . . . . . + + + . . . . . + + . . . . . . . . + + + + . . + + . + . + . . + + . + + . + + . . ",
". . . . . + . . . . . . . . . . . . . . . . . . . . + + + . + + . . . . + + + + . + + . + + . . ",
". . . . . + . . . . . . . . . . . . . . . . . + . . . + + . + + . . . + + . + + . + + . + + . . ",
". . . . . + . . . . . . . . + + . . . . . . . + + . . + + . + + . + . + + . + + . + + . + + . . ",
". . . . . + + + + + . . . . + + . . . . . . . . + + + + . . . + + + . . + + . + + + + . + + . . ",
". . . . . . . . . . . . . . . . . . . . . . . . . . . . . . . . . . . . . . . . . . . . . . . . ",
". . . . . . . . . . . . . . . . . . . . . . . . . . . . . . . . . . . . . . . . . . . . . . . . ",
"                                                                                                ",
"                                                                                                ",
"                                                                                                ",
"                                                                                                ",
"                                            @ # $ % &                                           ",
"                                        * = - ; > = # , , ' ;                                   ",
"                                        ) ! ~ { ] * ^ { / ( _ ' :                               ",
"                                        < [ } | 1 2 1 3 } 4 > 5 > _ 6                           ",
"                                      7 8 > 9 0 / 7 ! a , b c d e f g h :                       ",
"                                      8 < i } j k l m n o f > % p q r 5 # s                     ",
"                                    / 8 t < a u v w x y z l A o } B c d e C _ 6                 ",
"                                    7 8 < i D l k o o } m E F G H r } c I 0 } J K               ",
"                                    8 < t L M o o H N H O k } B c P b > , 3 Q * R #             ",
"                                  5 < t < M 1 1 S T U V S W X u Y z Z N o a E 0 * , ;           ",
"                      f ) ( = 8 g > ` < i L M  .u o ] ..} +.@.#.O $.b V %.o % 1 [ &.*.-         ",
"                * g i g } 5 * / { j * i L M =. .-.;.>.,.'.;.).u S !.o l V l $.~.m j } ,         ",
"              > = / e {.~ { { * / } i 7 i L M ].^./.(._.:.<.[.$.b }.!.|.1.u j * , } ^ # 2.      ",
"          / i g * j {.f > i a ~.i a > } L B  . .3.;.      4._.,.).u 5.6.o w 7.] a | o 5 , @     ",
"        / 8.5 {.j 9.0.i a * { j { $.] Y L ].B a.b.          c.(.[.|.d.X j m e.o f 9 [ {.g #     ",
"        < 5 f.j * 9 a * {.j ..1 m 1 g.1 Y M ].h.i.          j.k.l.j  .T ).o F l {.a 1 j * m.    ",
"      ( 5 {.j * i } j $.} 1 n. .3 B } f.} ].h.o.          p.>.q.r.j l 5.Q {.y m {.> 9 $.^ # 5   ",
"    7 = o j * i } j f.0 g.l o ] p...p.} ].B +.s.        ,.t.u.k.v.j H w.k j y x.f.[ M 4 {.g a   ",
"    8 ) j {.! a ] {.a g.0 {.j ).m y.y y.1 z.h.|.    r.A.k.B.C.D.j o E.F.G.{.H.l j * 9 } j f I.  ",
"    > e j f i } j } g.m f.j i.F y.u i.o $.s.a.    J.3.;.K.k p.j p.!.L.7.f.r V l j [ M r {.g #   ",
"    = { {.* a {.j B E f.j ..w ..j {.j p.b.h.      o.M.p.r H H N.W O.7.f.{.l P.o j * 2 $.{.5 I.  ",
"  ) > j {.> a j o n.m j o g.m j p.J.Q.R.S.J.      h.T.u S U.F.}.V.k f.j m P.y j {.0 M 4 {.g #   ",
"  W.) {.j > [ {.] 1 } {.m y.j {.;.X.r.          J.a.K D u ..j $.j j ] k P.y ] j j ~.Y.{.^ # )   ",
"  W.> j {.> } j o n...j ].u p.p.Z.>.            `.s.].L |. +o r 7.x.E.P.7.r f.j 0 ~.o j * m.*   ",
"  W.) {.{.7 [ j { B ; {.} y.o $..+++            s.|.L |.r u d.@+e.y #+..j j ] a $+* j {.5 #     ",
"    > ] {.[ > j p.B m j p.u ..j K.%+K.        s.z...=.o 1 #+m 0 ..o $.j p.} 1 2 } j j 5 , 5     ",
"    8 f j 9.&+* {.* 1 o j B 1 o o a.*+++    b.o.K B L } i * j j j j 4 } 0 M ~.* j j e # g       ",
"    7 5 {.j > a p.j B l f.o D V.).o j.b.=+c.-+).Y L Y L * j } 3 I | n.2 a } $.j {.5 % g         ",
"    / 8./ {.f < / {.} B ] {.} D b k ;+f.>+).,+o L ..> '+> > 9 a b > [ * { j {.{.5 % =           ",
"      ) ( j {.! a o $.a M A p.} D g.y.m k r ..B =.o Y a * < 7 j {.j {.j j e } g , g             ",
"        8 )+!+{ t B ~ $.a M A o { * B D g. .x  .} * i * ! ~+&.{.{+]+5 5 I.# m.(                 ",
"        7 8 $.{.* i B o p.a M I o j p.o |.} ).p.p.a Y * ~+! * g 1.^+# g }                       ",
"          W.g $.{.9.t > e j } Y /+1 d o Q j j o } Y f 7 W.&.) ~+/                               ",
"            7 # - j * t L ; p.j * a L M M 1 B n.M } * t 9./ ~+`                                 ",
"              8 g )+~ { W.< - o j {.{ * * > } * r { W.7 { W.`                                   ",
"                7 8 )+,+$.f < i > } $.j f.j p.j $.[ < f * 8 9.                                  ",
"                  W.8 (+_+{.{ 9.! 7 /+> # > # > /+< W.{ :+W.                                    ",
"                      ) /+6 ,+j p.j $.f > > > ! > f $./ ~+f                                     ",
"                        / 7 8 ( & >+^ {.{.{.{.{.j {./ <+/                                       ",
"                            * 8 7 8 > 5 * - * - } g < `                                         ",
"                                    ` W.8 C 8 7 8 ( )                                           ",
"                                                                                                ",
"                                                                                                ",
"                                                                                                "};
