/* XPM */
static char * scan_fr_xpm[] = {
"48 60 86 1",
" 	c None",
".	c #000000",
"+	c #121212",
"@	c #FFFFFF",
"#	c #DCDCDC",
"$	c #040404",
"%	c #FAFAFA",
"&	c #FDFDFD",
"*	c #0A0A0A",
"=	c #C6C6C6",
"-	c #FEFEFE",
";	c #E0E0E0",
">	c #636363",
",	c #373737",
"'	c #CDCDCD",
")	c #252525",
"!	c #D8D8D8",
"~	c #292929",
"{	c #F5F5F5",
"]	c #5C5C5C",
"^	c #A7A7A7",
"/	c #E1E1E1",
"(	c #F6F6F6",
"_	c #030303",
":	c #868686",
"<	c #F7F7F7",
"[	c #8E8E8E",
"}	c #F9F9F9",
"|	c #C0C0C0",
"1	c #F1F1F1",
"2	c #737373",
"3	c #0D0D0D",
"4	c #A2A2A2",
"5	c #F4F4F4",
"6	c #E7E7E7",
"7	c #585858",
"8	c #616161",
"9	c #A9A9A9",
"0	c #808080",
"a	c #EFEFEF",
"b	c #020202",
"c	c #888888",
"d	c #747474",
"e	c #090909",
"f	c #EAEAEA",
"g	c #2A2A2A",
"h	c #9C9C9C",
"i	c #4D4D4D",
"j	c #EEEEEE",
"k	c #F8F8F8",
"l	c #D4D4D4",
"m	c #111111",
"n	c #A5A5A5",
"o	c #5F5F5F",
"p	c #BFBFBF",
"q	c #444444",
"r	c #5D5D5D",
"s	c #DEDEDE",
"t	c #C7C7C7",
"u	c #AEAEAE",
"v	c #151515",
"w	c #E6E6E6",
"x	c #EBEBEB",
"y	c #FBFBFB",
"z	c #D3D3D3",
"A	c #C9C9C9",
"B	c #3D3D3D",
"C	c #202020",
"D	c #F3F3F3",
"E	c #929292",
"F	c #878787",
"G	c #848484",
"H	c #1E1E1E",
"I	c #707070",
"J	c #6F6F6F",
"K	c #969696",
"L	c #B5B5B5",
"M	c #222222",
"N	c #1F1F1F",
"O	c #959595",
"P	c #050505",
"Q	c #686868",
"R	c #EDEDED",
"S	c #B2B2B2",
"T	c #3E3E3E",
"U	c #1A1A1A",
"................................................",
"................................................",
"................................................",
"....+@@@@#.$%&*........................=@-;>....",
"....,@'....)@!...........................~@{....",
"....]@^.../@@@(_:@<[+@}|1234567..........8@9....",
"....0@@@ab.c@d...e@(,@fg@(h@i@j.........iklm....",
"....n@o....p@q.rs&@t]@uv@wa@@@x........>yzv.....",
"....A@B....1@C.D]^@20@EF@G1@H.........I@@J......",
"....j@@@K..Ly@M96-@Nn@t1OPQR@1*.......f@@@S.....",
"....................A@T.........................",
"....................j@U.........................",
"................................................",
"................................................",
"................................................",
"................................................",
"                                                ",
"                                                ",
"                                                ",
"                                                ",
"                                                ",
"     ..                                         ",
"     ..                                         ",
"     ..    ....  ....   .... ...    ....        ",
"    ...      ..  .. .  ...  .. ..   ..          ",
"    ..     .... ... .  ..   .....  ...          ",
"    ..    . ..  .. .   ..   ..     ..           ",
"    ..... ....  .. .    ...  ...   ..           ",
"                                                ",
"                                                ",
"                                                ",
"                                                ",
"                                                ",
"                       ...                      ",
"                        ..                      ",
"                        ..                      ",
"     ....  ....  ....  ..   .   .. ...  ...     ",
"       ..  .. .    ..  ..   .. .. ..   .. ..    ",
"     .... ... .  ....  ..   .. .   ... .....    ",
"    . ..  .. .  . ..   ..    ...    .. ..       ",
"    ....  .. .  ....   ....  ..  ....   ...     ",
"                             .                  ",
"                           ..                   ",
"                                                ",
"                                                ",
"                                                ",
"        ..   ..                                 ",
"        ..   ..                                 ",
"        ..                                      ",
"     ..... ...    ...  ....  .. . ...           ",
"    .....   ..   ..   .....  .. ... ..          ",
"    .. ..  ..     ... .. .. .. .......          ",
"    .. ..  ..      .. ..... .. . ..             ",
"     .... ..... ....   ...  ....  ...           ",
"                        ..                      ",
"                        ..                      ",
"                                                ",
"                                                ",
"                                                ",
"                                                "};
