/* XPM */
static char * scan_xpm[] = {
"32 32 288 2",
"  	c None",
". 	c #898C87",
"+ 	c #8B8D88",
"@ 	c #8D8F8A",
"# 	c #8C8E89",
"$ 	c #898B86",
"% 	c #8D8F89",
"& 	c #8A8C87",
"* 	c #D2D4D0",
"= 	c #E4E5E2",
"- 	c #E3E4E1",
"; 	c #E3E4E0",
"> 	c #E1E1DE",
", 	c #E1E1DF",
"' 	c #E3E3E0",
") 	c #E4E4E1",
"! 	c #E3E3DF",
"~ 	c #E2E2E0",
"{ 	c #DCDCDA",
"] 	c #91938D",
"^ 	c #A1A29E",
"/ 	c #DDDDDA",
"( 	c #BBBDBB",
"_ 	c #D1D2CE",
": 	c #BBBCB6",
"< 	c #BABDB6",
"[ 	c #BBBEB8",
"} 	c #D4D5D0",
"| 	c #CBCCC8",
"1 	c #A3A4A2",
"2 	c #D3D3D2",
"3 	c #BABCB8",
"4 	c #888A86",
"5 	c #8C8D87",
"6 	c #C3C5C1",
"7 	c #DBDBD9",
"8 	c #C6C8C2",
"9 	c #CBCDC6",
"0 	c #A7A8A3",
"a 	c #BCBFB8",
"b 	c #D1D3CD",
"c 	c #D7D7D3",
"d 	c #C2C2BF",
"e 	c #D6D7D3",
"f 	c #D7D8D5",
"g 	c #8C8F89",
"h 	c #DEDFDC",
"i 	c #D4D6D2",
"j 	c #CBCDC7",
"k 	c #B3B4AE",
"l 	c #A7A9A3",
"m 	c #C1C3BD",
"n 	c #CCCDC9",
"o 	c #DADBD7",
"p 	c #DBDCD9",
"q 	c #E9EAE8",
"r 	c #8F918C",
"s 	c #939591",
"t 	c #ECECEB",
"u 	c #CACCC6",
"v 	c #A7A9A5",
"w 	c #AEB0AB",
"x 	c #C5C7C1",
"y 	c #C5C7C2",
"z 	c #CACBC7",
"A 	c #D5D5D2",
"B 	c #DCDDD9",
"C 	c #E9EAE7",
"D 	c #B5B6B3",
"E 	c #BCBDBA",
"F 	c #E7E7E5",
"G 	c #B7B8B5",
"H 	c #C4C7C2",
"I 	c #C9CBC6",
"J 	c #CACCC7",
"K 	c #DADCD8",
"L 	c #DDDEDB",
"M 	c #CCCECA",
"N 	c #CBCCC7",
"O 	c #CFCFCB",
"P 	c #8C8E8A",
"Q 	c #DCDDDB",
"R 	c #CED0CB",
"S 	c #E8E8E7",
"T 	c #D6D7D4",
"U 	c #D5D6D3",
"V 	c #E3E4E2",
"W 	c #F4F4F3",
"X 	c #CFD1CC",
"Y 	c #CECFCB",
"Z 	c #F2F2F0",
"` 	c #E7E7E4",
" .	c #D6D8D4",
"..	c #D2D4CF",
"+.	c #DADBD9",
"@.	c #D4D6D3",
"#.	c #D5D6D4",
"$.	c #DDDDDC",
"%.	c #DFDFDC",
"&.	c #B5B7B2",
"*.	c #EAEBE8",
"=.	c #9C9E99",
"-.	c #B3B4B0",
";.	c #F0F0EE",
">.	c #DFE1DE",
",.	c #D7D8D4",
"'.	c #D2D3D0",
").	c #D3D4D1",
"!.	c #C5C6C2",
"~.	c #B4B5AF",
"{.	c #C3C4C0",
"].	c #898B87",
"^.	c #D9DBD7",
"/.	c #D4D5D1",
"(.	c #E2E4E1",
"_.	c #DBDCD8",
":.	c #D1D2CD",
"<.	c #999A97",
"[.	c #D0D2CD",
"}.	c #DCDDDA",
"|.	c #E1E2DF",
"1.	c #8B8D89",
"2.	c #F1F1F0",
"3.	c #D5D7D5",
"4.	c #D8DAD6",
"5.	c #DFE0DD",
"6.	c #C6C7C4",
"7.	c #ADB0AC",
"8.	c #D8D9D5",
"9.	c #D5D6D2",
"0.	c #F0F0EF",
"a.	c #90928C",
"b.	c #A2A5A1",
"c.	c #CBCCC9",
"d.	c #D7D9D5",
"e.	c #DCDEDA",
"f.	c #DDDFDB",
"g.	c #E5E7E4",
"h.	c #F4F5F4",
"i.	c #F6F6F6",
"j.	c #E0E0DE",
"k.	c #D9DAD8",
"l.	c #CFD0CD",
"m.	c #D2D2CF",
"n.	c #DADAD7",
"o.	c #C8CAC5",
"p.	c #B2B3AF",
"q.	c #D2D2D0",
"r.	c #D5D7D3",
"s.	c #C9CAC6",
"t.	c #DADAD8",
"u.	c #CBCDC8",
"v.	c #D0D0CC",
"w.	c #EAEAE9",
"x.	c #F2F2F1",
"y.	c #F6F6F5",
"z.	c #F8F8F8",
"A.	c #F7F8F7",
"B.	c #F8F8F7",
"C.	c #F5F5F4",
"D.	c #EAEAE8",
"E.	c #D7D8D3",
"F.	c #D3D4D0",
"G.	c #D9DAD6",
"H.	c #C0C2BE",
"I.	c #B8BAB4",
"J.	c #D1D2CF",
"K.	c #8D8E8A",
"L.	c #E5E5E3",
"M.	c #D9DAD9",
"N.	c #CBCCCB",
"O.	c #BDBEBA",
"P.	c #EEEFED",
"Q.	c #ECEDEB",
"R.	c #EDEDEC",
"S.	c #EDEEEC",
"T.	c #EEEEED",
"U.	c #EFEFEE",
"V.	c #EFF0EE",
"W.	c #F0F1EF",
"X.	c #EBECEA",
"Y.	c #B8B9B4",
"Z.	c #A2A4A0",
"`.	c #B4B6B3",
" +	c #777B76",
".+	c #BEC0BC",
"++	c #F4F4F2",
"@+	c #FDFDFC",
"#+	c #E5E5E4",
"$+	c #E6E6E5",
"%+	c #E7E7E6",
"&+	c #E8E8E6",
"*+	c #FAFAF8",
"=+	c #EBEBEA",
"-+	c #ECEDEC",
";+	c #828581",
">+	c #363C3C",
",+	c #747773",
"'+	c #90928D",
")+	c #91938E",
"!+	c #92948F",
"~+	c #929490",
"{+	c #939590",
"]+	c #949691",
"^+	c #888A85",
"/+	c #7F827D",
"(+	c #3F4444",
"_+	c #2C3334",
":+	c #323739",
"<+	c #33393A",
"[+	c #343A3B",
"}+	c #353A3B",
"|+	c #363B3C",
"1+	c #373C3D",
"2+	c #383D3D",
"3+	c #393E3E",
"4+	c #3B4040",
"5+	c #3D4141",
"6+	c #3E4241",
"7+	c #3E4242",
"8+	c #3F4343",
"9+	c #646766",
"0+	c #757876",
"a+	c #777A78",
"b+	c #787A79",
"c+	c #797B79",
"d+	c #7A7C79",
"e+	c #7B7D7B",
"f+	c #7C7E7B",
"g+	c #6D706C",
"h+	c #4A4D4B",
"i+	c #4B4E4C",
"j+	c #4C4F4C",
"k+	c #2D3335",
"l+	c #2B3233",
"m+	c #34393A",
"n+	c #353B3B",
"o+	c #383D3E",
"p+	c #404545",
"q+	c #464A4A",
"r+	c #434847",
"s+	c #3F4443",
"t+	c #737675",
"u+	c #2E3130",
"v+	c #7F8281",
"w+	c #363836",
"x+	c #818383",
"y+	c #323433",
"z+	c #7E807F",
"A+	c #393B39",
"B+	c #343634",
"C+	c #7B7D7A",
"D+	c #4B4E4B",
"E+	c #4C4E4C",
"F+	c #484B4A",
"G+	c #2E3335",
"H+	c #31373A",
"I+	c #2F3536",
"J+	c #343839",
"K+	c #353939",
"L+	c #363A3A",
"M+	c #363A3B",
"N+	c #3A3F3F",
"O+	c #414646",
"P+	c #3A3F3E",
"Q+	c #3B403F",
"R+	c #3C4040",
"S+	c #5B5E5D",
"T+	c #6E7170",
"U+	c #727574",
"V+	c #707371",
"W+	c #727573",
"X+	c #707271",
"Y+	c #717371",
"Z+	c #6E706D",
"`+	c #646664",
" @	c #33393B",
".@	c #262A2A",
"+@	c #343A3C",
"@@	c #353B3D",
"#@	c #3A3F41",
"$@	c #3E4446",
"%@	c #3B4143",
"&@	c #363C3E",
"*@	c #3C4244",
"=@	c #373D3F",
"-@	c #3F4547",
";@	c #292C2E",
"                                                                ",
"                                                                ",
"                                                                ",
"                                                                ",
"                                                                ",
"                                                                ",
"            . + @ # # # # # # # # # # # # # # # + $ %           ",
"          & * = - ; > , ' - - - - ) ; - ! ~ ~ ~ ' { ]           ",
"          ^ / ( _ : < < < < < < < < < < < [ } | 1 2 3 4         ",
"        5 6 7 8 9 0 a a a a a a a a a a a a b c d e f g         ",
"        & h i j k l m m m m m m m m m m m m n o o p q r         ",
"        s t u v w x y y y y y y y y y y y y y z A B C D         ",
"        E F G H I I I I I J K = = L M I I I I I N O F A P       ",
"      g Q h M R R R R R R S F T U V W X R R R R R Y f q &       ",
"      # Z `  .............T +.@.#.$.%.............b &.*.=.      ",
"      -.;.>.S ,.,.,.,.,.,.,.e '.).U ,.,.,.,.,.,.,.!.~.- {.].    ",
"    + ^.' /.W (._._._._._._._._._._._._._._._._.:.<.[.}.|.1.    ",
"    & 2.3.4.B W 2., 5.5.5.5.5.5.5.5.5.5.5.5.L 6.7.[.8.9.0.a.    ",
"    b.W c.d.e.f.g.h.i.q ) ' ) ) ) ) ' ~ j.k.l.m.n.8./.o.~ p.    ",
"  ].q.Z r.s.t.8.R u.v.5.w.x.y.z.A.B.C.;.D.h E.F.[.G.H.I.,.J.K.  ",
"  + D.L.M.N.O.P.Q.R.S.T.U.V.0.W.2.2.0.U.T.Q.X.w.R.F.Y.Z.`.*..   ",
"   +.+++@+@+S #+$+$+$+$+$+$+%+%+%+%+%+S S &+%+$+$+%+*+=+-+I ;+  ",
"  >+,+# '+)+!+~+{+]+{+)+r @ + $ ^+^+^+^+^+^+^+^+^+^+^+^+^+/+(+  ",
"  _+:+<+[+}+|+1+2+3+4+5+6+7+7+8+9+0+a+a+b+c+c+d+e+f+g+h+i+j+k+  ",
"  l+<+m+}+n+>+1+o+4+p+q+r+s+7+8+t+u+v+w+x+y+z+y+A+B+C+D+E+F+G+  ",
"    H+I+I+J+K+L+M+N+(+O+6+P+Q+R+S+T+U+V+W+X+X+Y+Y+Z+`+}+:+ @    ",
"      .@+@+@+@+@@@#@$@%@&@+@+@+@@@#@$@*@=@+@@@-@@@+@+@+@;@      ",
"                                                                ",
"                                                                ",
"                                                                ",
"                                                                ",
"                                                                "};
