/* XPM */
static char * scan_xpm[] = {
"48 60 94 2",
"  	c None",
". 	c #000000",
"+ 	c #2E2E2E",
"@ 	c #C6C6C6",
"# 	c #F9F9F9",
"$ 	c #C5C5C5",
"% 	c #1E1E1E",
"& 	c #040404",
"* 	c #FAFAFA",
"= 	c #FDFDFD",
"- 	c #0A0A0A",
"; 	c #FFFFFF",
"> 	c #FEFEFE",
", 	c #E0E0E0",
"' 	c #636363",
") 	c #D7D7D7",
"! 	c #373737",
"~ 	c #3D3D3D",
"{ 	c #8C8C8C",
"] 	c #252525",
"^ 	c #D8D8D8",
"/ 	c #292929",
"( 	c #F5F5F5",
"_ 	c #EFEFEF",
": 	c #5A5A5A",
"< 	c #070707",
"[ 	c #E1E1E1",
"} 	c #F6F6F6",
"| 	c #101010",
"1 	c #A2A2A2",
"2 	c #F4F4F4",
"3 	c #E7E7E7",
"4 	c #585858",
"5 	c #121212",
"6 	c #C0C0C0",
"7 	c #F1F1F1",
"8 	c #737373",
"9 	c #616161",
"0 	c #A9A9A9",
"a 	c #404040",
"b 	c #BABABA",
"c 	c #6B6B6B",
"d 	c #888888",
"e 	c #747474",
"f 	c #9C9C9C",
"g 	c #4D4D4D",
"h 	c #EEEEEE",
"i 	c #EAEAEA",
"j 	c #2A2A2A",
"k 	c #F8F8F8",
"l 	c #D4D4D4",
"m 	c #111111",
"n 	c #F2F2F2",
"o 	c #BFBFBF",
"p 	c #444444",
"q 	c #EBEBEB",
"r 	c #5C5C5C",
"s 	c #AEAEAE",
"t 	c #151515",
"u 	c #E6E6E6",
"v 	c #FBFBFB",
"w 	c #D3D3D3",
"x 	c #7D7D7D",
"y 	c #505050",
"z 	c #080808",
"A 	c #4A4A4A",
"B 	c #CCCCCC",
"C 	c #202020",
"D 	c #808080",
"E 	c #929292",
"F 	c #878787",
"G 	c #848484",
"H 	c #707070",
"I 	c #6F6F6F",
"J 	c #313131",
"K 	c #C2C2C2",
"L 	c #9B9B9B",
"M 	c #171717",
"N 	c #B5B5B5",
"O 	c #222222",
"P 	c #686868",
"Q 	c #EDEDED",
"R 	c #A5A5A5",
"S 	c #C7C7C7",
"T 	c #969696",
"U 	c #050505",
"V 	c #B2B2B2",
"W 	c #010101",
"X 	c #CACACA",
"Y 	c #3F3F3F",
"Z 	c #020202",
"` 	c #FCFCFC",
" .	c #1A1A1A",
"..	c #060606",
". . . . . . . . . . . . . . . . . . . . . . . . . . . . . . . . . . . . . . . . . . . . . . . . ",
". . . . . . . . . . . . . . . . . . . . . . . . . . . . . . . . . . . . . . . . . . . . . . . . ",
". . . . . . . . . . . . . . . . . . . . . . . . . . . . . . . . . . . . . . . . . . . . . . . . ",
". . . . . . . . . . . . . . . . . . . . . . . . . . . . . . . . . . . . . . . . . . . . . . . . ",
". . . . . . . . + @ # $ % . & * = - . . . . . . . . . . . . . . . . . . @ ; > , ' . . . . . . . ",
". . . . . . . . ) ; ! ~ { . ] ; ^ . . . . . . . . . . . . . . . . . . . . . / ; ( . . . . . . . ",
". . . . . . . . _ ; : . < [ ; ; ; } | 1 2 3 4 5 ; # 6 7 8 . . . . . . . . . 9 ; 0 . . . . . . . ",
". . . . . . . . a b ; c . . d ; e . f ; g ; h ! ; i j ; } . . . . . . . . g k l m . . . . . . . ",
". . . . . . . . . . ; n . . o ; p . _ ; ; ; q r ; s t ; u . . . . . . . ' v w t . . . . . . . . ",
". . . . . . x y z A ; B . . 7 ; C . 7 ; % . . D ; E F ; G . . . . . . H ; ; I . . . . . . . . . ",
". . . . . . J K * 3 L M . . N v ; O P Q ; 7 - R ; S 7 T U . . . . . . i ; ; ; V . . . . . . . . ",
". . . . . . . . . . . . . . . W . . . W . . . X > Y . . . . . . . . . W . . . . . . . . . . . . ",
". . . . . . . . . . . . . . . . . . . . . . Z h `  .. . . . . . . . . . . . . . . . . . . . . . ",
". . . . . . . . . . . . . . . . . . . . . . ..< . . . . . . . . . . . . . . . . . . . . . . . . ",
". . . . . . . . . . . . . . . . . . . . . . . . . . . . . . . . . . . . . . . . . . . . . . . . ",
". . . . . . . . . . . . . . . . . . . . . . . . . . . . . . . . . . . . . . . . . . . . . . . . ",
"                                                                                                ",
"                                                                                                ",
"                                                                                                ",
"                                                                                                ",
"                                                                                                ",
"                                                                        . .                     ",
"              . .                                                       . .                     ",
"              . .                                                       . .                     ",
"              . .         . . . .     . .   .   . . . .       . . . .   . . . .                 ",
"            . . .             . .     . .   .   . .   .     . . .       . .   .                 ",
"            . .           . . . .   . .   . . . . .   .     . .       . . .   .                 ",
"            . .         .   . .     . .   .   . .   .       . .       . .   .                   ",
"            . . . . .   . . . .     . . . .   . .   .         . . .   . .   .                   ",
"                                                                                                ",
"                                                                                                ",
"                                                                                                ",
"                                                                                                ",
"                                                                                                ",
"                                            . .       . .                 . .                   ",
"                                            . .       . .                 . .                   ",
"                                            . .                           . .                   ",
"              . . . .                 . . . . .   . . .         . . .     . . . .               ",
"                  . .               . . . . .       . .       . .       . . . .                 ",
"              . . . .               . .   . .     . .           . . .   . . . .                 ",
"            .   . .                 . .   . .     . .             . .   . . . .                 ",
"            . . . .                   . . . .   . . . . .   . . . .     . .   . .               ",
"                                                                                                ",
"                                                                                                ",
"                                                                                                ",
"                                                                                                ",
"                                                                                                ",
"                                                                                                ",
"                                                                                                ",
"                                                                                                ",
"                . . .       . . . .   . . . .     . . . .                                       ",
"              . .         . . .           . .     . .   .                                       ",
"                . . .     . .         . . . .   . . .   .                                       ",
"                  . .     . .       .   . .     . .   .                                         ",
"            . . . .         . . .   . . . .     . .   .                                         ",
"                                                                                                ",
"                                                                                                ",
"                                                                                                ",
"                                                                                                ",
"                                                                                                "};
