/* XPM */
static char * scan_xpm[] = {
"32 32 215 2",
"  	c None",
". 	c #0D3C07",
"+ 	c #0D3D08",
"@ 	c #0D3C06",
"# 	c #124F0A",
"$ 	c #208612",
"% 	c #1B7310",
"& 	c #104708",
"* 	c #1F8412",
"= 	c #2AAF18",
"- 	c #28A816",
"; 	c #1A6C0E",
"> 	c #0D3D07",
", 	c #0E3C07",
"' 	c #0D3B06",
") 	c #249714",
"! 	c #A8DEA1",
"~ 	c #B5E3AE",
"{ 	c #46BA37",
"] 	c #0C3C07",
"^ 	c #114909",
"/ 	c #12530B",
"( 	c #155D0C",
"_ 	c #29AD18",
": 	c #55BF46",
"< 	c #DDF2DA",
"[ 	c #88D27E",
"} 	c #2BAF19",
"| 	c #29A917",
"1 	c #165E0C",
"2 	c #0D3B07",
"3 	c #0E3F08",
"4 	c #17650D",
"5 	c #248E17",
"6 	c #4EB640",
"7 	c #53BE44",
"8 	c #30B11E",
"9 	c #51BE43",
"0 	c #5FC351",
"a 	c #32B220",
"b 	c #2AAE18",
"c 	c #1A710F",
"d 	c #0D3D06",
"e 	c #1E6815",
"f 	c #77C66D",
"g 	c #7CCE71",
"h 	c #5AC14D",
"i 	c #31B21F",
"j 	c #29AD17",
"k 	c #27A816",
"l 	c #27A616",
"m 	c #196B0E",
"n 	c #439238",
"o 	c #B6E4B0",
"p 	c #4DBC3E",
"q 	c #28A916",
"r 	c #249D13",
"s 	c #219311",
"t 	c #1F8B0F",
"u 	c #1E8B0F",
"v 	c #29AB18",
"w 	c #249A14",
"x 	c #327D28",
"y 	c #BBE5B5",
"z 	c #34B323",
"A 	c #229612",
"B 	c #1E880F",
"C 	c #1B790E",
"D 	c #18670C",
"E 	c #1E8B10",
"F 	c #26A115",
"G 	c #2AAE17",
"H 	c #25A114",
"I 	c #208F10",
"J 	c #19710E",
"K 	c #0F4409",
"L 	c #A9DDA2",
"M 	c #45B935",
"N 	c #249C13",
"O 	c #1F8B10",
"P 	c #1B7A0E",
"Q 	c #104D09",
"R 	c #1B7D0E",
"S 	c #229712",
"T 	c #2AAD18",
"U 	c #259F14",
"V 	c #1F9010",
"W 	c #1F8C10",
"X 	c #16620B",
"Y 	c #2B7621",
"Z 	c #A0DB98",
"` 	c #27A716",
" .	c #1F8E10",
"..	c #135009",
"+.	c #16640C",
"@.	c #1F8D10",
"#.	c #239B14",
"$.	c #1C7E0F",
"%.	c #0F4308",
"&.	c #0C3D07",
"*.	c #63A85A",
"=.	c #52BE43",
"-.	c #27A516",
";.	c #0E4108",
">.	c #1F8D0F",
",.	c #1F8C0F",
"'.	c #1D8110",
").	c #104908",
"!.	c #0D3C08",
"~.	c #5EAA54",
"{.	c #1B7C0F",
"].	c #1B770E",
"^.	c #0F4608",
"/.	c #0E3D08",
"(.	c #0E4208",
"_.	c #229113",
":.	c #124E0A",
"<.	c #0E3B07",
"[.	c #2B871F",
"}.	c #219411",
"|.	c #114C09",
"1.	c #209111",
"2.	c #28A716",
"3.	c #27A216",
"4.	c #0F4508",
"5.	c #18680D",
"6.	c #104608",
"7.	c #239A13",
"8.	c #1D7A10",
"9.	c #28A617",
"0.	c #28A917",
"a.	c #1A700D",
"b.	c #1D7D0F",
"c.	c #27A116",
"d.	c #17640D",
"e.	c #28AA17",
"f.	c #219211",
"g.	c #1D810F",
"h.	c #135B0B",
"i.	c #41B831",
"j.	c #14580B",
"k.	c #1F8710",
"l.	c #1E8610",
"m.	c #12510A",
"n.	c #13520A",
"o.	c #1D8310",
"p.	c #208D10",
"q.	c #12530A",
"r.	c #74CB68",
"s.	c #114809",
"t.	c #13540A",
"u.	c #13550A",
"v.	c #229412",
"w.	c #2CB01A",
"x.	c #9BD893",
"y.	c #104507",
"z.	c #209010",
"A.	c #29AC17",
"B.	c #259F15",
"C.	c #1F8A10",
"D.	c #125209",
"E.	c #64C557",
"F.	c #73B86A",
"G.	c #16610C",
"H.	c #209211",
"I.	c #27A315",
"J.	c #155D0B",
"K.	c #1D820F",
"L.	c #31B21E",
"M.	c #BFE7B9",
"N.	c #1C6114",
"O.	c #0E3C08",
"P.	c #26A416",
"Q.	c #1E8710",
"R.	c #1E8810",
"S.	c #249A13",
"T.	c #AFE1A8",
"U.	c #509E46",
"V.	c #196E0E",
"W.	c #249B13",
"X.	c #219110",
"Y.	c #239913",
"Z.	c #26A415",
"`.	c #ABDFA4",
" +	c #4C9D41",
".+	c #229114",
"++	c #2DB01B",
"@+	c #4CBC3D",
"#+	c #6AC75E",
"$+	c #56B149",
"%+	c #16600D",
"&+	c #208611",
"*+	c #40B730",
"=+	c #88D27D",
"-+	c #69C75D",
";+	c #32B221",
">+	c #42B232",
",+	c #51B143",
"'+	c #2B931C",
")+	c #1C7410",
"!+	c #13560A",
"~+	c #1B720F",
"{+	c #9BD992",
"]+	c #F4FBF3",
"^+	c #C2E8BD",
"/+	c #17660D",
"(+	c #259D15",
"_+	c #4BBC3C",
":+	c #A5DD9D",
"<+	c #33B222",
"[+	c #12500A",
"}+	c #1B730F",
"|+	c #29AA17",
"1+	c #0E3E07",
"2+	c #17620D",
"                                                                ",
"                        . . . . +                               ",
"                      @ . # $ % & .                             ",
"                      . . * = = - ; > ,                         ",
"                    ' . . ) ! ~ { = ) # @                       ",
"              ' ] . ^ / ( _ : ! < [ } | 1 2                     ",
"        . ] 3 4 5 6 : 7 8 = = = = 9 0 a b c .                   ",
"      d . e f g h i = j k l = = = = = = = = m .                 ",
"    ] . n o p = q r s t u t v = = = = = = = w .                 ",
"  , . x y z k A t u B C D E F = = = = G H I J .                 ",
"  . K L M N t O P Q . . . R S = = T U V W X . @                 ",
"  . Y Z ` u  .... .     ] +.@.` #.@.W $.%.. &.  2 ]             ",
"  . *.=.-.u $..         &.;.>.u ,.'.).. !.    . . . . .         ",
"  . ~.} T O {..           . ].].^.. /.      /.(.E  ._.:.<.      ",
"  . [.= = }.B .           d . 2             . |.u 1.2.3.4.      ",
"  . 5.= = F t 6.&.                          2 > ,.7.= = 8..     ",
"    (.9.= 0.u a..                             . b.I = = c..     ",
"    <.d.e.f.u g..           . 2 > .           . h.u -.= i.K +   ",
"      . j.k.l.m.!.      !.. n.o.p.q.2         . ^.u N = r.s.,   ",
"        . . . .     . . t.l.W O @.$..         . u.u v.w.x.> ,   ",
"                . . y.g.t z.U A.B.C..     . . D.W u N E.F.. .   ",
"                . G.W H.I.= = = q u Q . ;.J.K.u O N L.M.N.. O.  ",
"              . G.1.P.= = = = = = I Q.R.O u @.S.e.i T.U.. .     ",
"              . V.= = = = = = = = W. .X.Y.Z._ = 0 `. +> .       ",
"                3 .+= } i = = = = = = = ++@+h #+$+%+. .         ",
"                  3 &+= *+=+-+;+= = = >+,+'+)+!+. >             ",
"                    ] ~+b i {+]+^+++/+. . . ,                   ",
"                      , j.(+= _+:+<+[+. .                       ",
"                        > 3 }+|+= 9.1+.                         ",
"                            . (.2+[+. .                         ",
"                              /.. . @                           ",
"                                                                "};
