/* XPM */
static char * scleaner_xpm[] = {
"24 24 153 2",
"  	c None",
". 	c #9FAAB5",
"+ 	c #AAB4BF",
"@ 	c #A8B3BE",
"# 	c #A7B2BD",
"$ 	c #A6B2BD",
"% 	c #A5B1BC",
"& 	c #96A2AE",
"* 	c #ADB7C2",
"= 	c #ABB6C0",
"- 	c #A9B5BF",
"; 	c #A7B3BE",
"> 	c #AAB5C0",
", 	c #B5BFC8",
"' 	c #BBC4CC",
") 	c #95A1AC",
"! 	c #ADB8C2",
"~ 	c #A8B4BF",
"{ 	c #B3BDC6",
"] 	c #C6CED5",
"^ 	c #E2E6EA",
"/ 	c #E7EAEE",
"( 	c #CED4DA",
"_ 	c #98A1A9",
": 	c #9CA7B2",
"< 	c #A1ADB9",
"[ 	c #A4B0BC",
"} 	c #A7B2BE",
"| 	c #B9C2CB",
"1 	c #C9D0D7",
"2 	c #DCE1E5",
"3 	c #ECEFF1",
"4 	c #F2F3F4",
"5 	c #DADCDD",
"6 	c #B9BDBF",
"7 	c #66717C",
"8 	c #7F8C9A",
"9 	c #97A5B3",
"0 	c #A5B1BD",
"a 	c #BFC7CE",
"b 	c #C8CED3",
"c 	c #CBCED1",
"d 	c #C9CBCD",
"e 	c #CDCECF",
"f 	c #DADBDC",
"g 	c #D7D8D9",
"h 	c #B7B8B9",
"i 	c #2F3538",
"j 	c #495259",
"k 	c #6A747E",
"l 	c #848F99",
"m 	c #8F98A0",
"n 	c #9EA4AA",
"o 	c #B4B8BA",
"p 	c #C4C6C7",
"q 	c #D6D7D8",
"r 	c #E0E2E3",
"s 	c #E6E7E8",
"t 	c #F3F3F3",
"u 	c #EFEFEF",
"v 	c #E9E9E9",
"w 	c #CBCCCD",
"x 	c #303639",
"y 	c #515A61",
"z 	c #8D9297",
"A 	c #DDDEDF",
"B 	c #C6C9CB",
"C 	c #B5B8B9",
"D 	c #D3D4D4",
"E 	c #ECECEC",
"F 	c #EAEBEC",
"G 	c #CDCFD1",
"H 	c #A6A9AB",
"I 	c #B8BBBC",
"J 	c #EDEDED",
"K 	c #E8E8E8",
"L 	c #68737E",
"M 	c #949CA5",
"N 	c #DDDEDE",
"O 	c #BABDBF",
"P 	c #8C9398",
"Q 	c #9AA1A8",
"R 	c #ACB1B5",
"S 	c #A9ACAF",
"T 	c #ACB0B1",
"U 	c #A7ABAC",
"V 	c #CBCDCF",
"W 	c #CBD0D5",
"X 	c #C1C7CD",
"Y 	c #BAC0C6",
"Z 	c #6A7580",
"` 	c #717D8A",
" .	c #7C868F",
"..	c #808A92",
"+.	c #A4ADB6",
"@.	c #C1C9D1",
"#.	c #CDD3D9",
"$.	c #D2D7DB",
"%.	c #D6D9DC",
"&.	c #E6E8E9",
"*.	c #F4F5F6",
"=.	c #DCE0E5",
"-.	c #B9C1CA",
";.	c #808D9A",
">.	c #727F8D",
",.	c #8E9BA9",
"'.	c #B2BCC5",
").	c #C0C9D0",
"!.	c #CED5DB",
"~.	c #DCE0E4",
"{.	c #E9ECEF",
"].	c #F6F7F8",
"^.	c #F4F5F7",
"/.	c #DBDFE4",
"(.	c #828F9C",
"_.	c #697580",
":.	c #919FAD",
"<.	c #A2AEBA",
"[.	c #B1BBC5",
"}.	c #C0C8D0",
"|.	c #DBE0E4",
"1.	c #E8EBEE",
"2.	c #F5F6F7",
"3.	c #B9C2CA",
"4.	c #697480",
"5.	c #636E78",
"6.	c #74818F",
"7.	c #B6BEC7",
"8.	c #77838E",
"9.	c #434B50",
"0.	c #B3BDC7",
"a.	c #C1CAD2",
"b.	c #CFD6DC",
"c.	c #EAECEF",
"d.	c #F7F9FA",
"e.	c #F7F8F9",
"f.	c #BDC2C6",
"g.	c #61676B",
"h.	c #373E41",
"i.	c #555E65",
"j.	c #757F87",
"k.	c #959DA4",
"l.	c #AEB5BB",
"m.	c #BFC5CA",
"n.	c #CBCFD3",
"o.	c #D1D4D6",
"p.	c #CED0D1",
"q.	c #62676A",
"r.	c #31383A",
"s.	c #2E3436",
"t.	c #4F5557",
"u.	c #5A5F61",
"v.	c #5E6365",
"                                .               ",
"                      + @ # $ % $ &             ",
"                * = - ; $ $ > , ' )             ",
"            ! = ~ ; ; - { ] ^ / ( _             ",
"          : < [ } ! | 1 2 3 4 5 6               ",
"          7 8 9 0 { a b c d e f g h             ",
"        i j k l m n o p q r s t u v w           ",
"        x y z g A B C D E F G H I g J K         ",
"          L M N O P Q R S T U V W X Y           ",
"          Z `  ...+.@.#.$.%.&.*.=.-.;.          ",
"          Z >.,.< '.).!.~.{.].^./.| (.          ",
"          _.>.:.<.[.}.!.|.1.2.^./.3.(.          ",
"          _.>.:.<.[.}.!.|.1.2.^./.3.(.          ",
"          _.>.:.<.[.}.!.|.1.2.^./.3.(.          ",
"          _.>.:.<.[.}.!.|.1.2.^./.3.(.          ",
"          _.>.:.<.[.}.!.|.1.2.^./.3.(.          ",
"          _.>.:.<.[.}.!.|.1.2.^./.3.(.          ",
"          _.>.:.<.[.}.!.|.1.2.^./.3.(.          ",
"          Z >.:.<.[.}.!.|.1.2.^./.3.(.          ",
"          4.>.:.<.[.}.!.|.1.2.^./.| (.          ",
"          5.6.:.<.[.}.!.|.1.2.^.2 7.8.          ",
"          9.7 ,.[ 0.a.b.2 c.d.e.f.g.h.          ",
"              i.j.k.l.m.n.o.p.C q.r.s.          ",
"                    t.u.v.u.                    "};
