/* XPM */
static char * scleaner_xpm[] = {
"24 24 203 2",
"  	c None",
". 	c #201D1D",
"+ 	c #23211E",
"@ 	c #282521",
"# 	c #1F1D1C",
"$ 	c #5D573E",
"% 	c #A89B68",
"& 	c #EEDC8F",
"* 	c #F8E694",
"= 	c #BAAD73",
"- 	c #625A41",
"; 	c #21201D",
"> 	c #3D382C",
", 	c #968C5E",
"' 	c #ECDB8D",
") 	c #EBD180",
"! 	c #C49B4F",
"~ 	c #B9873B",
"{ 	c #8A662E",
"] 	c #B4924F",
"^ 	c #F4E18F",
"/ 	c #E4D389",
"( 	c #847A54",
"_ 	c #2C2924",
": 	c #201D1C",
"< 	c #39362B",
"[ 	c #B1A46D",
"} 	c #FDEA96",
"| 	c #D6B567",
"1 	c #CA923F",
"2 	c #E4A040",
"3 	c #A3722E",
"4 	c #412D12",
"5 	c #795522",
"6 	c #E39F3F",
"7 	c #D8973C",
"8 	c #B78E47",
"9 	c #ECD787",
"0 	c #F1DF90",
"a 	c #93885D",
"b 	c #2A2722",
"c 	c #201E1C",
"d 	c #413626",
"e 	c #BFA15E",
"f 	c #ECDA8C",
"g 	c #F9E390",
"h 	c #AF8945",
"i 	c #7B5925",
"j 	c #201C17",
"k 	c #252525",
"l 	c #2A2A2A",
"m 	c #272727",
"n 	c #24201B",
"o 	c #7C5826",
"p 	c #BF8736",
"q 	c #B18742",
"r 	c #F8E391",
"s 	c #FFEC98",
"t 	c #E2D188",
"u 	c #5C563D",
"v 	c #1E1D1D",
"w 	c #52452E",
"x 	c #E5A13F",
"y 	c #A1783A",
"z 	c #998250",
"A 	c #ECD98C",
"B 	c #EDDB8F",
"C 	c #837C5D",
"D 	c #585753",
"E 	c #606060",
"F 	c #585652",
"G 	c #8E8661",
"H 	c #F6E493",
"I 	c #FCE996",
"J 	c #CFBF7D",
"K 	c #D6C681",
"L 	c #EDDB8E",
"M 	c #AB9E6A",
"N 	c #1D1B1A",
"O 	c #25211D",
"P 	c #B58F4C",
"Q 	c #E7A748",
"R 	c #E3A040",
"S 	c #A57B3B",
"T 	c #AA9158",
"U 	c #F4E090",
"V 	c #C9BC84",
"W 	c #D3C586",
"X 	c #E7D68B",
"Y 	c #C1B276",
"Z 	c #BFB074",
"` 	c #FBE896",
" .	c #645D42",
"..	c #191818",
"+.	c #161615",
"@.	c #222427",
"#.	c #2A385A",
"$.	c #736552",
"%.	c #E0A448",
"&.	c #E7A240",
"*.	c #D39D48",
"=.	c #F6D17A",
"-.	c #FFEB98",
";.	c #F2E091",
">.	c #D0C17E",
",.	c #DACA84",
"'.	c #E6D58A",
").	c #A3996C",
"!.	c #68706A",
"~.	c #3C454D",
"{.	c #1E1C1B",
"].	c #201E1D",
"^.	c #1F2A4D",
"/.	c #222F54",
"(.	c #5B5555",
"_.	c #D9A34C",
":.	c #FCE28C",
"<.	c #FEEB97",
"[.	c #CDBD7C",
"}.	c #848062",
"|.	c #556777",
"1.	c #5B7AA2",
"2.	c #6A91C1",
"3.	c #6A96C7",
"4.	c #3D4F64",
"5.	c #3B4A73",
"6.	c #3F4C76",
"7.	c #3A476F",
"8.	c #2C385E",
"9.	c #243055",
"0.	c #5F5C5C",
"a.	c #8A7F59",
"b.	c #46515D",
"c.	c #4E688A",
"d.	c #6183AF",
"e.	c #658DBB",
"f.	c #638FC3",
"g.	c #5F90C6",
"h.	c #5D8FC8",
"i.	c #2C3540",
"j.	c #4D608C",
"k.	c #4C5B86",
"l.	c #45537D",
"m.	c #3D4A6E",
"n.	c #496186",
"o.	c #567AA8",
"p.	c #5B87BA",
"q.	c #588CC4",
"r.	c #578CC7",
"s.	c #568AC5",
"t.	c #212122",
"u.	c #4B608B",
"v.	c #46638A",
"w.	c #5180B5",
"x.	c #4A5F8A",
"y.	c #47668F",
"z.	c #4C74A3",
"A.	c #1D1B1B",
"B.	c #495E87",
"C.	c #5275A8",
"D.	c #456890",
"E.	c #1C1A18",
"F.	c #1C1B1A",
"G.	c #465B81",
"H.	c #415F81",
"I.	c #191817",
"J.	c #1C1A1A",
"K.	c #435679",
"L.	c #5173A4",
"M.	c #3B5573",
"N.	c #181615",
"O.	c #1B1919",
"P.	c #3E4D6B",
"Q.	c #496791",
"R.	c #384D67",
"S.	c #141212",
"T.	c #191715",
"U.	c #2A2E38",
"V.	c #4A5F88",
"W.	c #445F84",
"X.	c #2C3643",
"Y.	c #151313",
"Z.	c #394761",
"`.	c #4D5C88",
" +	c #40587B",
".+	c #4D78A9",
"++	c #34485D",
"@+	c #2C323E",
"#+	c #4C5F8B",
"$+	c #3D5370",
"%+	c #5385BC",
"&+	c #3F5D7F",
"*+	c #2A333E",
"=+	c #121010",
"-+	c #181717",
";+	c #232326",
">+	c #495F8A",
",+	c #374A63",
"'+	c #354A61",
")+	c #212123",
"!+	c #1F1D1D",
"~+	c #1F1F1F",
"{+	c #171616",
"                                                ",
"                  . + @ #                       ",
"            # + $ % & * = - ;                   ",
"        # > , ' ) ! ~ { ] ^ / ( _               ",
"    : < [ } | 1 2 3 4 5 6 7 8 9 0 a b c         ",
"    d e f g h i j k l m n o p q r s t u v       ",
"    w x y z A B C D E E F G H I J K L M N       ",
"    O P Q R S T U s V W s X Y Z H s `  ...      ",
"    +.@.#.$.%.&.*.=.-.;.>.,.s '.).!.~.{.        ",
"      ].^.^./.(._.&.:.<.[.}.|.1.2.3.4.          ",
"      # 5.6.7.8.9.0.a.b.c.d.e.f.g.h.i.          ",
"      # j.k.k.k.l.m.n.o.p.q.r.r.r.s.t.          ",
"      # u.k.k.k.k.k.v.r.r.r.r.r.r.w.#           ",
"      {.x.k.k.k.k.k.y.r.r.r.r.r.r.z.A.          ",
"      {.B.k.k.k.k.k.C.r.r.r.r.r.r.D.E.          ",
"      F.G.k.k.k.k.k.C.r.r.r.r.r.r.H.I.          ",
"      J.K.k.k.k.k.k.L.r.r.r.r.r.r.M.N.          ",
"      O.P.k.k.k.k.k.Q.r.r.r.r.r.r.R.S.          ",
"      T.U.V.k.k.k.k.W.r.r.r.r.r.r.X.            ",
"        Y.# Z.`.k.k. +r.r.r.r..+++#             ",
"            A.@+#+k.$+r.%+&+*+# N =+            ",
"              -+;+>+,+'+)+{.O.                  ",
"                  !+~+{.{+                      ",
"                                                "};
