/* XPM */
static char * scleaner_xpm[] = {
"24 24 324 2",
"  	c None",
". 	c #ECEEEF",
"+ 	c #E6EBEF",
"@ 	c #E3EAEF",
"# 	c #E3E9F0",
"$ 	c #E4ECF0",
"% 	c #E6ECF0",
"& 	c #CCCFD4",
"* 	c #BCCCDC",
"= 	c #BBD6EC",
"- 	c #ACCDE7",
"; 	c #9BC4E2",
"> 	c #B0CDE7",
", 	c #CFD6DC",
"' 	c #FFFFFF",
") 	c #FEFEFE",
"! 	c #F9F9F9",
"~ 	c #F5F5F5",
"{ 	c #F0F0F0",
"] 	c #EBEBEB",
"^ 	c #D3D3D4",
"/ 	c #D2D2DB",
"( 	c #A5AFC7",
"_ 	c #A6B6D8",
": 	c #C6D2E6",
"< 	c #D1DDED",
"[ 	c #CCDCEC",
"} 	c #AAC7E3",
"| 	c #ADCBE6",
"1 	c #E8F1F9",
"2 	c #C2D9F2",
"3 	c #A9BDD4",
"4 	c #D3D3D3",
"5 	c #F7F7F9",
"6 	c #D8D8E0",
"7 	c #99A3BB",
"8 	c #5D77B3",
"9 	c #5870AD",
"0 	c #5B6FAB",
"a 	c #8E99C2",
"b 	c #C6D0E4",
"c 	c #9AB8D9",
"d 	c #A4C4E2",
"e 	c #F0F6FB",
"f 	c #8FB9EA",
"g 	c #89B5E8",
"h 	c #A4B9D2",
"i 	c #D1D1D1",
"j 	c #EEEEEE",
"k 	c #EDEDED",
"l 	c #D4D4D8",
"m 	c #A1A7B5",
"n 	c #5368A7",
"o 	c #4F61A1",
"p 	c #4A5B9B",
"q 	c #B5BCD7",
"r 	c #92B0D1",
"s 	c #BAD2E9",
"t 	c #DDEBF8",
"u 	c #8BB7E9",
"v 	c #A1B7CF",
"w 	c #E6E6E6",
"x 	c #E0E0E0",
"y 	c #DEDEDE",
"z 	c #D6D8DD",
"A 	c #6C84BC",
"B 	c #657AB4",
"C 	c #5C6EAA",
"D 	c #4D5E9D",
"E 	c #9AA3C7",
"F 	c #B1C4DE",
"G 	c #87ADD4",
"H 	c #F3F6FA",
"I 	c #C9DEF4",
"J 	c #8CB8EA",
"K 	c #B2BBC9",
"L 	c #E7E7E7",
"M 	c #E2E2E2",
"N 	c #7088BF",
"O 	c #6D82BA",
"P 	c #6A7CB5",
"Q 	c #9AA6CB",
"R 	c #ECF0F7",
"S 	c #87AFD5",
"T 	c #699CCC",
"U 	c #CECFDC",
"V 	c #E7E9F0",
"W 	c #EFF4FA",
"X 	c #E0E5EB",
"Y 	c #FBFDFE",
"Z 	c #EFEFEF",
"` 	c #E8E8E8",
" .	c #D8DADE",
"..	c #8FA2CD",
"+.	c #B8C6E2",
"@.	c #E2EAF5",
"#.	c #EBF3FA",
"$.	c #FEFEFF",
"%.	c #659ACC",
"&.	c #B3C2D8",
"*.	c #D2D2DD",
"=.	c #D5D5DF",
"-.	c #DCDDE5",
";.	c #E1E7F0",
">.	c #E7EEF6",
",.	c #EBF1F7",
"'.	c #EAF0F6",
").	c #EAEFF4",
"!.	c #E9EFF4",
"~.	c #E8EEF4",
"{.	c #E7EEF5",
"].	c #E6EEF5",
"^.	c #E2ECF5",
"/.	c #E2EEF8",
"(.	c #F4F8FD",
"_.	c #DFEBF5",
":.	c #95B7D8",
"<.	c #D5D7E1",
"[.	c #D8D8E2",
"}.	c #DBDBE4",
"|.	c #DEDEE6",
"1.	c #E1E1E9",
"2.	c #E4E4EB",
"3.	c #E7E7ED",
"4.	c #EBEBF0",
"5.	c #EEEEF2",
"6.	c #F1F1F4",
"7.	c #F4F4F7",
"8.	c #FAFAFB",
"9.	c #FDFDFE",
"0.	c #F3F8FC",
"a.	c #91B8DE",
"b.	c #89AFD5",
"c.	c #E4EFF9",
"d.	c #DCE4EF",
"e.	c #C9D1E0",
"f.	c #DADBE5",
"g.	c #F9FBFD",
"h.	c #D5E6F5",
"i.	c #BFD7EF",
"j.	c #C1DAF1",
"k.	c #73A2D3",
"l.	c #78A1CD",
"m.	c #E2EFF9",
"n.	c #DEECF8",
"o.	c #A2C0DA",
"p.	c #A8CCEA",
"q.	c #A6C7E5",
"r.	c #AAC7E4",
"s.	c #A9C6E2",
"t.	c #ACC7E3",
"u.	c #B0C9E3",
"v.	c #B3CCE5",
"w.	c #B4CDE5",
"x.	c #A8C7E4",
"y.	c #9ABFE2",
"z.	c #7FAEDA",
"A.	c #5F9BD1",
"B.	c #5391CA",
"C.	c #A9C9E6",
"D.	c #B7D4EE",
"E.	c #699BCE",
"F.	c #D1E2F2",
"G.	c #DBEBF7",
"H.	c #A8C4DD",
"I.	c #A6CBEA",
"J.	c #97C1E5",
"K.	c #89B8E0",
"L.	c #7AAEDB",
"M.	c #699FCE",
"N.	c #7799BA",
"O.	c #ABB8C9",
"P.	c #5590C6",
"Q.	c #5A98D1",
"R.	c #5896CF",
"S.	c #5C9AD3",
"T.	c #6CA5DB",
"U.	c #A9CAE8",
"V.	c #A4C5E3",
"W.	c #5A8DC5",
"X.	c #A3C1DF",
"Y.	c #D8E9F7",
"Z.	c #AEC8DF",
"`.	c #81AFD7",
" +	c #C8CCD7",
".+	c #E6E6EC",
"++	c #EEEEF3",
"@+	c #AFBDCB",
"#+	c #7596B5",
"$+	c #5895CD",
"%+	c #75A9DA",
"&+	c #A0C5E7",
"*+	c #90B9E1",
"=+	c #93B3D7",
"-+	c #D5E7F6",
";+	c #BDD6EC",
">+	c #96BBDA",
",+	c #86B0D5",
"'+	c #7E9AB5",
")+	c #6790B6",
"!+	c #87ABCE",
"~+	c #E5E6EC",
"{+	c #F3F3F5",
"]+	c #829CB4",
"^+	c #5290C9",
"/+	c #5B99D2",
"(+	c #83B4E1",
"_+	c #8EB7DD",
":+	c #77A5D4",
"<+	c #8BABD2",
"[+	c #D2E6F6",
"}+	c #C4DCF1",
"|+	c #A2C7E8",
"1+	c #95BFE4",
"2+	c #B9BFCF",
"3+	c #AAB5C4",
"4+	c #6DA5D9",
"5+	c #80ADD8",
"6+	c #9FB9D3",
"7+	c #90B7DD",
"8+	c #E8ECEF",
"9+	c #5894CB",
"0+	c #62A0D9",
"a+	c #7BABD6",
"b+	c #89B5DF",
"c+	c #6D9BCD",
"d+	c #799DCA",
"e+	c #CBE1F3",
"f+	c #BFD8EC",
"g+	c #9EC2E3",
"h+	c #8EB8DF",
"i+	c #A8B7CC",
"j+	c #C3C8D3",
"k+	c #699CCB",
"l+	c #629BCF",
"m+	c #62A0DA",
"n+	c #609ED9",
"o+	c #E2E8EE",
"p+	c #E4EAEE",
"q+	c #619ED6",
"r+	c #5794CC",
"s+	c #7DADDA",
"t+	c #7EAEDB",
"u+	c #6895C9",
"v+	c #A9C5E1",
"w+	c #BFD9EF",
"x+	c #A1C5E2",
"y+	c #91BBDF",
"z+	c #96BDE0",
"A+	c #D9DAE3",
"B+	c #B9C2CD",
"C+	c #CED5DE",
"D+	c #87A1B9",
"E+	c #5590CA",
"F+	c #79A9D9",
"G+	c #619DD6",
"H+	c #73A8D8",
"I+	c #587DAB",
"J+	c #A3B9D6",
"K+	c #C2DAEF",
"L+	c #9BBEE0",
"M+	c #87B1DA",
"N+	c #7DACD7",
"O+	c #93B6D6",
"P+	c #E7E9EE",
"Q+	c #BDCAD5",
"R+	c #5D9AD2",
"S+	c #5694CD",
"T+	c #619CD3",
"U+	c #69A1D5",
"V+	c #94B3D3",
"W+	c #9FB3D1",
"X+	c #E2E3EB",
"Y+	c #CDDEEF",
"Z+	c #95BCE1",
"`+	c #81B0DC",
" @	c #80B4E2",
".@	c #80B1DE",
"+@	c #F2F5F7",
"@@	c #B8CADC",
"#@	c #79ADDB",
"$@	c #619FD8",
"%@	c #5B98D1",
"&@	c #79A6D3",
"*@	c #C4CDE0",
"=@	c #B0C1D9",
"-@	c #97ADCE",
";@	c #CFD0DC",
">@	c #DFE6F0",
",@	c #BCD4ED",
"'@	c #A1C4E6",
")@	c #8AB6E0",
"!@	c #84AED7",
"~@	c #8FB3D8",
"{@	c #B8CAE1",
"]@	c #E0E3EB",
"^@	c #F3F3F6",
"/@	c #A0B4D1",
"(@	c #8DA0C1",
"_@	c #D3D3DE",
":@	c #D9D9E3",
"<@	c #DDDDE6",
"[@	c #EAEAEF",
"}@	c #EDEDF1",
"|@	c #F6F6F8",
"1@	c #C4CDDF",
"2@	c #8AA3C5",
"3@	c #8296BD",
"4@	c #BCC0D3",
"5@	c #F2F2F5",
"6@	c #F8F8FA",
"7@	c #DFE2EB",
"8@	c #91A2C4",
"9@	c #88A2C8",
"0@	c #6081B5",
"a@	c #7B93BD",
"b@	c #95A8C9",
"c@	c #9AADCC",
"d@	c #A6B6D2",
"e@	c #ABBBD4",
"f@	c #9FB1CF",
"g@	c #9AAFCE",
"h@	c #889EC4",
"i@	c #7090BD",
"            . + @ # $ % & * = - ;               ",
"        > , ' ) ! ~ { ] ^ / ( _ : < [ }         ",
"    | 1 2 3 ' ) ! ~ { ] 4 5 6 7 8 9 0 a b c     ",
"  d e f g h ' ) ! ~ { ] i j k l m 9 n o p q r   ",
"  s t u g v ' ) ! ~ { ] w x y y z A B C D E F   ",
"  G H I J K ' ) ! ~ { ] L M x x z N O P Q R S   ",
"  T U V W X Y ) ! ~ Z ` M x x x  ...+.@.#.$.%.  ",
"    &.*.=.-.;.>.,.'.'.).!.~.{.].^./.(.' ' _.    ",
"    :.<.=.[.}.|.1.2.3.4.5.6.7.5 8.9.' ' 0.a.    ",
"    b.c.d.e.f.|.1.2.3.4.5.6.7.5 8.g.h.i.j.k.    ",
"    l.m.n.o.p.q.r.s.t.u.v.w.x.y.z.A.B.C.D.E.    ",
"      F.G.H.I.J.K.L.M.N.O.P.Q.Q.R.S.T.U.V.W.    ",
"      X.Y.Z.I.J.K.`. +.+++@+#+$+R.Q.%+&+*+      ",
"      =+-+;+>+,+'+)+!+~+{+' ' ]+^+/+(+_+:+      ",
"      <+[+}+|+1+2+3+4+5+6+7+) 8+9+0+a+b+c+      ",
"      d+e+f+g+h+i+j+k+l+m+n+o+p+q+r+s+t+u+      ",
"        v+w+x+y+z+A+B+C+D+E+F+G+R.A.H+H+I+      ",
"        J+K+L+M+N+O+P+8.' Q+R+S.S+T+U+V+        ",
"        W+X+Y+Z+`+ @.@+@@@#@$@S+%@&@*@=@        ",
"        -@;@[.3.>@,@'@)@t+!@~@{@]@^@' /@        ",
"          (@_@:@<@1.3.[@}@6.|@8.' ' 1@2@        ",
"            3@4@}.1..+[@5.5@|@6@7@8@9@          ",
"              0@a@b@c@d@e@f@g@h@i@              ",
"                                                "};
