/* XPM */
static char * scleaner_root_xpm[] = {
"24 24 197 2",
"  	c None",
". 	c #1F1D1B",
"+ 	c #1F1D1C",
"@ 	c #4D4735",
"# 	c #464131",
"$ 	c #1E1C1C",
"% 	c #4C4634",
"& 	c #978C5F",
"* 	c #E2D188",
"= 	c #FBE894",
"- 	c #F9E694",
"; 	c #DDCC85",
"> 	c #837A53",
", 	c #2F2C25",
"' 	c #1E1D1D",
") 	c #1F1D1D",
"! 	c #2A2722",
"~ 	c #796F4E",
"{ 	c #D5C580",
"] 	c #FCE692",
"^ 	c #CAA65C",
"/ 	c #C79140",
"( 	c #A37430",
"_ 	c #AC7A31",
": 	c #AE8844",
"< 	c #E7D183",
"[ 	c #F8E694",
"} 	c #A59A66",
"| 	c #3F3A2D",
"1 	c #23211E",
"2 	c #7C734F",
"3 	c #EDDB8E",
"4 	c #F0D886",
"5 	c #C49648",
"6 	c #E19E3F",
"7 	c #CA8D38",
"8 	c #6C4B1E",
"9 	c #191107",
"0 	c #785421",
"a 	c #DE9C3D",
"b 	c #E29F3F",
"c 	c #B7893F",
"d 	c #DDC679",
"e 	c #FDEA97",
"f 	c #B3A56E",
"g 	c #1E1C1A",
"h 	c #A58348",
"i 	c #B3995D",
"j 	c #F4E091",
"k 	c #EED888",
"l 	c #AA8443",
"m 	c #4B381D",
"n 	c #212020",
"o 	c #2F2F2F",
"p 	c #303030",
"q 	c #2E2E2E",
"r 	c #262320",
"s 	c #6C4E25",
"t 	c #A97D3F",
"u 	c #B48F4A",
"v 	c #FAE593",
"w 	c #FFEC98",
"x 	c #E9D88C",
"y 	c #786E4D",
"z 	c #1F1C1B",
"A 	c #1A1817",
"B 	c #BA914B",
"C 	c #DF9D3E",
"D 	c #967439",
"E 	c #9D8954",
"F 	c #F4E190",
"G 	c #EDDB8F",
"H 	c #847D5E",
"I 	c #5C5B57",
"J 	c #646464",
"K 	c #68696B",
"L 	c #A8AAAE",
"M 	c #EAEBED",
"N 	c #D6D9DF",
"O 	c #D4C890",
"P 	c #CBBC7B",
"Q 	c #D6C681",
"R 	c #F3E192",
"S 	c #B9AB71",
"T 	c #1D1B1B",
"U 	c #191717",
"V 	c #473D2B",
"W 	c #C69A4E",
"X 	c #E7A543",
"Y 	c #DE9C3E",
"Z 	c #A07A3D",
"` 	c #B0995D",
" .	c #FBE896",
"..	c #CFC286",
"+.	c #B4AE8D",
"@.	c #ECEDF0",
"#.	c #FFFFFF",
"$.	c #9FA29C",
"%.	c #FCE996",
"&.	c #6A6246",
"*.	c #1B1A18",
"=.	c #1D1A1A",
"-.	c #2D3A55",
";.	c #313E5B",
">.	c #8F7650",
",.	c #E6A546",
"'.	c #E5A13F",
").	c #D7A34E",
"!.	c #F8D77F",
"~.	c #E1D087",
"{.	c #AAAEB4",
"].	c #B3B7BB",
"^.	c #9C936B",
"/.	c #636D6C",
"(.	c #3A4651",
"_.	c #1E1C1B",
":.	c #121212",
"<.	c #1A1918",
"[.	c #2F3C58",
"}.	c #1F2A4D",
"|.	c #482844",
"1.	c #776752",
"2.	c #E5A649",
"3.	c #E8A443",
"4.	c #A0A197",
"5.	c #C5C9D3",
"6.	c #9C617F",
"7.	c #AF506A",
"8.	c #3F536B",
"9.	c #141313",
"0.	c #1A1917",
"a.	c #303C52",
"b.	c #CC0000",
"c.	c #741B2E",
"d.	c #A00E17",
"e.	c #7B6D58",
"f.	c #7E795A",
"g.	c #435060",
"h.	c #9A5062",
"i.	c #E0E2E7",
"j.	c #FF0000",
"k.	c #2E3B47",
"l.	c #303849",
"m.	c #B90A0F",
"n.	c #FDFDFD",
"o.	c #F5F5F7",
"p.	c #ACB3C1",
"q.	c #232427",
"r.	c #2A303A",
"s.	c #7C8CA6",
"t.	c #5A7CA7",
"u.	c #232429",
"v.	c #1E1B1A",
"w.	c #1C1B19",
"x.	c #1B1918",
"y.	c #191616",
"z.	c #161414",
"A.	c #B0B5C2",
"B.	c #D7DAE0",
"C.	c #6A748B",
"D.	c #1D1C1B",
"E.	c #304051",
"F.	c #788196",
"G.	c #A8ADBA",
"H.	c #1D1B1A",
"I.	c #2C313D",
"J.	c #201F1F",
"K.	c #B7BAC1",
"L.	c #E3E3E3",
"M.	c #E7E8E8",
"N.	c #565C6E",
"O.	c #191818",
"P.	c #212121",
"Q.	c #24262B",
"R.	c #1C1C1A",
"S.	c #5E6778",
"T.	c #3D4457",
"U.	c #828897",
"V.	c #BFC0C1",
"W.	c #969BA7",
"X.	c #2A3540",
"Y.	c #191816",
"Z.	c #373E4D",
"`.	c #A0A5B3",
" +	c #848C9E",
".+	c #515A6C",
"++	c #646C82",
"@+	c #424959",
"#+	c #2D3542",
"$+	c #25282E",
"%+	c #1C1B1A",
"&+	c #141412",
"*+	c #7B8296",
"=+	c #C8CCD4",
"-+	c #A6ABB9",
";+	c #808898",
">+	c #181615",
"                                                ",
"              . + @ # + $                       ",
"        + + % & * = - ; > , '                   ",
"    ) ! ~ { ] ^ / ( _ : < [ } | .               ",
"  1 2 3 4 5 6 7 8 9 0 a b c d e f | +           ",
"g h i j k l m n o p q r s t u v w x y z         ",
"A B C D E F G H I J K L M N O P Q R S T         ",
"U V W X Y Z `  .w ..+.@.#.#.$.%.w [ &.*.        ",
"  =.-.;.>.,.'.).!.w ~.{.#.#.].^./.(._.:.        ",
"  <.[.}.}.|.1.2.3.w %.4.#.#.5.6.7.8.9.          ",
"  0.a.b.b.b.c.d.e.f.g.h.#.#.i.j.j.k.            ",
"  U l.b.b.b.b.m.b.b.j.j.n.o.p.j.j.q.            ",
"    r.b.b.b.b.b.b.b.j.j.s.t.j.j.j._.            ",
"    u.b.b.b.b.b.b.b.j.j.j.j.j.j.j.v.            ",
"    + b.b.b.b.b.b.b.j.j.j.j.j.j.j.w.            ",
"    + b.b.b.b.b.b.b.j.j.j.j.j.j.j.x.            ",
"    + b.b.b.b.b.b.b.j.j.j.j.j.j.j.y.            ",
"    + b.b.b.b.b.b.b.j.j.j.j.j.j.j.z.    A.B.C.  ",
"    D.b.b.b.b.b.b.b.j.j.j.j.j.j.E.:.  F.n.#.G.  ",
"      H.I.b.b.b.b.b.j.j.j.j.j.j.J.    K.L.M.N.  ",
"        O.P.b.b.b.b.j.j.j.j.Q.+ R.S.T.U.V.W.    ",
"            $ b.b.b.b.X.+ + Y.Z.`. +.+  ++@+    ",
"              *.#+$++ %+&+    *+=+-+;+          ",
"                  >+                            "};
