/* XPM */
static char * select_xpm[] = {
"48 60 82 1",
" 	c None",
".	c #000000",
"+	c #2E2E2E",
"@	c #C6C6C6",
"#	c #F9F9F9",
"$	c #C5C5C5",
"%	c #1E1E1E",
"&	c #040404",
"*	c #FAFAFA",
"=	c #FDFDFD",
"-	c #0A0A0A",
";	c #929292",
">	c #FFFFFF",
",	c #262626",
"'	c #D7D7D7",
")	c #373737",
"!	c #3D3D3D",
"~	c #8C8C8C",
"{	c #252525",
"]	c #D8D8D8",
"^	c #1A1A1A",
"/	c #F1F1F1",
"(	c #010101",
"_	c #EFEFEF",
":	c #5A5A5A",
"<	c #070707",
"[	c #E1E1E1",
"}	c #F6F6F6",
"|	c #101010",
"1	c #A2A2A2",
"2	c #F4F4F4",
"3	c #E7E7E7",
"4	c #585858",
"5	c #121212",
"6	c #C0C0C0",
"7	c #737373",
"8	c #4D4D4D",
"9	c #BFBFBF",
"0	c #404040",
"a	c #BABABA",
"b	c #6B6B6B",
"c	c #888888",
"d	c #747474",
"e	c #9C9C9C",
"f	c #EEEEEE",
"g	c #EAEAEA",
"h	c #2A2A2A",
"i	c #808080",
"j	c #F2F2F2",
"k	c #444444",
"l	c #EBEBEB",
"m	c #5C5C5C",
"n	c #AEAEAE",
"o	c #151515",
"p	c #E6E6E6",
"q	c #B3B3B3",
"r	c #7D7D7D",
"s	c #505050",
"t	c #080808",
"u	c #4A4A4A",
"v	c #CCCCCC",
"w	c #202020",
"x	c #878787",
"y	c #848484",
"z	c #313131",
"A	c #C2C2C2",
"B	c #9B9B9B",
"C	c #171717",
"D	c #B5B5B5",
"E	c #FBFBFB",
"F	c #222222",
"G	c #686868",
"H	c #EDEDED",
"I	c #A5A5A5",
"J	c #C7C7C7",
"K	c #969696",
"L	c #050505",
"M	c #DEDEDE",
"N	c #E0E0E0",
"O	c #CACACA",
"P	c #3F3F3F",
"Q	c #1B1B1B",
"................................................",
"................................................",
"................................................",
"................................................",
".........+@#$%.&*=-..................;>>>,......",
".........'>)!~.{>]....................^>/(......",
"........._>:.<[>>>}|12345>#6/7........8>9.......",
".........0a>b..c>d.e>8>f)>gh>}........i>~.......",
"...........>j..9>k._>>>lm>no>p........q>4.......",
".......rstu>v../>w./>%..i>;x>y........p>{.......",
".......zA*3BC..DE>FGH>/-I>J/KL......M>>>N.......",
"........................O>P.....................",
"........................f>Q.....................",
"................................................",
"................................................",
"................................................",
"                                                ",
"                                                ",
"                                                ",
"                                                ",
"                                                ",
"                                                ",
"                   ...                          ",
"        ...         ..                ..        ",
"       ..  .        ..                ..        ",
"       ..    ...   ..    ...    .........       ",
"        ..  .. ..  ..   .. ..  ...   ..         ",
"         .. .....  ..   .....  ..    ..         ",
"         .. ..     ..   ..     ..    ..         ",
"      ....   ...   ....  ...    ...  ...        ",
"                                                ",
"                                                ",
"                                                ",
"                                                ",
"                                                ",
"         ..                                     ",
"         ..                   ..                ",
"                              ..                ",
"       ...   .... ....  .. ......               ",
"        ..   .. . .. .. .. . ..                 ",
"       ..   ... . .. .... .. ..                 ",
"       ..   .. . ........ .  ..                 ",
"      ..... .. . ..... ....  ...                ",
"                 ..                             ",
"                 ..                             ",
"                                                ",
"                                                ",
"                                                ",
"            ...                ..               ",
"             ..                ..               ",
"             ..                                 ",
"      ....  ..    .. . ....  ...   ....   ...   ",
"      .. .. ..    .. ......   ..   .. .  ..     ",
"      .. .. ..   .. .... ..  ..   ... .   ...   ",
"     ...... ..   .. . ....   ..   .. .     ..   ",
"     .....  .... ....  ...  ..... .. .  ....    ",
"     ..                 ..                      ",
"     ..               ...                       ",
"                                                ",
"                                                "};
