/* XPM */
static char * select_xpm[] = {
"32 32 26 1",
" 	c None",
".	c #519D07",
"+	c #509C07",
"@	c #509B07",
"#	c #509C05",
"$	c #82BE48",
"%	c #E4F6D3",
"&	c #D6F1BC",
"*	c #7ABB3C",
"=	c #519E08",
"-	c #D8F3BE",
";	c #D2F3B2",
">	c #94E149",
",	c #B6E688",
"'	c #509D07",
")	c #509E07",
"!	c #B8E88A",
"~	c #92E045",
"{	c #86D934",
"]	c #A5DF6B",
"^	c #6BB225",
"/	c #9FDC64",
"(	c #9ADA5C",
"_	c #66B01E",
":	c #509D05",
"<	c #878A86",
"                                ",
" .+@#                           ",
" $%&*                           ",
"=-;>,'                          ",
")!~{]'                          ",
" ^/(_                           ",
" :@@#                           ",
"                                ",
"                                ",
" .+@#                           ",
" $%&*                           ",
"=-;>,'                          ",
")!~{]'                          ",
" ^/(_         <                 ",
" :@@#                           ",
"                                ",
"                                ",
" .+@#                           ",
" $%&*                           ",
"=-;>,'                          ",
")!~{]'                          ",
" ^/(_                           ",
" :@@#                           ",
"                                ",
"                                ",
" .+@#                           ",
" $%&*                           ",
"=-;>,'                          ",
")!~{]'                          ",
" ^/(_                           ",
" :@@#                           ",
"                                "};
