/* XPM */
static char * select_xpm[] = {
"32 32 168 2",
"  	c None",
". 	c #0D3C07",
"+ 	c #0E3E07",
"@ 	c #13550A",
"# 	c #276F1E",
"$ 	c #226819",
"% 	c #114D09",
"& 	c #0D3C08",
"* 	c #0E4108",
"= 	c #38882D",
"- 	c #6EC363",
"; 	c #8AD380",
"> 	c #82D077",
", 	c #94D78B",
"' 	c #A2DC9A",
") 	c #7BC071",
"! 	c #15590C",
"~ 	c #114C09",
"{ 	c #269F16",
"] 	c #2AAF18",
"^ 	c #26A415",
"/ 	c #229612",
"( 	c #249D13",
"_ 	c #29AC17",
": 	c #4DBC3E",
"< 	c #86D17C",
"[ 	c #1B6D0F",
"} 	c #0E4208",
"| 	c #269E16",
"1 	c #2AAE17",
"2 	c #239812",
"3 	c #1E8B0F",
"4 	c #208E10",
"5 	c #1F8C10",
"6 	c #1F8F11",
"7 	c #27A616",
"8 	c #31B21F",
"9 	c #5EC250",
"0 	c #17630D",
"a 	c #0D3C06",
"b 	c #196B0E",
"c 	c #28A816",
"d 	c #29AB17",
"e 	c #229411",
"f 	c #13580A",
"g 	c #1D860F",
"h 	c #26A315",
"i 	c #36B325",
"j 	c #50BA42",
"k 	c #114809",
"l 	c #1C790F",
"m 	c #1E8C10",
"n 	c #1F8D10",
"o 	c #1D850F",
"p 	c #0D4008",
"q 	c #0E3C07",
"r 	c #0D3F08",
"s 	c #1D810F",
"t 	c #27A516",
"u 	c #43B833",
"v 	c #27881A",
"w 	c #0F4508",
"x 	c #17650D",
"y 	c #1B760F",
"z 	c #104608",
"A 	c #0D3B07",
"B 	c #0D3D07",
"C 	c #104B09",
"D 	c #1E8710",
"E 	c #1B740E",
"F 	c #1E8810",
"G 	c #1F8E10",
"H 	c #29AD17",
"I 	c #2DB01C",
"J 	c #73CA67",
"K 	c #1A6F0F",
"L 	c #6D260C",
"M 	c #17660C",
"N 	c #1F8B10",
"O 	c #26A515",
"P 	c #55BF47",
"Q 	c #E4F5E2",
"R 	c #18680D",
"S 	c #B01911",
"T 	c #1A710D",
"U 	c #40B730",
"V 	c #BFE7B9",
"W 	c #12530B",
"X 	c #0E3F07",
"Y 	c #1E8610",
"Z 	c #219312",
"` 	c #32B221",
" .	c #89D37F",
"..	c #29AA17",
"+.	c #B11810",
"@.	c #BA150E",
"#.	c #B01811",
"$.	c #13540A",
"%.	c #1F8C0F",
"&.	c #209211",
"*.	c #47BA38",
"=.	c #228D13",
"-.	c #D00C08",
";.	c #DF0604",
">.	c #B11911",
",.	c #13560B",
"'.	c #1F8E11",
").	c #209010",
"!.	c #28A917",
"~.	c #2DB01B",
"{.	c #17640D",
"].	c #B11A11",
"^.	c #EC0000",
"/.	c #ED0000",
"(.	c #CA0F0A",
"_.	c #0E3C08",
":.	c #0E4209",
"<.	c #1E850F",
"[.	c #1F8D0F",
"}.	c #26A115",
"|.	c #0E3F09",
"1.	c #E00504",
"2.	c #E90101",
"3.	c #B5160F",
"4.	c #B01A11",
"5.	c #16620C",
"6.	c #239712",
"7.	c #1B730F",
"8.	c #C90F0A",
"9.	c #DA0805",
"0.	c #15610C",
"a.	c #196C0D",
"b.	c #0D3E07",
"c.	c #AF1910",
"d.	c #B41710",
"e.	c #EA0101",
"f.	c #C2120C",
"g.	c #093826",
"h.	c #0A391A",
"i.	c #0A3A1C",
"j.	c #043452",
"k.	c #BB140E",
"l.	c #C2110C",
"m.	c #002E77",
"n.	c #002F77",
"o.	c #003077",
"p.	c #0D3D86",
"q.	c #2E60AC",
"r.	c #3C6FBC",
"s.	c #3E72C0",
"t.	c #3D70BE",
"u.	c #3365B2",
"v.	c #15468F",
"w.	c #002E78",
"x.	c #4E82D1",
"y.	c #558ADA",
"z.	c #5589D9",
"A.	c #083881",
"B.	c #5085D4",
"C.	c #0A3983",
"D.	c #002F76",
"E.	c #386BB9",
"F.	c #4477C6",
"G.	c #03327B",
"H.	c #174792",
"I.	c #1C4D98",
"J.	c #194A94",
"K.	c #003078",
"                                                                ",
"                            . . . .                             ",
"                        . + @ # $ % . &                         ",
"                      * = - ; > , ' ) ! .                       ",
"                    ~ { ] ] ^ / ( _ : < [ &                     ",
"                  } | ] 1 2 3 4 5 6 7 8 9 0 a                   ",
"                . b c d e 5 f . ~ g 5 h i j k . . . .           ",
"                . l m n o p .   q r s m t u v w x y z A         ",
"                B C D E B           + F G H ] I J ] K B         ",
"                L . . .             . M N O ] P Q ] R .         ",
"              S S                 B T n 7 ] ] U V ] W           ",
"            S S S S             X Y Z d ] ] ] `  ...+           ",
"            S +.@.S #.          $.%.&._ ] ] ] I *.=..           ",
"          S S -.;.>.S           B ,.'.).!.] ] ~.] {.            ",
"        ].S @.^./.(.S >.          _.:.<.[.}.] ] c |.            ",
"        S S 1././.2.3.S 4.          . . 5.5 6.H 7.A             ",
"      S S 8././././.9.S S               . B 0.a.b.              ",
"    c.S d.e./././././.f.S S               g.h.i.j.              ",
"    S S k.8.8.8.8.8.8.l.S S           m.n.n.n.n.n.n.n.n.o.      ",
"    S S S S S S S S S S S S #.      n.n.n.n.n.n.n.n.n.n.n.n.    ",
"                                    n.n.p.q.r.s.s.t.u.v.n.n.n.  ",
"                                  w.n.n.x.y.y.y.y.y.y.z.A.n.n.  ",
"                                  o.n.n.B.y.y.y.y.y.y.y.C.n.n.  ",
"                                  o.n.n.B.y.y.y.y.y.y.y.C.n.n.  ",
"                                  o.n.n.B.y.y.y.y.y.y.y.C.n.n.  ",
"                                  o.n.n.B.y.y.y.y.y.y.y.C.n.n.  ",
"                                  o.n.n.B.y.y.y.y.y.y.y.C.n.n.  ",
"                                  D.n.n.E.z.y.y.y.y.y.F.G.n.o.  ",
"                                    n.n.n.C.H.I.I.J.p.n.n.n.    ",
"                                      n.n.n.n.n.n.n.n.n.n.D.    ",
"                                        n.K.n.n.n.n.m.n.        ",
"                                                                "};
