/* XPM */
static char * select_fr_xpm[] = {
"48 60 80 1",
" 	c None",
".	c #000000",
"+	c #121212",
"@	c #FFFFFF",
"#	c #DCDCDC",
"$	c #040404",
"%	c #FAFAFA",
"&	c #FDFDFD",
"*	c #0A0A0A",
"=	c #929292",
"-	c #262626",
";	c #373737",
">	c #CDCDCD",
",	c #252525",
"'	c #D8D8D8",
")	c #1A1A1A",
"!	c #F1F1F1",
"~	c #010101",
"{	c #5C5C5C",
"]	c #A7A7A7",
"^	c #E1E1E1",
"/	c #F6F6F6",
"(	c #030303",
"_	c #868686",
":	c #F7F7F7",
"<	c #8E8E8E",
"[	c #F9F9F9",
"}	c #C0C0C0",
"|	c #737373",
"1	c #0D0D0D",
"2	c #A2A2A2",
"3	c #F4F4F4",
"4	c #E7E7E7",
"5	c #585858",
"6	c #4D4D4D",
"7	c #BFBFBF",
"8	c #808080",
"9	c #EFEFEF",
"0	c #020202",
"a	c #888888",
"b	c #747474",
"c	c #090909",
"d	c #EAEAEA",
"e	c #2A2A2A",
"f	c #9C9C9C",
"g	c #EEEEEE",
"h	c #8C8C8C",
"i	c #A5A5A5",
"j	c #5F5F5F",
"k	c #444444",
"l	c #5D5D5D",
"m	c #DEDEDE",
"n	c #C7C7C7",
"o	c #AEAEAE",
"p	c #151515",
"q	c #E6E6E6",
"r	c #EBEBEB",
"s	c #B3B3B3",
"t	c #C9C9C9",
"u	c #3D3D3D",
"v	c #202020",
"w	c #F3F3F3",
"x	c #878787",
"y	c #848484",
"z	c #1E1E1E",
"A	c #979797",
"B	c #B5B5B5",
"C	c #FBFBFB",
"D	c #222222",
"E	c #A9A9A9",
"F	c #FEFEFE",
"G	c #1F1F1F",
"H	c #969696",
"I	c #050505",
"J	c #686868",
"K	c #EDEDED",
"L	c #E0E0E0",
"M	c #CACACA",
"N	c #3F3F3F",
"O	c #1B1B1B",
"................................................",
"................................................",
"................................................",
"................................................",
"....+@@@@#.$%&*........................=@@@-....",
"....;@>....,@'..........................)@!~....",
"....{@]...^@@@/(_@:<+@[}!|12345.........6@7.....",
"....8@@@90.a@b...c@/;@de@/f@6@g.........8@h.....",
"....i@j....7@k.lm&@n{@op@q9@@@r.........s@5.....",
"....t@u....!@v.w{]@|8@=x@y!@z...........q@,.....",
"....g@@@A..BC@DE4F@Gi@n!HIJK@!*.......m@@@L.....",
"....................M@N.........................",
"....................g@O.........................",
"................................................",
"................................................",
"................................................",
"                                                ",
"                                                ",
"                                                ",
"                                                ",
"                                                ",
"        ..            ..          ..            ",
"    ... ..            ..          ..            ",
"   ..   ..                                      ",
"  ..    ....  ...   ...    ...  ...    ....     ",
"  ..    .. . .. ..   ..   ..     ..    ..       ",
"  ..   ... . .. ..  ..     ...  ..    ...       ",
"  ..   .. .  .. ..  ..      ..  ..    ..        ",
"   ..  .. .   ...  ..... ....  .....  ..        ",
"                                                ",
"                                                ",
"                                                ",
"                                                ",
"                                                ",
"   ...                                          ",
"    ..                                          ",
"    ..                                          ",
"   ..    ...    ...                             ",
"   ..   .. ..  ..                               ",
"   ..   .....   ...                             ",
"   ..   ..       ..                             ",
"   ....  ...  ....                              ",
"                                                ",
"                                                ",
"                                                ",
"                                                ",
"                                                ",
"                       ...  ...                 ",
"                      ..   ..                   ",
"                      ..   ..                   ",
"   ....   .... ...   ......... ...   ....   ... ",
"  .....   ..  .. ..   ..   .. .. ..  .. .  ..   ",
"  .. ..  ...  .....   ..   .. .. .. ... .   ... ",
"  ....   ..   ..     ..   ..  .. .. .. .     .. ",
"   ...   ..    ...   ..   ..   ...  .. .  ....  ",
"    ..                                          ",
"  ...                                           ",
"                                                ",
"                                                ",
"                                                "};
