/* XPM */
static char * stop_xpm[] = {
"48 60 256 2",
"  	c None",
". 	c #020204",
"+ 	c #768294",
"@ 	c #BEC2D3",
"# 	c #96A2AC",
"$ 	c #BEA2A4",
"% 	c #B28284",
"& 	c #C2B2C4",
"* 	c #D2B6B4",
"= 	c #AE92A7",
"- 	c #89929C",
"; 	c #A4B2BC",
"> 	c #FEFEFC",
", 	c #D0A298",
"' 	c #564E54",
") 	c #CCD2E4",
"! 	c #CC9284",
"~ 	c #D2BAB4",
"{ 	c #968291",
"] 	c #ADA6AC",
"^ 	c #966A84",
"/ 	c #DAC2C4",
"( 	c #AE9AAC",
"_ 	c #C6BAB8",
": 	c #A692A4",
"< 	c #666A6C",
"[ 	c #BEAABC",
"} 	c #D4BAC0",
"| 	c #CEAEAC",
"1 	c #B5B2B1",
"2 	c #9EAAB9",
"3 	c #CA827C",
"4 	c #B896B2",
"5 	c #928A8C",
"6 	c #898289",
"7 	c #D6CAC4",
"8 	c #DEBAC6",
"9 	c #D0C2BE",
"0 	c #CDB2B8",
"a 	c #B2AAB4",
"b 	c #9B9EA7",
"c 	c #D2AABC",
"d 	c #D2B2BC",
"e 	c #BA9AB7",
"f 	c #AB92B4",
"g 	c #725A5C",
"h 	c #CEBAB4",
"i 	c #7E6E84",
"j 	c #C7AAB2",
"k 	c #B6BABC",
"l 	c #BE8A7C",
"m 	c #9E8A9C",
"n 	c #EAD2BC",
"o 	c #C29AAC",
"p 	c #1E1A1C",
"q 	c #C8A6B0",
"r 	c #BEB2CC",
"s 	c #A3A2AC",
"t 	c #929AA4",
"u 	c #B2B6CC",
"v 	c #262624",
"w 	c #7F8A97",
"x 	c #C5CADC",
"y 	c #DEC2D4",
"z 	c #DABAC4",
"A 	c #D9AA99",
"B 	c #A29ACC",
"C 	c #9E8AB4",
"D 	c #C0A2B9",
"E 	c #DBB2A9",
"F 	c #ACB2B8",
"G 	c #5C5A60",
"H 	c #BAA2B4",
"I 	c #BE7A7C",
"J 	c #C0BAD4",
"K 	c #767A8C",
"L 	c #BAB2B6",
"M 	c #9FAAC8",
"N 	c #8E8A84",
"O 	c #E2CECC",
"P 	c #E0BEC2",
"Q 	c #BAAAAC",
"R 	c #C8AEB6",
"S 	c #CA8A7C",
"T 	c #D8AAA8",
"U 	c #C6C2DC",
"V 	c #B292A8",
"W 	c #96929C",
"X 	c #D2928C",
"Y 	c #DEC2C4",
"Z 	c #AA9ECC",
"` 	c #9E96C4",
" .	c #706E74",
"..	c #CACED4",
"+.	c #D6AAC4",
"@.	c #BE9EB9",
"#.	c #E8DADC",
"$.	c #DBB6AE",
"%.	c #9EA2C4",
"&.	c #C6B2B4",
"*.	c #D6A294",
"=.	c #DCBAA0",
"-.	c #AEA2CC",
";.	c #B29AAC",
">.	c #D4BEC1",
",.	c #DACAD4",
"'.	c #DAB2CC",
").	c #B296B4",
"!.	c #252224",
"~.	c #BFA6B7",
"{.	c #AEB2CC",
"].	c #C6BAD8",
"^.	c #CA8A8F",
"/.	c #828294",
"(.	c #AE8AAC",
"_.	c #DADAD4",
":.	c #9D86B1",
"<.	c #927E8C",
"[.	c #DAC6C4",
"}.	c #C0AEBA",
"|.	c #B2B6BC",
"1.	c #CA828C",
"2.	c #BE92A4",
"3.	c #8E828C",
"4.	c #D0C6D8",
"5.	c #CEB6BC",
"6.	c #B99EBA",
"7.	c #AA96B8",
"8.	c #7A5E64",
"9.	c #827A94",
"0.	c #624E64",
"a.	c #D19A91",
"b.	c #968ABC",
"c.	c #6A5E64",
"d.	c #8E7674",
"e.	c #2E2E2C",
"f.	c #767274",
"g.	c #8A6E6C",
"h.	c #5A565C",
"i.	c #A69AB4",
"j.	c #C87E8C",
"k.	c #E8D2E0",
"l.	c #B6AACC",
"m.	c #626E84",
"n.	c #AAAECA",
"o.	c #6E5E74",
"p.	c #868E9C",
"q.	c #927A9C",
"r.	c #A69AC7",
"s.	c #A692B9",
"t.	c #6A5254",
"u.	c #CEBACC",
"v.	c #B6BACC",
"w.	c #A2A6C4",
"x.	c #969EBC",
"y.	c #9696B4",
"z.	c #DADEEC",
"A.	c #8A7284",
"B.	c #8E96A4",
"C.	c #DECAC4",
"D.	c #A68A9C",
"E.	c #C6B6CC",
"F.	c #2E2A2C",
"G.	c #A68EAC",
"H.	c #A6AAC4",
"I.	c #766A6C",
"J.	c #EEDAE4",
"K.	c #D69E94",
"L.	c #BAB2CC",
"M.	c #D2CAD4",
"N.	c #C1B6B7",
"O.	c #AC96A8",
"P.	c #CE9694",
"Q.	c #868694",
"R.	c #9E9EBC",
"S.	c #B6A6C4",
"T.	c #7E6254",
"U.	c #9A8A9C",
"V.	c #C68A8C",
"W.	c #625A54",
"X.	c #C6B6C4",
"Y.	c #B29EB7",
"Z.	c #A69EA4",
"`.	c #A69ECC",
" +	c #DBBAB2",
".+	c #8A96A4",
"++	c #CEA69C",
"@+	c #928694",
"#+	c #A2AEBC",
"$+	c #765E64",
"%+	c #CCBEBA",
"&+	c #A08EA4",
"*+	c #201E24",
"=+	c #C0B6CE",
"-+	c #828E9C",
";+	c #D7AE9C",
">+	c #ADB6BB",
",+	c #A2AECC",
"'+	c #DAAEA8",
")+	c #C3C6DB",
"!+	c #D7AEC7",
"~+	c #D9A697",
"{+	c #AFA6C9",
"]+	c #CE8E91",
"^+	c #AB8EA9",
"/+	c #D29E8C",
"(+	c #BABED4",
"_+	c #7A8694",
":+	c #CFAEBC",
"<+	c #D3B6BC",
"[+	c #A6A6AC",
"}+	c #969EA4",
"|+	c #A08EB4",
"1+	c #C2BED4",
"2+	c #92969C",
"3+	c #EADEDC",
"4+	c #9DA6C4",
"5+	c #D6CED4",
"6+	c #DDB6CC",
"7+	c #7F8694",
"8+	c #BAAECC",
"9+	c #9EA2A8",
"0+	c #B2A6B4",
"a+	c #9A7E88",
"b+	c #6A6E7C",
"c+	c #8E8E94",
"d+	c #BEA6AC",
"e+	c #A6969C",
"f+	c #262A2C",
"g+	c #DEC6CC",
"h+	c #DABEC2",
"i+	c #BAB6B4",
"j+	c #BAAEB4",
"k+	c #CA8E84",
"l+	c #B296AC",
"m+	c #D2968F",
"n+	c #C6BED4",
"o+	c #CA8690",
"p+	c #A696BB",
"q+	c #DECEC1",
"r+	c #A68EA4",
"s+	c #D2D2E4",
"t+	c #EACECC",
"u+	c #2A2224",
"v+	c #CA867C",
"w+	c #B2AEB4",
"x+	c #DEC6C4",
"y+	c #BEC2DC",
"z+	c #CE9294",
"A+	c #AC9ABC",
"B+	c #B2B2BC",
"C+	c #968A9C",
"D+	c #868294",
"E+	c #C6AABC",
"F+	c #C6A6BC",
"G+	c #E0BECC",
". . . . . . . . . . . . . . . . . . . . . . . . . . . . . . . . . . . . . . . . . . . . . . . . ",
". . . . . . . . . . . . . . . . . . . . . . . . . . . . . . . . . . . . . . . . . . . . . . . . ",
". . . . . . . . . . . . . . . . . . . . . . . . . > > > > . . > > . . . . . . . . . . . . . . . ",
". . . . . . . . . . . . . . . . . . . . . . . . > > . . > > . > > . . . . . . . . . . . . . . . ",
". . . . . . . . . . . . . . . . . . . . . . . . > > > . . . . > > > . . > > > . . > . > > . . . ",
". . . . . . . . . . . . . . . . . . . . . . . . . > > > > . . > > . . > > . > > . > > . > > . . ",
". . . . . . . . . . . . . . . . . . . . . . . . . . . > > > . > > . . > > . > > . > > . . > . . ",
". . . . . . . . . . . . . . . . . . . . . . . . > . . . > > . > > . . > > . > > . > > . . > . . ",
". . . . . . . . . . . . . . . . . . . . . . . . > > . . > > . > > . . > > . > > . > > . > > . . ",
". . . . . . . . . . . . . . . . . . . . . . . . . > > > > . . . > > . . > > > . . > > > > . . . ",
". . . . . . . . . . . . . . . . . . . . . . . . . . . . . . . . . . . . . . . . . > > . . . . . ",
". . . . . . . . . . . . . . . . . . . . . . . . . . . . . . . . . . . . . . . . . > > . . . . . ",
"                                                                                                ",
"                                                                                                ",
"                                                                                                ",
"                                                                                                ",
"                                                                                                ",
"                                                                                                ",
"                                                                                                ",
"                                                                                                ",
"                                                                                                ",
"                                      . . . . . . . . . .                                       ",
"                                . . . A.^+= ^+G.:.C |+:.i . . .                                 ",
"                            . . g.| <+D 6.e V ^+:.C s.Y.& & = c.. .                             ",
"                        . . 8.++E $.h+E+@.6.V r+:.C 7.S.E.~.( &+C+G . .                         ",
"                      . . % , ;+E $. +<+D 6.4 ^+:.|+A+}.}.Y.&+C+{ a+3.. .                       ",
"                    . p I S ! /+;+$.$. +F+6.4 ^+C |+Y.X.H : U.{ <.6 Q.c+*+.                     ",
"                  . u+V.^.o+3 k+/+;+$.$.<+D e = C s.}.[ O.U.a+3.D+7+7+7+w v .                   ",
"                . . k+m+m+]+^.1.v+a.A =. +~.6.O.|+7.}.;.m { 6 /.7+7+_+w w - . .                 ",
"                . l ~+*.K.m+X ]+^.j.! A =.* @.l+|+S.;.D.@+7+7+_+_+w -+- - B.2+.                 ",
"              . T.'+A A A ~+*.a.z+]+o+j.;+n ,.,.4.4.}.W 7++ _+w p..+B.t }+b b  ..               ",
"              . , $.E E '+'+T A ~+a.P.T P $ W.*+*+' 9+@ # -+.+t }+b 9+s s s s Z..               ",
"            . t.8 8 8 8 8  +$.$.E '+P t+I.. .     . . < ..B+[+] ] ] ] ] ] ] ] ] h..             ",
"            . 2.G+G+G+G+G+q+q+q+q+q+3+N . .         . . 6 5+}.j+Q Q Q Q Q Q Q Q e+.             ",
"            . ~ C.C.C.C.x+x+x+Y Y h+J.!..             . !.#.0 0 0 &.&.R R }.}.}.d+.             ",
"            . / x+x+x+Y Y P 8 z z 6+k.3.. .         . . 5 #./ >.} } <+5.5.5.0 0 R .             ",
"            . h+Y Y P 8 8 G+8 8 8 6+y k. .. .     . . f.3+O / / g+/ / >.} } } <+5..             ",
"            . :+P G+G+G+8 8 8 '.!+!+R u.M.0+h.!.*+G F _.7 / / / / / [.[./ / h+>.0 .             ",
"            . o G+G+G+8 6+'.!+!+0 R ~.i.6.].s+z.) ) x k 1 %+>./ / / / / [./ / / $ .             ",
"            . $+8 8 '.'.!+!+<+:+j 6.p+7.r.{+y+@ H.M ,+#+|.L _ >./ / [.[.[.[./ [.g .             ",
"              . c '.!++.} d :+j e f 7.).-.L.)+@ n.w.M ,+>+|.i+N.9 / / / [.[.[.h .               ",
"              . ^ +.!+<+d R D 4 f i.7.`.l.J )+)+n.%.M M 2 >+B+L N.%+9 [./ / [.d..               ",
"                . j d 0 j D 4 ).p+7.` -.8+1+)+@ n.%.w.M M ; |.B+1 N.%+9 [.[.R .                 ",
"                . . q q @.4 4 s.7.7.r.l.=+)+)+@ {.4+w.4+M 2 >+|.B+L N._ 9 %+. .                 ",
"                  . F.4 4 4 f p+7.B {+8+J x )+@ {.w.4+w.M M ; >+B+w+L N.N.e..                   ",
"                    . !.(.f p+p+` `.l.=+n+x )+@ u w.4+w.4+4+M F >+B+w+a f+.                     ",
"                      . . q.p+7.B {+8+=+U x )+@ u w.%.w.4+4+4+#+>+|.s . .                       ",
"                        . . 0.b.Z l.r ].)+x )+@ u H.%.4+4+4+4+M 2 b+. .                         ",
"                            . . o.A+=+n+)+x )+@ v.H.%.%.w.4+x.m.. .                             ",
"                                . . . 9.n.(+@ @ v.H.R.y.K . . .                                 ",
"                                      . . . . . . . . . .                                       ",
"                                                                                                ",
"                                                                                                ",
"                                                                                                ",
"                                                                                                ",
"                                                                                                ",
"                                                                                                ",
"                                                                                                ",
"                                                                                                ",
"                                                                                                "};
